<?xml version="1.0" standalone="no"?>
<!DOCTYPE svg PUBLIC "-//W3C//DTD SVG 1.1//EN" "http://www.w3.org/Graphics/SVG/1.1/DTD/svg11.dtd" >
<svg xmlns="http://www.w3.org/2000/svg" xmlns:xlink="http://www.w3.org/1999/xlink" version="1.1">
<metadata>
Created by FontForge 20201107 at Thu Sep 30 18:02:22 2021
 By dhhan
Copyright (c) 2021 HYUNDAI CARD Corp. All Rights Reserved.
</metadata>
<defs>
<font id="YouandiNewKrTitle-Regular" horiz-adv-x="1692" >
  <font-face 
    font-family="YouandiNewKr Title Regular"
    font-weight="400"
    font-stretch="normal"
    units-per-em="2000"
    panose-1="2 11 5 0 0 0 0 0 0 0"
    ascent="1600"
    descent="-400"
    x-height="1079"
    cap-height="1420"
    bbox="-1530 -481.222 2512 1995"
    underline-thickness="50"
    underline-position="-100"
    unicode-range="U+000D-FFE6"
  />
<missing-glyph horiz-adv-x="950" 
d="M476 848l-300 572h598zM106 140v1144l298 -572zM844 140l-298 572l298 572v-1144zM176 0l300 572l298 -572h-598z" />
    <glyph glyph-name="fi" unicode="fi" horiz-adv-x="1212" 
d="M187 0q-14 0 -24 10t-10 24v1180q0 50 20.5 91t57.5 68l135 100q29 22 64 34.5t77 12.5h186q14 0 24 -10t10 -24v-67q0 -14 -10 -24t-24 -10h-298q-31 0 -53 -22t-22 -53v-230h337q14 0 24 -10t10 -24v-67q0 -14 -10 -24t-24 -10h-337v-911q0 -14 -10 -24t-24 -10h-99z
M927 1321q-14 0 -24 10t-10 24v131q0 14 10 24t24 10h99q14 0 24 -10t10 -24v-131q0 -14 -10 -24t-24 -10h-99zM927 0q-14 0 -24 10t-10 24v1012q0 14 10 24t24 10h99q14 0 24 -10t10 -24v-1012q0 -14 -10 -24t-24 -10h-99z" />
    <glyph glyph-name="fl" unicode="fl" horiz-adv-x="1212" 
d="M187 0q-14 0 -24 10t-10 24v1180q0 50 20.5 91t57.5 68l135 100q29 22 64 34.5t77 12.5h186q14 0 24 -10t10 -24v-67q0 -14 -10 -24t-24 -10h-298q-31 0 -53 -22t-22 -53v-230h337q14 0 24 -10t10 -24v-67q0 -14 -10 -24t-24 -10h-337v-911q0 -14 -10 -24t-24 -10h-99z
M927 0q-14 0 -24 10t-10 24v1452q0 14 10 24t24 10h99q14 0 24 -10t10 -24v-1452q0 -14 -10 -24t-24 -10h-99z" />
    <glyph glyph-name=".notdef" horiz-adv-x="950" 
d="M476 848l-300 572h598zM106 140v1144l298 -572zM844 140l-298 572l298 572v-1144zM176 0l300 572l298 -572h-598z" />
    <glyph glyph-name="nonmarkingreturn" unicode="&#xd;" horiz-adv-x="500" 
 />
    <glyph glyph-name="space" unicode=" " horiz-adv-x="500" 
 />
    <glyph glyph-name="exclam" unicode="!" horiz-adv-x="565" 
d="M251 391q-18 0 -27 10t-9 24l-26 945q0 35 34 35h118q34 0 34 -35l-26 -945q0 -14 -9 -24t-27 -10h-62zM228 0q-14 0 -24 10t-10 24v123q0 14 10 24t24 10h108q14 0 24 -10t10 -24v-123q0 -14 -10 -24t-24 -10h-108z" />
    <glyph glyph-name="quotedbl" unicode="&#x22;" horiz-adv-x="662" 
d="M132 989q-14 0 -24 10t-10 24v463q0 14 10 24t24 10h85q14 0 24 -10t10 -24v-463q0 -14 -10 -24t-24 -10h-85zM446 989q-14 0 -24 10t-10 24v463q0 14 10 24t24 10h85q14 0 24 -10t10 -24v-463q0 -14 -10 -24t-24 -10h-85z" />
    <glyph glyph-name="numbersign" unicode="#" horiz-adv-x="1433" 
d="M961 398l-93 -374q-2 -9 -11 -16.5t-20 -7.5h-102q-10 0 -15.5 7.5t-2.5 16.5l93 374h-343l-93 -374q-2 -9 -11 -16.5t-20 -7.5h-102q-10 0 -15.5 7.5t-2.5 16.5l93 374h-282q-10 0 -15 7t-2 17l22 92q2 10 11 17t20 7h281l86 344h-282q-10 0 -15.5 7t-2.5 17l23 92
q2 10 11 17t19 7h282l93 375q2 9 11 16t19 7h102q11 0 16 -7t3 -16l-93 -375h343l93 375q2 9 11 16t19 7h102q11 0 16 -7t3 -16l-93 -375h281q11 0 15.5 -7t2.5 -17l-22 -92q-3 -10 -12 -17t-19 -7h-281l-86 -344h281q11 0 15.5 -7t2.5 -17l-22 -92q-3 -10 -12 -17t-19 -7
h-281zM936 886h-351l-88 -352h351z" />
    <glyph glyph-name="dollar" unicode="$" horiz-adv-x="1244" 
d="M889 47q-31 -23 -66.5 -35t-77.5 -12h-36v-66q0 -14 -10 -24t-24 -10h-99q-14 0 -24 10t-10 24v66h-392q-14 0 -24 10t-10 24v75q0 14 10 24t24 10h392v503h-150q-61 0 -114 23t-92.5 63t-62.5 93.5t-23 113.5v115q0 60 25 110t70 84l169 125q62 47 144 47h34v66
q0 14 10 24t24 10h99q14 0 24 -10t10 -24v-66h363q14 0 24 -10t10 -24v-75q0 -14 -10 -24t-24 -10h-363v-482h152q61 0 114 -23t92.5 -63t62.5 -93.5t23 -113.5v-135q0 -60 -25 -110t-70 -84zM542 1277h-114q-31 0 -57.5 -11t-46 -30.5t-30.5 -46t-11 -57.5v-192
q0 -31 11 -57.5t30.5 -46t46 -30.5t57.5 -11h114v482zM970 501q0 31 -11 57.5t-30.5 46t-46 30.5t-57.5 11h-116v-503h116q31 0 57.5 11t46 30.5t30.5 46t11 57.5v213z" />
    <glyph glyph-name="percent" unicode="%" horiz-adv-x="1590" 
d="M410 810q-65 0 -122.5 25t-100 68t-67.5 100.5t-25 122.5q0 66 25 123.5t67.5 100t100 67.5t122.5 25t122.5 -25t100.5 -67.5t68 -100t25 -123.5q0 -65 -25 -122.5t-68 -100.5t-100.5 -68t-122.5 -25zM177 0q-14 0 -18.5 12.5t4.5 23.5l1074 1353q13 16 30 23.5t37 7.5
h108q13 0 18 -11.5t-4 -22.5l-1075 -1353q-27 -33 -66 -33h-108zM410 950q35 0 65.5 13.5t53 37.5t35 56t12.5 69t-12.5 69t-35 56t-53 37.5t-65.5 13.5t-65 -13.5t-52.5 -37.5t-35 -56t-12.5 -69t12.5 -69t35 -56t52.5 -37.5t65 -13.5zM1179 -21q-65 0 -122.5 25t-100 68
t-67 100.5t-24.5 123.5t24.5 124t67 100.5t100 67.5t122.5 25t122.5 -25t100.5 -67.5t68 -100.5t25 -124t-25 -123.5t-68 -100.5t-100.5 -68t-122.5 -25zM1179 120q35 0 65.5 13.5t53 37.5t35.5 56t13 69t-13 69.5t-35.5 56.5t-53 37.5t-65.5 13.5t-65 -13.5t-52 -37.5
t-35 -56.5t-13 -69.5t13 -69t35 -56t52 -37.5t65 -13.5z" />
    <glyph glyph-name="ampersand" unicode="&#x26;" horiz-adv-x="1406" 
d="M1197 0q-37 0 -62 25l-201 205l-141 -139q-42 -42 -96 -67.5t-116 -25.5h-169q-68 0 -126.5 25t-101.5 69t-68 102.5t-25 126.5v119q0 123 66.5 211t186.5 130l37 15l-60 61q-83 83 -83 213v42q0 62 28 115t79 89l83 60q62 45 145 45h81q62 0 115.5 -21.5t92.5 -60
t61.5 -92t22.5 -117.5v-32q0 -115 -61 -196.5t-178 -123.5l-59 -24l302 -308l288 285q8 8 18 8t18 -8l65 -66q8 -8 8 -18t-7 -17l-290 -286l312 -319q7 -8 3.5 -16.5t-14.5 -8.5h-154zM774 1146q0 30 -12.5 56.5t-33 46t-47.5 31t-57 11.5h-58q-30 0 -57.5 -12t-47.5 -32.5
t-32 -48t-12 -58.5v-73q0 -35 12 -68t35 -57l80 -82l106 42q61 20 92.5 60t31.5 103v81zM485 689l-83 -33q-31 -9 -56.5 -27t-43.5 -42t-28 -53t-10 -61v-163q0 -37 14 -70t38.5 -57.5t57.5 -39t70 -14.5h110q36 0 67.5 12t57.5 37l156 154z" />
    <glyph glyph-name="quotesingle" unicode="'" horiz-adv-x="348" 
d="M132 989q-14 0 -24 10t-10 24v463q0 14 10 24t24 10h85q14 0 24 -10t10 -24v-463q0 -14 -10 -24t-24 -10h-85z" />
    <glyph glyph-name="parenleft" unicode="(" horiz-adv-x="549" 
d="M477 -393q-20 0 -34.5 6.5t-28.5 23.5q-81 100 -142 212.5t-101.5 233t-60.5 247.5t-20 258q0 261 82.5 504.5t241.5 449.5q12 16 27.5 22t35.5 6h85q15 0 20.5 -11.5t-4.5 -22.5q-162 -203 -244.5 -445.5t-82.5 -502.5q0 -263 80.5 -502.5t244.5 -444.5q10 -12 5 -23
t-19 -11h-85z" />
    <glyph glyph-name="parenright" unicode=")" horiz-adv-x="544" 
d="M-18 -393q-14 0 -19 11t4 23q163 204 244.5 445t81.5 502q0 260 -82.5 502.5t-244.5 445.5q-10 11 -4.5 22.5t19.5 11.5h86q20 0 35.5 -6t27.5 -22q159 -206 241.5 -449.5t82.5 -504.5q0 -131 -20.5 -258t-61 -247.5t-101 -233t-141.5 -212.5q-14 -17 -28.5 -23.5
t-34.5 -6.5h-85z" />
    <glyph glyph-name="asterisk" unicode="*" horiz-adv-x="900" 
d="M660 737q-19 -14 -33 6l-177 256l-177 -256q-13 -19 -32 -6l-74 53q-18 14 -5 33l190 247l-299 91q-23 5 -15 27l28 87q7 22 29 13l296 -103l-9 312q0 23 22 23h92q24 0 24 -23l-9 -312l294 103q22 9 29 -13l28 -87q8 -22 -15 -27l-297 -92l188 -247q14 -18 -6 -32z" />
    <glyph glyph-name="plus" unicode="+" horiz-adv-x="1170" 
d="M543 23q-14 0 -24.5 10.5t-10.5 25.5v416h-394q-14 0 -24 10t-10 24v70q0 14 10 24t24 10h394v411q0 14 10.5 24.5t24.5 10.5h85q14 0 24.5 -10.5t10.5 -24.5v-411h395q14 0 24.5 -10t10.5 -24v-70q0 -14 -10.5 -24t-24.5 -10h-395v-417q0 -14 -10.5 -24.5t-24.5 -10.5
h-85z" />
    <glyph glyph-name="comma" unicode="," horiz-adv-x="380" 
d="M159 -252q-8 -8 -18 -9.5t-18.5 2.5t-14.5 12t-6 19v473q0 14 10 24t24 10h100q14 0 24 -10t10 -24v-355q0 -29 -23 -54z" />
    <glyph glyph-name="hyphen" unicode="-" horiz-adv-x="732" 
d="M133 474q-14 0 -24.5 10.5t-10.5 24.5v65q0 14 10.5 24t24.5 10h468q14 0 24 -10t10 -24v-65q0 -14 -10 -24.5t-24 -10.5h-468z" />
    <glyph glyph-name="period" unicode="." horiz-adv-x="380" 
d="M132 0q-14 0 -24 10t-10 24v124q0 14 10 24t24 10h117q14 0 24 -10t10 -24v-124q0 -14 -10 -24t-24 -10h-117z" />
    <glyph glyph-name="slash" unicode="/" horiz-adv-x="688" 
d="M51 -390q-15 0 -23 8.5t-4 25.5l475 1893q8 33 42 33h91q15 0 23 -8.5t4 -25.5l-473 -1893q-8 -33 -42 -33h-93z" />
    <glyph glyph-name="zero" unicode="0" horiz-adv-x="1170" 
d="M585 -11q-120 0 -210.5 55.5t-151 152.5t-90.5 229t-30 284q0 153 30 285t90.5 228.5t151 152t210.5 55.5q121 0 211.5 -55.5t151 -152t90.5 -228.5t30 -285q0 -152 -30.5 -284t-91 -229t-151 -152.5t-210.5 -55.5zM585 136q79 0 137 45t96 123t56 182.5t18 223.5
t-18 223.5t-56 182.5t-96 123t-137 45t-137 -45t-95.5 -123t-56 -182.5t-18.5 -223.5t18.5 -223.5t56 -182.5t95.5 -123t137 -45z" />
    <glyph glyph-name="one" unicode="1" horiz-adv-x="1170" 
d="M177 0q-14 0 -24 10t-10 24v75q0 14 10 24t24 10h337v1134h-351q-13 0 -17.5 11.5t6.5 19.5l93 70q25 20 53.5 31t62.5 11h300q14 0 24 -10t10 -24v-1243h320q14 0 24 -10t10 -24v-75q0 -14 -10 -24t-24 -10h-838z" />
    <glyph glyph-name="two" unicode="2" horiz-adv-x="1170" 
d="M163 0q-14 0 -24 10t-10 24v403q0 57 24.5 105.5t67.5 80.5l159 118q30 22 64 34t74 12h219q59 0 95.5 36.5t36.5 95.5v230q0 29 -10 53.5t-27.5 42t-41.5 27.5t-53 10h-567q-13 0 -17.5 11t6.5 19l89 67q24 18 51.5 29.5t59.5 11.5h407q58 0 109 -21.5t89 -59.5t60 -89
t22 -110v-216q0 -58 -22 -109t-59.5 -89t-89 -60t-109.5 -22h-299q-74 0 -117.5 -43.5t-43.5 -118.5v-344h691q14 0 24 -9.5t10 -23.5v-71q0 -14 -10 -24t-24 -10h-834z" />
    <glyph glyph-name="three" unicode="3" horiz-adv-x="1170" 
d="M780 47q-29 -23 -65 -35t-74 -12h-498q-13 0 -17.5 11t6.5 19l89 68q24 18 51.5 29t59.5 11h391q28 0 52.5 10t42.5 28t28 42.5t10 53.5v268q0 29 -10 53.5t-27.5 42t-42 27.5t-53.5 10h-382q-14 0 -24 10t-10 24v71q0 14 10 24t24 10h375q28 0 52.5 10t42.5 28t28 42
t10 52v205q0 29 -10 53.5t-27.5 42t-41.5 27.5t-53 10h-572q-13 0 -17 11t6 19l89 67q24 19 52 30t60 11h411q59 0 110 -21.5t89 -59.5t59.5 -89t21.5 -110v-117q0 -58 -26.5 -105t-71.5 -81l-62 -47q81 -37 124 -105.5t43 -149.5v-187q0 -58 -26.5 -105.5t-71.5 -80.5z" />
    <glyph glyph-name="four" unicode="4" horiz-adv-x="1170" 
d="M754 0q-14 0 -24 10t-10 24v353h-298q-57 0 -106 21t-85 57.5t-57 85.5t-21 105v522q0 24 7.5 40t21.5 30l97 98q9 9 19 11t18.5 -2t14 -12.5t5.5 -20.5v-674q0 -54 33.5 -87t86.5 -33h264v858q0 14 10 24t24 10h112q14 0 24 -10t10 -24v-858h195q14 0 24 -10t10 -24v-73
q0 -14 -10 -24t-24 -10h-195v-353q0 -14 -10 -24t-24 -10h-112z" />
    <glyph glyph-name="five" unicode="5" horiz-adv-x="1170" 
d="M775 47q-29 -23 -65 -35t-75 -12h-498q-13 0 -17 11t6 19l89 68q24 18 52 29t60 11h390q28 0 52.5 10t42.5 28t28.5 42.5t10.5 53.5v268q0 29 -10 53.5t-28 42t-42.5 27.5t-53.5 10h-476q-14 0 -24 10t-10 24v679q0 14 10 24t24 10h716q14 0 24 -10t10 -24v-70
q0 -15 -10 -24.5t-24 -9.5h-578v-470h368q59 0 110.5 -21.5t89.5 -59.5t59.5 -89.5t21.5 -110.5v-183q0 -58 -26.5 -105.5t-71.5 -80.5z" />
    <glyph glyph-name="six" unicode="6" horiz-adv-x="1170" 
d="M801 47q-30 -23 -66 -35t-74 -12h-239q-59 0 -110.5 21.5t-89.5 59.5t-59.5 89.5t-21.5 110.5v791q0 58 26.5 105.5t71.5 80.5l155 115q29 23 65.5 35t74.5 12h498q13 0 17 -11t-6 -19l-89 -68q-24 -18 -51.5 -29t-59.5 -11h-391q-29 0 -53.5 -10.5t-42.5 -28.5
t-28 -42.5t-10 -52.5v-376q118 25 195.5 40t127.5 23.5t79.5 11t52.5 2.5q59 0 110 -21.5t89 -59t59.5 -89t21.5 -110.5v-221q0 -58 -26.5 -105.5t-71.5 -80.5zM876 562q0 58 -37 95t-95 37h-383q-18 0 -30.5 -12t-12.5 -30v-380q0 -29 10 -53.5t28 -42.5t42.5 -28t53.5 -10
h291q28 0 52.5 10t42.5 28t28 42.5t10 53.5v290z" />
    <glyph glyph-name="seven" unicode="7" horiz-adv-x="1170" 
d="M430 0q-14 0 -24 9.5t-10 24.5v394q0 46 17.5 87.5t49.5 73.5l352 350q37 37 37 91v252h-723q-14 0 -24 10t-10 24v70q0 14 10 24t24 10h859q14 0 24 -10t10 -24v-364q0 -46 -17.5 -87.5t-49.5 -73.5l-344 -342q-38 -38 -38 -92v-393q0 -15 -9.5 -24.5t-24.5 -9.5h-109z
" />
    <glyph glyph-name="eight" unicode="8" horiz-adv-x="1170" 
d="M789 47q-30 -23 -66 -35t-74 -12h-240q-59 0 -110.5 21.5t-89 59.5t-59 89t-21.5 110v169q0 58 24.5 105t68.5 81l71 55q-33 15 -62.5 40t-51.5 57.5t-34.5 72t-12.5 82.5v130q0 58 26.5 105.5t71.5 80.5l155 115q29 23 65 35t75 12h233q59 0 110 -21.5t89 -59.5
t59.5 -89t21.5 -110v-127q0 -58 -25 -105.5t-69 -81.5l-68 -52q34 -14 64.5 -39t52.5 -58t35 -73t13 -84v-172q0 -58 -26.5 -105.5t-71.5 -80.5zM861 1149q0 29 -10 53.5t-27.5 42t-42 27.5t-53.5 10h-285q-29 0 -53.5 -10.5t-42.5 -28.5t-28 -42.5t-10 -52.5v-217
q0 -29 10 -53.5t27.5 -42t42 -27.5t53.5 -10h285q28 0 52.5 10t42.5 28t28.5 42.5t10.5 52.5v218zM864 531q0 29 -10 53t-27.5 41.5t-42 27.5t-52.5 10h-293q-28 0 -52.5 -10t-42.5 -28t-28 -42t-10 -52v-260q0 -29 10 -53.5t27.5 -42t41.5 -27.5t53 -10h293q28 0 52.5 10
t42.5 28t28 42.5t10 53.5v259z" />
    <glyph glyph-name="nine" unicode="9" horiz-adv-x="1170" 
d="M776 47q-29 -23 -65.5 -35t-74.5 -12h-498q-13 0 -17 11t6 19l89 68q24 18 51.5 29t59.5 11h391q28 0 52.5 10t42.5 28t28.5 42.5t10.5 53.5v376q-118 -25 -195.5 -40t-127.5 -23.5t-80 -11t-52 -2.5q-59 0 -110 21.5t-89 59t-59.5 89t-21.5 110.5v221q0 58 26.5 105.5
t71.5 80.5l154 115q30 23 66 35t74 12h239q59 0 110.5 -21.5t89.5 -59.5t59.5 -89.5t21.5 -110.5v-791q0 -58 -26.5 -105.5t-71.5 -80.5zM852 1148q0 29 -10 53.5t-28 42.5t-42.5 28t-53.5 10h-291q-28 0 -52.5 -10.5t-42.5 -28.5t-28 -42.5t-10 -52.5v-290q0 -58 37 -95
t95 -37h383q18 0 30.5 12t12.5 30v380z" />
    <glyph glyph-name="colon" unicode=":" horiz-adv-x="380" 
d="M132 888q-14 0 -24 10t-10 24v124q0 14 10 24t24 10h117q14 0 24 -10t10 -24v-124q0 -14 -10 -24t-24 -10h-117zM132 0q-14 0 -24 10t-10 24v124q0 14 10 24t24 10h117q14 0 24 -10t10 -24v-124q0 -14 -10 -24t-24 -10h-117z" />
    <glyph glyph-name="semicolon" unicode=";" horiz-adv-x="380" 
d="M132 888q-14 0 -24 10t-10 24v124q0 14 10 24t24 10h117q14 0 24 -10t10 -24v-124q0 -14 -10 -24t-24 -10h-117zM158 -252q-8 -8 -18 -9.5t-18.5 2.5t-14.5 12t-6 19v473q0 14 10 24t24 10h100q14 0 24 -10t10 -24v-355q0 -29 -23 -54z" />
    <glyph glyph-name="less" unicode="&#x3c;" horiz-adv-x="1170" 
d="M928 118q-16 -30 -46 -12l-717 404q-19 11 -19 30t19 30l717 405q30 18 46 -12l39 -68q8 -14 4 -26.5t-18 -20.5l-553 -308l553 -307q14 -8 18 -20.5t-4 -26.5z" />
    <glyph glyph-name="equal" unicode="=" horiz-adv-x="1170" 
d="M169 699q-14 0 -24 10t-10 24v70q0 14 10 24t24 10h834q14 0 24.5 -10t10.5 -24v-70q0 -14 -10.5 -24t-24.5 -10h-834zM169 251q-14 0 -24 10t-10 24v70q0 14 10 24t24 10h834q14 0 24.5 -10t10.5 -24v-70q0 -14 -10.5 -24t-24.5 -10h-834z" />
    <glyph glyph-name="greater" unicode="&#x3e;" horiz-adv-x="1170" 
d="M288 106q-30 -18 -46 12l-38 68q-8 14 -4.5 26.5t17.5 20.5l554 307l-554 308q-14 8 -17.5 20.5t4.5 26.5l38 68q16 30 46 12l717 -405q19 -11 19 -30t-19 -30z" />
    <glyph glyph-name="question" unicode="?" horiz-adv-x="818" 
d="M223 419q-15 0 -24.5 8.5t-11.5 25.5q-2 21 -4 46t-3 51t-1.5 51.5t-0.5 46.5q0 42 14.5 77t40 61t61 40.5t78.5 14.5h99q31 0 51.5 20.5t20.5 51.5v296q0 34 -20 54.5t-55 20.5h-407q-9 0 -15.5 5t-9 12t-1 15t9.5 14l72 55q44 35 101 35h253q54 0 98 -17t75.5 -48.5
t48.5 -75.5t17 -98v-240q0 -51 -18 -94.5t-49.5 -75.5t-75 -50t-94.5 -18h-63q-32 0 -52.5 -20.5t-20.5 -51.5v-178q0 -16 -10 -25t-25 -9h-79zM217 -1q-14 0 -24 10.5t-10 24.5v122q0 14 10 24t24 10h109q14 0 24 -10t10 -24v-122q0 -14 -10 -24.5t-24 -10.5h-109z" />
    <glyph glyph-name="at" unicode="@" horiz-adv-x="1863" 
d="M1461 -180q-41 -28 -91 -28h-763q-95 0 -177 33.5t-142 91.5t-94 136.5t-34 169.5v609q0 109 41.5 199.5t125.5 153.5l193 143q63 48 134.5 70t154.5 22h476q88 0 164.5 -33t132.5 -91t88.5 -136.5t32.5 -169.5v-465q0 -147 -110 -225l-129 -91q-39 -28 -84 -43.5
t-99 -15.5h-50q-29 0 -53.5 15.5t-35.5 41.5q-61 -16 -110.5 -27.5t-92 -19t-79.5 -11.5t-72 -4q-49 0 -92 17t-75 47.5t-50.5 73.5t-18.5 96v357q0 52 26 101.5t69 79.5l124 88q74 53 161 53h329q12 0 19 -7.5t7 -17.5v-722q0 -33 35 -33h34q41 0 76 14t60 39t39 60t14 77
v536q0 58 -22.5 109t-60.5 89t-90 60.5t-110 22.5h-502q-91 0 -170.5 -32t-139 -89t-94 -135t-34.5 -170v-649q0 -57 22.5 -108t61.5 -90t90.5 -62t109.5 -23h939q19 0 24 -14t-10 -25zM1124 928h-243q-33 0 -61.5 -11.5t-50 -32.5t-33.5 -50t-12 -64v-368q0 -57 35.5 -90.5
t87.5 -33.5h225q52 0 52 52v598z" />
    <glyph glyph-name="A" unicode="A" horiz-adv-x="1210" 
d="M1047 0q-16 0 -28.5 9t-17.5 26l-117 375h-567l-117 -375q-11 -35 -45 -35h-98q-16 0 -24 12t-3 26l426 1348q5 17 17.5 25.5t28.5 8.5h208q16 0 28.5 -8.5t17.5 -25.5l424 -1348q5 -14 -3 -26t-24 -12h-106zM601 1329l-241 -775h481z" />
    <glyph glyph-name="B" unicode="B" horiz-adv-x="1433" 
d="M1021 47q-28 -21 -65 -34t-75 -13h-657q-14 0 -24 10t-10 24v1352q0 14 10 24t24 10h116q14 0 24 -10t10 -24v-34q148 22 249.5 37t171.5 23.5t116.5 12t84.5 3.5q58 0 108.5 -21t88 -58.5t59 -88.5t21.5 -110v-129q0 -58 -24.5 -105.5t-69.5 -81.5l-64 -49
q78 -40 121 -106t43 -149v-167q0 -58 -25.5 -109.5t-68.5 -83.5zM1090 1148q0 57 -36 93t-93 36h-544q-43 0 -43 -43v-427h587q27 0 51 10t41 27t27 40.5t10 50.5v213zM1096 536q0 56 -36 92t-93 36h-593v-521h593q27 0 51 10t41 27t27 41t10 51v264z" />
    <glyph glyph-name="C" unicode="C" horiz-adv-x="1258" 
d="M1090 42q-25 -19 -53.5 -30.5t-61.5 -11.5h-520q-61 0 -115 23t-94 63t-63 94t-23 115v760q0 61 27.5 110t74.5 84l164 123q31 23 68 35.5t78 12.5h551q14 0 24 -10t10 -24v-75q0 -14 -10 -24t-24 -10h-634q-31 0 -57.5 -11t-46 -30.5t-30.5 -46t-11 -57.5v-844
q0 -31 11 -57.5t30.5 -46t46 -30.5t57.5 -11h683q14 0 18 -11t-7 -19z" />
    <glyph glyph-name="D" unicode="D" horiz-adv-x="1476" 
d="M1050 48q-31 -23 -68 -35.5t-78 -12.5h-680q-14 0 -24 10t-10 24v1352q0 14 10 24t24 10h116q14 0 24 -10t10 -24v-34q148 22 253 37t180 23.5t125.5 12t88.5 3.5q61 0 115 -23t94 -63t63 -94t23 -115v-768q0 -61 -27.5 -110t-74.5 -84zM1132 1132q0 31 -11 57.5
t-30.5 46t-46 30.5t-57.5 11h-570q-18 0 -30.5 -12.5t-12.5 -30.5v-1091h613q31 0 57.5 11t46 30.5t30.5 46t11 57.5v844z" />
    <glyph glyph-name="E" unicode="E" horiz-adv-x="1292" 
d="M1090 42q-25 -19 -53.5 -30.5t-61.5 -11.5h-520q-61 0 -115 23t-94 63t-63 94t-23 115v760q0 61 27.5 110t74.5 84l164 123q31 23 68 35.5t78 12.5h563q14 0 24 -10t10 -24v-75q0 -14 -10 -24t-24 -10h-646q-31 0 -57.5 -11t-46 -30.5t-30.5 -46t-11 -57.5v-325h770
q14 0 24 -10t10 -24v-75q0 -14 -10 -24t-24 -10h-770v-376q0 -31 11 -57.5t30.5 -46t46 -30.5t57.5 -11h683q14 0 18 -11t-7 -19z" />
    <glyph glyph-name="F" unicode="F" horiz-adv-x="1151" 
d="M352 649v-615q0 -14 -10 -24t-24 -10h-116q-14 0 -24 10t-10 24v1021q0 61 27.5 110t74.5 84l164 123q31 23 68 35.5t78 12.5h482q14 0 24 -10t10 -24v-75q0 -14 -10 -24t-24 -10h-565q-31 0 -57.5 -11t-46 -30.5t-30.5 -46t-11 -57.5v-340h650q14 0 24 -10t10 -24v-75
q0 -14 -10 -24t-24 -10h-650z" />
    <glyph glyph-name="G" unicode="G" horiz-adv-x="1386" 
d="M1136 0q-14 0 -24 10t-10 24v34q-148 -23 -253 -37.5t-180 -23t-125.5 -12t-88.5 -3.5q-61 0 -115 23t-94 63t-63 94t-23 115v768q0 61 27.5 110t74.5 84l164 123q31 23 68 35.5t78 12.5h680q14 0 24 -10t10 -24v-75q0 -14 -10 -24t-24 -10h-763q-31 0 -57.5 -11
t-46 -30.5t-30.5 -46t-11 -57.5v-844q0 -31 11 -57.5t30.5 -46t46 -30.5t57.5 -11h570q18 0 30.5 12.5t12.5 30.5v414h-320q-14 0 -24 10t-10 24v75q0 14 10 24t24 10h470q14 0 24 -10t10 -24v-675q0 -14 -10 -24t-24 -10h-116z" />
    <glyph glyph-name="H" unicode="H" horiz-adv-x="1487" 
d="M1150 0q-14 0 -24 10t-10 24v630h-745v-630q0 -14 -10 -24t-24 -10h-113q-14 0 -24 10t-10 24v1352q0 14 10 24t24 10h113q14 0 24 -10t10 -24v-579h745v579q0 14 10 24t24 10h113q14 0 24 -10t10 -24v-1352q0 -14 -10 -24t-24 -10h-113z" />
    <glyph glyph-name="I" unicode="I" horiz-adv-x="561" 
d="M224 0q-14 0 -24 10t-10 24v1352q0 14 10 24t24 10h113q14 0 24 -10t10 -24v-1352q0 -14 -10 -24t-24 -10h-113z" />
    <glyph glyph-name="J" unicode="J" horiz-adv-x="849" 
d="M413 49q-31 -23 -68 -36t-78 -13h-228q-14 0 -24 10t-10 24v75q0 14 10 24t24 10h314q31 0 57.5 11t46 30.5t30.5 46t11 57.5v1098q0 14 10 24t24 10h113q14 0 24 -10t10 -24v-1021q0 -60 -27.5 -109.5t-74.5 -84.5z" />
    <glyph glyph-name="K" unicode="K" horiz-adv-x="1228" 
d="M1055 0q-19 0 -36.5 8t-30.5 23l-589 657q-8 8 -17.5 4t-9.5 -14v-644q0 -14 -10 -24t-24 -10h-114q-14 0 -24 10t-10 24v1352q0 14 10 24t24 10h114q14 0 24 -10t10 -24v-622q0 -10 9.5 -14t17.5 4l576 635q27 31 68 31h120q16 0 23 -13t-4 -25l-591 -653l622 -689
q11 -13 5 -26.5t-22 -13.5h-141z" />
    <glyph glyph-name="L" unicode="L" horiz-adv-x="1082" 
d="M997 42q-25 -19 -53.5 -30.5t-62.5 -11.5h-413q-61 0 -114.5 23.5t-93.5 63.5t-63.5 93.5t-23.5 114.5v1091q0 14 10 24t24 10h116q14 0 24 -10t10 -24v-1098q0 -31 11 -57.5t30.5 -46t46 -30.5t57.5 -11h577q13 0 17.5 -11t-6.5 -19z" />
    <glyph glyph-name="M" unicode="M" horiz-adv-x="1762" 
d="M1450 0q-14 0 -24 10t-10 24v1320l-384 -1321q-5 -14 -16.5 -23.5t-25.5 -9.5h-219q-16 0 -27 9.5t-15 23.5l-388 1326v-1325q0 -14 -10 -24t-24 -10h-83q-14 0 -24 10t-10 24v1352q0 14 10 24t24 10h246q32 0 42 -31l378 -1303l376 1303q8 31 42 31h230q14 0 24 -10
t10 -24v-1352q0 -14 -10 -24t-24 -10h-88z" />
    <glyph glyph-name="N" unicode="N" horiz-adv-x="1441" 
d="M992 0q-20 0 -35 10t-22 27l-589 1277v-1280q0 -14 -10 -24t-24 -10h-88q-14 0 -24 10t-10 24v1352q0 14 10 24t24 10h224q20 0 35 -10t22 -27l589 -1276v1279q0 14 10 24t24 10h89q14 0 24 -10t10 -24v-1352q0 -14 -10 -24t-24 -10h-225z" />
    <glyph glyph-name="O" unicode="O" horiz-adv-x="1446" 
d="M1020 48q-31 -23 -68 -35.5t-78 -12.5h-419q-61 0 -115 23t-94 63t-63 94t-23 115v760q0 61 27.5 110t74.5 84l164 123q31 23 68 35.5t78 12.5h419q61 0 115 -23t94 -63t63 -94t23 -115v-760q0 -61 -27.5 -110t-74.5 -84zM1102 1132q0 31 -11 57.5t-30.5 46t-46 30.5
t-57.5 11h-468q-31 0 -57.5 -11t-46 -30.5t-30.5 -46t-11 -57.5v-844q0 -31 11 -57.5t30.5 -46t46 -30.5t57.5 -11h468q31 0 57.5 11t46 30.5t30.5 46t11 57.5v844z" />
    <glyph glyph-name="P" unicode="P" horiz-adv-x="1360" 
d="M1000 619q-30 -23 -67.5 -36t-77.5 -13h-481v-536q0 -14 -10 -24t-24 -10h-116q-14 0 -24 10t-10 24v1352q0 14 10 24t24 10h116q14 0 24 -10t10 -24v-34q149 22 249.5 37t167.5 23.5t108.5 12t71.5 3.5q61 0 115 -23t94 -63t63 -94t23 -115v-198q0 -61 -26.5 -110
t-74.5 -84zM1082 1132q0 31 -11 57.5t-30.5 46t-46 30.5t-57.5 11h-520q-18 0 -30.5 -12.5t-12.5 -30.5v-521h564q30 0 56.5 11t46 30.5t30.5 46t11 57.5v274z" />
    <glyph glyph-name="Q" unicode="Q" horiz-adv-x="1446" 
d="M1247 -220q-31 0 -50 28l-181 237q-31 -21 -67 -33t-75 -12h-419q-61 0 -115 23t-94 63t-63 94t-23 115v760q0 61 27.5 110t74.5 84l164 123q31 23 68 35.5t78 12.5h419q61 0 115 -23t94 -63t63 -94t23 -115v-760q0 -61 -27.5 -110t-74.5 -84l-34 -26l255 -333
q9 -13 1.5 -22.5t-21.5 -9.5h-138zM1102 1132q0 31 -11 57.5t-30.5 46t-46 30.5t-57.5 11h-468q-31 0 -57.5 -11t-46 -30.5t-30.5 -46t-11 -57.5v-844q0 -31 11 -57.5t30.5 -46t46 -30.5t57.5 -11h468q31 0 57.5 11t46 30.5t30.5 46t11 57.5v844z" />
    <glyph glyph-name="R" unicode="R" horiz-adv-x="1385" 
d="M1193 0q-32 0 -48 28l-297 528q-10 17 -24 24t-34 7h-416v-553q0 -14 -10 -24t-24 -10h-116q-14 0 -24 10t-10 24v1352q0 14 10 24t24 10h116q14 0 24 -10t10 -24v-34q149 22 249.5 37t167.5 23.5t108.5 12t71.5 3.5q61 0 115 -23t94 -63t63 -94t23 -115v-181
q0 -61 -26.5 -110t-74.5 -84l-158 -117l343 -608q8 -14 1 -23.5t-21 -9.5h-137zM1082 1132q0 31 -11 57.5t-30.5 46t-46 30.5t-57.5 11h-520q-18 0 -30.5 -12.5t-12.5 -30.5v-504h564q30 0 56.5 11t46 30.5t30.5 46t11 57.5v257z" />
    <glyph glyph-name="S" unicode="S" horiz-adv-x="1243" 
d="M885 49q-31 -23 -68 -36t-78 -13h-590q-14 0 -24 10t-10 24v75q0 14 10 24t24 10h673q31 0 57.5 11t46 30.5t30.5 46t11 57.5v213q0 31 -11 57.5t-30.5 46t-46 30.5t-57.5 11h-432q-61 0 -114.5 23t-93 63t-62.5 93.5t-23 113.5v116q0 61 27.5 110t74.5 84l164 123
q31 23 68 35.5t78 12.5h561q14 0 24 -10t10 -24v-75q0 -14 -10 -24t-24 -10h-644q-31 0 -57.5 -11t-46 -30.5t-30.5 -46t-11 -57.5v-192q0 -31 11 -57.5t30.5 -46t46 -30.5t57.5 -11h432q61 0 114.5 -23t93 -63t62.5 -93.5t23 -113.5v-137q0 -60 -27.5 -109.5t-74.5 -84.5z
" />
    <glyph glyph-name="T" unicode="T" horiz-adv-x="1168" 
d="M526 0q-14 0 -24 10t-10 24v1243h-443q-14 0 -24 10t-10 24v75q0 14 10 24t24 10h1070q14 0 24 -10t10 -24v-75q0 -14 -10 -24t-24 -10h-443v-1243q0 -14 -10 -24t-24 -10h-116z" />
    <glyph glyph-name="U" unicode="U" horiz-adv-x="1468" 
d="M1128 0q-14 0 -24 10t-10 24v35q-148 -23 -250 -37.5t-172.5 -23.5t-118 -12.5t-85.5 -3.5q-61 0 -114.5 23t-93.5 63t-63.5 94t-23.5 116v1098q0 14 10 24t24 10h116q14 0 24 -10t10 -24v-1097q0 -31 11 -57.5t30.5 -46t46 -30.5t57.5 -11h549q18 0 30.5 12.5t12.5 30.5
v1199q0 14 10 24t24 10h116q14 0 24 -10t10 -24v-1352q0 -14 -10 -24t-24 -10h-116z" />
    <glyph glyph-name="V" unicode="V" horiz-adv-x="1240" 
d="M504 0q-16 0 -28.5 9t-17.5 26l-428 1348q-4 14 3.5 25.5t23.5 11.5h111q16 0 28.5 -8.5t17.5 -25.5l410 -1294l410 1294q5 17 18 25.5t29 8.5h102q15 0 23 -11.5t4 -25.5l-427 -1348q-5 -17 -17.5 -26t-28.5 -9h-233z" />
    <glyph glyph-name="W" unicode="W" horiz-adv-x="1870" 
d="M1268 0q-16 0 -27.5 10t-14.5 26l-291 1305l-286 -1305q-3 -16 -15 -26t-28 -10h-206q-16 0 -27.5 10t-14.5 26l-305 1347q-4 17 3.5 27t23.5 10h112q15 0 27 -9t15 -25l279 -1317l280 1314q3 16 15.5 26.5t29.5 10.5h204q17 0 30 -10.5t16 -26.5l281 -1314l279 1317
q3 16 15.5 25t26.5 9h97q16 0 25 -10t5 -27l-303 -1347q-3 -16 -15 -26t-28 -10h-203z" />
    <glyph glyph-name="X" unicode="X" horiz-adv-x="1194" 
d="M1007 0q-30 0 -44 24l-363 542l-369 -542q-16 -24 -46 -24h-126q-14 0 -21 12t1 24l465 680l-456 667q-8 12 -2 24.5t20 12.5h138q28 0 45 -25l361 -530l360 530q17 25 45 25h126q15 0 21.5 -12.5t-1.5 -24.5l-456 -666l464 -681q8 -12 2 -24t-20 -12h-144z" />
    <glyph glyph-name="Y" unicode="Y" horiz-adv-x="1087" 
d="M485 0q-14 0 -24 10t-10 24v479q0 13 -2.5 26t-9.5 25l-460 821q-8 14 -1 24.5t22 10.5h136q32 0 48 -28l363 -661l367 661q16 28 46 28h128q14 0 20.5 -11t-0.5 -24l-459 -821q-14 -25 -14 -51v-479q0 -14 -10 -24t-24 -10h-116z" />
    <glyph glyph-name="Z" unicode="Z" horiz-adv-x="1248" 
d="M99 0q-14 0 -24 10t-10 24v69q0 26 16 45l882 1129h-815q-14 0 -24 10t-10 24v75q0 14 10 24t24 10h1001q14 0 24 -10t10 -24v-69q0 -26 -16 -45l-883 -1129h868q14 0 24 -10t10 -24v-75q0 -14 -10 -24t-24 -10h-1053z" />
    <glyph glyph-name="bracketleft" unicode="[" horiz-adv-x="660" 
d="M219 -390q-14 0 -24 10t-10 24v1892q0 14 10 24t24 10h402q14 0 24 -10t10 -24v-67q0 -14 -10 -24t-24 -10h-269v-1690h269q14 0 24 -10t10 -24v-67q0 -14 -10 -24t-24 -10h-402z" />
    <glyph glyph-name="backslash" unicode="\" horiz-adv-x="691" 
d="M545 -390q-34 0 -42 33l-473 1893q-4 17 4 25.5t23 8.5h91q34 0 42 -33l475 -1893q4 -17 -4 -25.5t-23 -8.5h-93z" />
    <glyph glyph-name="bracketright" unicode="]" horiz-adv-x="661" 
d="M41 -390q-34 0 -34 34v67q0 34 34 34h268v1690h-268q-34 0 -34 34v67q0 34 34 34h401q34 0 34 -34v-1892q0 -34 -34 -34h-401z" />
    <glyph glyph-name="asciicircum" unicode="^" horiz-adv-x="1170" 
d="M931 594q-10 -5 -19.5 -2t-14.5 12l-310 560l-310 -560q-5 -9 -14.5 -12t-19.5 2l-86 46q-9 5 -12 15t2 19l412 738q9 17 27.5 17t27.5 -17l412 -738q5 -9 2 -19t-12 -15z" />
    <glyph glyph-name="underscore" unicode="_" horiz-adv-x="839" 
d="M-14 -294q-14 0 -24.5 10t-10.5 24v52q0 14 10.5 24t24.5 10h867q14 0 24.5 -10t10.5 -24v-52q0 -14 -10.5 -24t-24.5 -10h-867z" />
    <glyph glyph-name="grave" unicode="`" horiz-adv-x="970" 
d="M488 1200q-43 0 -73 30l-223 223q-10 10 -10 24.5t10 24.5l44 43q11 10 24.5 10t23.5 -10l301 -300q14 -14 6.5 -29.5t-26.5 -15.5h-77z" />
    <glyph glyph-name="a" unicode="a" horiz-adv-x="1163" 
d="M878 0q-14 0 -24 10t-10 24v25q-98 -19 -168.5 -32t-123.5 -20.5t-93.5 -11t-77.5 -3.5q-50 0 -94 18.5t-76.5 51t-51 76.5t-18.5 95v541q0 50 21 90.5t58 68.5l134 100q29 22 64 34.5t77 12.5h482q14 0 24 -10t10 -24v-1012q0 -14 -10 -24t-24 -10h-99zM844 945h-461
q-31 0 -53 -22t-22 -53v-660q0 -33 21 -54t54 -21h421q17 0 28.5 11.5t11.5 28.5v770z" />
    <glyph glyph-name="b" unicode="b" horiz-adv-x="1164" 
d="M810 47q-29 -22 -64 -34.5t-77 -12.5h-482q-14 0 -24 10t-10 24v1452q0 14 10 24t24 10h99q14 0 24 -10t10 -24v-465q98 19 168.5 32t123.5 20.5t93 11t78 3.5q50 0 94 -18.5t76.5 -51t51 -76.5t18.5 -95v-541q0 -50 -21 -90.5t-58 -68.5zM856 870q0 33 -21 54t-54 21
h-421q-17 0 -28.5 -11.5t-11.5 -28.5v-770h461q31 0 53 22t22 53v660z" />
    <glyph glyph-name="c" unicode="c" horiz-adv-x="1020" 
d="M868 42q-25 -19 -55.5 -30.5t-67.5 -11.5h-364q-50 0 -94 18.5t-76.5 51t-51 76.5t-18.5 94v534q0 50 21 90.5t58 68.5l134 100q29 22 64 34.5t77 12.5h411q14 0 24 -10t10 -24v-67q0 -14 -10 -24t-24 -10h-523q-31 0 -53 -22t-22 -53v-660q0 -33 21 -54t54 -21h555
q13 0 17 -12t-6 -20z" />
    <glyph glyph-name="d" unicode="d" horiz-adv-x="1163" 
d="M878 0q-14 0 -24 10t-10 24v25q-98 -19 -168.5 -32t-123.5 -20.5t-93.5 -11t-77.5 -3.5q-50 0 -94 18.5t-76.5 51t-51 76.5t-18.5 95v541q0 50 21 90.5t58 68.5l134 100q29 22 64 34.5t77 12.5h349v406q0 14 10 24t24 10h99q14 0 24 -10t10 -24v-1452q0 -14 -10 -24
t-24 -10h-99zM844 945h-461q-31 0 -53 -22t-22 -53v-660q0 -33 21 -54t54 -21h421q17 0 28.5 11.5t11.5 28.5v770z" />
    <glyph glyph-name="e" unicode="e" horiz-adv-x="1132" 
d="M924 42q-25 -19 -55.5 -30.5t-67.5 -11.5h-420q-50 0 -94 18.5t-76.5 51t-51 76.5t-18.5 94v534q0 50 21 90.5t58 68.5l134 100q29 22 64 34.5t77 12.5h281q50 0 94 -18.5t76.5 -51t51 -76.5t18.5 -94v-104q0 -51 -18.5 -94.5t-51 -76t-76.5 -51t-94 -18.5h-468v-286
q0 -33 21 -54t54 -21h611q13 0 17 -12t-6 -20zM849 870q0 33 -21 54t-54 21h-391q-31 0 -53 -22t-22 -53v-239h466q34 0 54.5 20t20.5 55v164z" />
    <glyph glyph-name="f" unicode="f" horiz-adv-x="710" 
d="M187 0q-14 0 -24 10t-10 24v1180q0 50 21 90.5t57 68.5l135 100q29 22 64 34.5t77 12.5h186q14 0 24 -10t10 -24v-67q0 -14 -10 -24t-24 -10h-298q-31 0 -53 -22t-22 -53v-230h337q14 0 24 -10t10 -24v-67q0 -14 -10 -24t-24 -10h-337v-911q0 -14 -10 -24t-24 -10h-99z
" />
    <glyph glyph-name="g" unicode="g" horiz-adv-x="1163" 
d="M798 -392q-29 -21 -64 -34.5t-77 -13.5h-442q-14 0 -24 10t-10 24v67q0 14 10 24t24 10h554q31 0 53 22t22 53v289q-98 -19 -168.5 -32t-123.5 -20.5t-93.5 -11t-77.5 -3.5q-50 0 -94 18.5t-76.5 51t-51 76.5t-18.5 95v541q0 50 21 90.5t58 68.5l134 100q29 22 64 34.5
t77 12.5h482q14 0 24 -10t10 -24v-1180q0 -49 -21 -90t-57 -68zM844 945h-461q-31 0 -53 -22t-22 -53v-660q0 -33 21 -54t54 -21h421q17 0 28.5 11.5t11.5 28.5v770z" />
    <glyph glyph-name="h" unicode="h" horiz-adv-x="1160" 
d="M886 0q-14 0 -24 10t-10 24v836q0 33 -21 54t-54 21h-417q-17 0 -28.5 -11.5t-11.5 -28.5v-871q0 -14 -10 -24t-24 -10h-99q-14 0 -24 10t-10 24v1452q0 14 10 24t24 10h99q14 0 24 -10t10 -24v-465q98 19 168 32t122 20.5t91.5 11t77.5 3.5q52 0 96.5 -17.5t76 -49.5
t49.5 -76t18 -96v-815q0 -14 -10 -24t-24 -10h-99z" />
    <glyph glyph-name="i" unicode="i" horiz-adv-x="472" 
d="M187 1321q-14 0 -24 10t-10 24v131q0 14 10 24t24 10h99q14 0 24 -10t10 -24v-131q0 -14 -10 -24t-24 -10h-99zM187 0q-14 0 -24 10t-10 24v1012q0 14 10 24t24 10h99q14 0 24 -10t10 -24v-1012q0 -14 -10 -24t-24 -10h-99z" />
    <glyph glyph-name="j" unicode="j" horiz-adv-x="472" 
d="M187 1321q-14 0 -24 10t-10 24v131q0 14 10 24t24 10h99q14 0 24 -10t10 -24v-131q0 -14 -10 -24t-24 -10h-99zM107 -392q-29 -21 -64 -34.5t-77 -13.5h-32q-14 0 -24 10t-10 24v67q0 14 10 24t24 10h144q31 0 53 22t22 53v1276q0 14 10 24t24 10h99q14 0 24 -10t10 -24
v-1180q0 -49 -21 -90t-57 -68z" />
    <glyph glyph-name="k" unicode="k" horiz-adv-x="1003" 
d="M862 0q-20 0 -36.5 7t-30.5 24l-448 491q-8 8 -17.5 4t-9.5 -15v-477q0 -14 -10 -24t-24 -10h-99q-14 0 -24 10t-10 24v1452q0 14 10 24t24 10h99q14 0 24 -10t10 -24v-892q0 -10 9.5 -14t17.5 4l431 466q12 14 30.5 22t38.5 8h103q16 0 21.5 -13t-5.5 -24l-448 -484
l478 -520q11 -13 5 -26t-22 -13h-117z" />
    <glyph glyph-name="l" unicode="l" horiz-adv-x="472" 
d="M187 0q-14 0 -24 10t-10 24v1452q0 14 10 24t24 10h99q14 0 24 -10t10 -24v-1452q0 -14 -10 -24t-24 -10h-99z" />
    <glyph glyph-name="m" unicode="m" horiz-adv-x="1726" 
d="M1452 0q-14 0 -24 10t-10 24v836q0 33 -21 54t-54 21h-406q16 -38 16 -77v-834q0 -14 -10 -24t-24 -10h-99q-14 0 -24 10t-10 24v837q0 34 -19.5 54t-51.5 20h-355q-17 0 -28.5 -11.5t-11.5 -28.5v-871q0 -14 -10 -24t-24 -10h-99q-14 0 -24 10t-10 24v1012q0 14 10 24
t24 10h99q14 0 24 -10t10 -24v-25q157 31 252 48t146 17q50 0 92 -18t74 -48q90 17 160 30t125 21.5t97.5 12.5t77.5 4q51 0 95 -18.5t76.5 -51.5t51 -77t18.5 -95v-812q0 -14 -10 -24t-24 -10h-99z" />
    <glyph glyph-name="n" unicode="n" horiz-adv-x="1164" 
d="M890 0q-14 0 -24 10t-10 24v836q0 33 -21 54t-54 21h-421q-17 0 -28.5 -11.5t-11.5 -28.5v-871q0 -14 -10 -24t-24 -10h-99q-14 0 -24 10t-10 24v1012q0 14 10 24t24 10h99q14 0 24 -10t10 -24v-25q98 19 168.5 32t123.5 20.5t93 11t78 3.5q50 0 94 -18.5t76.5 -51
t51 -76.5t18.5 -95v-813q0 -14 -10 -24t-24 -10h-99z" />
    <glyph glyph-name="o" unicode="o" horiz-adv-x="1152" 
d="M798 48q-29 -21 -64 -34.5t-77 -13.5h-276q-50 0 -94 18.5t-76.5 51t-51 76.5t-18.5 94v534q0 50 21 90.5t58 68.5l134 100q29 22 64 34.5t77 12.5h276q50 0 94 -18.5t76.5 -51t51 -76.5t18.5 -94v-534q0 -49 -21 -90t-57 -68zM844 870q0 33 -21 54t-54 21h-386
q-31 0 -53 -22t-22 -53v-660q0 -33 21 -54t54 -21h386q31 0 53 22t22 53v660z" />
    <glyph glyph-name="p" unicode="p" horiz-adv-x="1164" 
d="M810 47q-29 -22 -64 -34.5t-77 -12.5h-349v-406q0 -14 -10 -24t-24 -10h-99q-14 0 -24 10t-10 24v1452q0 14 10 24t24 10h99q14 0 24 -10t10 -24v-25q98 19 168.5 32t123.5 20.5t93 11t78 3.5q50 0 94 -18.5t76.5 -51t51 -76.5t18.5 -95v-541q0 -50 -21 -90.5t-58 -68.5z
M856 870q0 33 -21 54t-54 21h-421q-17 0 -28.5 -11.5t-11.5 -28.5v-770h461q31 0 53 22t22 53v660z" />
    <glyph glyph-name="q" unicode="q" horiz-adv-x="1163" 
d="M878 -440q-14 0 -24 10t-10 24v465q-98 -19 -168.5 -32t-123.5 -20.5t-93.5 -11t-77.5 -3.5q-50 0 -94 18.5t-76.5 51t-51 76.5t-18.5 95v541q0 50 21 90.5t58 68.5l134 100q29 22 64 34.5t77 12.5h482q14 0 24 -10t10 -24v-1452q0 -14 -10 -24t-24 -10h-99zM844 945
h-461q-31 0 -53 -22t-22 -53v-660q0 -33 21 -54t54 -21h421q17 0 28.5 11.5t11.5 28.5v770z" />
    <glyph glyph-name="r" unicode="r" horiz-adv-x="784" 
d="M187 0q-14 0 -24 10t-10 24v1012q0 14 10 24t24 10h99q14 0 24 -10t10 -24v-60q61 28 101.5 46t69 28.5t48.5 15t39 4.5h165q14 0 24 -10t10 -24v-80q0 -14 -10 -24t-24 -10h-383q-17 0 -28.5 -11.5t-11.5 -28.5v-858q0 -14 -10 -24t-24 -10h-99z" />
    <glyph glyph-name="s" unicode="s" horiz-adv-x="1065" 
d="M744 48q-29 -22 -64 -35t-77 -13h-442q-14 0 -24 10t-10 24v67q0 14 10 24t24 10h554q31 0 53 22t22 53v208q0 33 -21 54t-54 21h-369q-50 0 -94 18.5t-76.5 51t-51 76.5t-18.5 94v41q0 50 21 90.5t58 68.5l134 100q29 22 64 34.5t77 12.5h432q14 0 24 -10t10 -24v-67
q0 -14 -10 -24t-24 -10h-544q-31 0 -53 -22t-22 -53v-167q0 -33 21 -54t54 -21h369q50 0 94 -18.5t76.5 -51t51 -76.5t18.5 -94v-82q0 -49 -21 -90t-58 -68z" />
    <glyph glyph-name="t" unicode="t" horiz-adv-x="753" 
d="M638 42q-25 -19 -55.5 -30.5t-67.5 -11.5h-128q-50 0 -94 18.5t-76.5 51t-51 76.5t-18.5 94v936q0 17 8 31t22 22l96 58q14 8 27.5 1t13.5 -22v-186h360q14 0 24 -10t10 -24v-67q0 -14 -10 -24t-24 -10h-360v-735q0 -33 21 -54t54 -21h319q13 0 17 -12t-6 -20z" />
    <glyph glyph-name="u" unicode="u" horiz-adv-x="1169" 
d="M884 0q-14 0 -24 10t-10 24v25q-98 -19 -168.5 -32t-123.5 -20.5t-93.5 -11t-77.5 -3.5q-50 0 -94 18.5t-76.5 51t-51 76.5t-18.5 95v813q0 14 10 24t24 10h99q14 0 24 -10t10 -24v-836q0 -33 21 -54t54 -21h421q17 0 28.5 11.5t11.5 28.5v871q0 14 10 24t24 10h99
q14 0 24 -10t10 -24v-1012q0 -14 -10 -24t-24 -10h-99z" />
    <glyph glyph-name="v" unicode="v" horiz-adv-x="1006" 
d="M424 0q-37 0 -48 35l-349 1011q-5 15 1.5 24.5t22.5 9.5h97q37 0 47 -34l310 -929l311 929q10 34 47 34h92q16 0 22.5 -9.5t1.5 -24.5l-348 -1011q-11 -35 -48 -35h-159z" />
    <glyph glyph-name="w" unicode="w" horiz-adv-x="1646" 
d="M1108 0q-17 0 -28.5 8.5t-15.5 26.5l-246 930l-241 -930q-4 -18 -15.5 -26.5t-28.5 -8.5h-165q-36 0 -43 34l-272 1012q-5 17 3 25.5t24 8.5h95q17 0 28.5 -8t15.5 -26l242 -930l240 930q7 34 43 34h160q36 0 45 -34l243 -930l249 930q7 34 43 34h85q16 0 24 -8.5
t3 -25.5l-275 -1012q-10 -34 -43 -34h-170z" />
    <glyph glyph-name="x" unicode="x" horiz-adv-x="1023" 
d="M854 0q-15 0 -28.5 6.5t-21.5 18.5l-297 411l-296 -411q-8 -12 -21.5 -18.5t-28.5 -6.5h-112q-15 0 -21 12.5t2 23.5l386 516l-368 491q-8 11 -3 23.5t20 12.5h121q15 0 28.5 -6.5t21.5 -18.5l279 -388l277 388q8 12 21.5 18.5t28.5 6.5h115q15 0 20.5 -12.5t-3.5 -23.5
l-367 -491l386 -516q9 -11 3 -23.5t-21 -12.5h-121z" />
    <glyph glyph-name="y" unicode="y" horiz-adv-x="1169" 
d="M907 -433q-9 -9 -19 -11t-18.5 1.5t-14 12t-5.5 20.5v469q-98 -19 -168.5 -32t-123.5 -20.5t-93.5 -11t-77.5 -3.5q-50 0 -94 18.5t-76.5 51t-51 76.5t-18.5 95v813q0 14 10 24t24 10h99q14 0 24 -10t10 -24v-836q0 -33 21 -54t54 -21h421q17 0 28.5 11.5t11.5 28.5v871
q0 14 10 24t24 10h99q14 0 24 -10t10 -24v-1328q0 -23 -8 -39.5t-21 -30.5z" />
    <glyph glyph-name="z" unicode="z" horiz-adv-x="994" 
d="M109 0q-14 0 -24 10t-10 24v82q0 9 3.5 18t8.5 17l642 794h-603q-14 0 -24 10t-10 24v67q0 14 10 24t24 10h750q14 0 24 -10t10 -24v-81q0 -18 -13 -36l-639 -794h635q14 0 24 -10t10 -24v-67q0 -14 -10 -24t-24 -10h-784z" />
    <glyph glyph-name="braceleft" unicode="{" horiz-adv-x="799" 
d="M589 -390q-55 0 -103 20.5t-83.5 56.5t-56 83.5t-20.5 101.5v551q0 42 -29 71t-71 29h-157q-14 0 -24 10t-10 24v67q0 14 10 24t24 10h157q42 0 71 29t29 71v491q0 54 23.5 97.5t61.5 72.5l145 109q26 20 58.5 31t69.5 11h79q14 0 24 -10t10 -24v-67q0 -14 -10 -24
t-24 -10h-168q-42 0 -71 -29t-29 -71v-491q0 -53 -23.5 -97t-61.5 -73l-60 -45q64 -32 104.5 -94t40.5 -140v-550q0 -42 29 -71t71 -29h168q14 0 24 -10t10 -24v-67q0 -14 -10 -24t-24 -10h-174z" />
    <glyph glyph-name="bar" unicode="|" horiz-adv-x="546" 
d="M224 -390q-34 0 -34 34v1892q0 34 34 34h98q34 0 34 -34v-1892q0 -34 -34 -34h-98z" />
    <glyph glyph-name="braceright" unicode="}" horiz-adv-x="799" 
d="M241 -348q-26 -20 -58.5 -31t-69.5 -11h-79q-14 0 -24 10t-10 24v67q0 14 10 24t24 10h168q42 0 71 29t29 71v491q0 53 23.5 97t61.5 73l60 45q-64 32 -104.5 94t-40.5 140v550q0 42 -29 71t-71 29h-168q-14 0 -24 10t-10 24v67q0 14 10 24t24 10h174q55 0 103 -20.5
t83.5 -56.5t56 -83.5t20.5 -101.5v-551q0 -42 29 -71t71 -29h157q14 0 24 -10t10 -24v-67q0 -14 -10 -24t-24 -10h-157q-42 0 -71 -29t-29 -71v-491q0 -54 -23.5 -97.5t-61.5 -72.5z" />
    <glyph glyph-name="asciitilde" unicode="~" horiz-adv-x="1170" 
d="M1061 588q25 -21 5 -47q-57 -63 -130 -95.5t-161 -32.5q-68 0 -116.5 18.5t-90 40.5t-81.5 40.5t-89 18.5q-56 0 -99.5 -20t-80.5 -58q-24 -24 -48 -4l-57 45q-29 23 -5 50q56 63 128 95.5t162 32.5q43 0 78.5 -8.5t66 -22t58 -28.5t55 -28.5t56.5 -22t63 -8.5
q54 0 98.5 20t80.5 57q24 25 48 5z" />
    <glyph glyph-name="uni00A0" unicode="&#xa0;" horiz-adv-x="500" 
 />
    <glyph glyph-name="exclamdown" unicode="&#xa1;" horiz-adv-x="566" 
d="M229 889q-14 0 -24 10t-10 24v123q0 14 10 24t24 10h108q14 0 24 -10t10 -24v-123q0 -14 -10 -24t-24 -10h-108zM224 -325q-34 0 -34 35l26 945q0 14 9 24t27 10h62q18 0 27 -10t9 -24l26 -945q0 -35 -34 -35h-118z" />
    <glyph glyph-name="cent" unicode="&#xa2;" horiz-adv-x="1017" 
d="M893 47q-23 -23 -52 -35t-61 -12h-91v-66q0 -14 -10 -24t-24 -10h-98q-14 0 -24 10t-10 24v66h-82q-62 0 -117 23.5t-95.5 64t-64 95.5t-23.5 117v443q0 63 28 118t78 92l90 68q38 29 83 44t93 15h10v66q0 14 10 24t24 10h98q14 0 24 -10t10 -24v-66h213q14 0 24 -10
t10 -24v-67q0 -14 -10 -24t-24 -10h-213v-810h243q14 0 19.5 -11t-5.5 -22zM523 945h-51q-35 0 -64.5 -12.5t-52 -35t-35 -52.5t-12.5 -64v-482q0 -35 12.5 -64.5t35 -52t52 -35t64.5 -12.5h51v810z" />
    <glyph glyph-name="sterling" unicode="&#xa3;" horiz-adv-x="1092" 
d="M64 0q-14 0 -24 10t-10 24v75q0 14 10 24t24 10h79q30 0 56.5 11.5t46 31t31 46t11.5 57.5v311h-184q-14 0 -24 10t-10 24v75q0 14 10 24t24 10h184v311q0 60 25.5 110t70.5 84l169 125q61 47 144 47h287q14 0 24 -10t10 -24v-75q0 -14 -10 -24t-24 -10h-367
q-31 0 -57.5 -11t-46 -30.5t-30.5 -46t-11 -57.5v-389h339q14 0 24 -10t10 -24v-75q0 -14 -10 -24t-24 -10h-339v-230q0 -61 -26 -110.5t-71 -83.5l-44 -33h717q14 0 24 -10t10 -24v-75q0 -14 -10 -24t-24 -10h-984z" />
    <glyph glyph-name="yen" unicode="&#xa5;" horiz-adv-x="1123" 
d="M653 212v-178q0 -14 -10 -24t-24 -10h-116q-14 0 -24 10t-10 24v178h-331q-34 0 -34 35v74q0 34 34 34h331v148h-331q-34 0 -34 35v74q0 34 34 34h288l-429 739q-8 13 -0.5 24t21.5 11h133q31 0 47 -28l363 -629l365 629q17 28 46 28h134q14 0 20.5 -11.5t-0.5 -23.5
l-429 -739h296q34 0 34 -34v-74q0 -35 -34 -35h-340v-148h340q34 0 34 -34v-74q0 -35 -34 -35h-340z" />
    <glyph glyph-name="section" unicode="&#xa7;" horiz-adv-x="1065" 
d="M727 -73q-26 -18 -56 -29t-64 -11h-420q-34 0 -34 34v67q0 35 34 35h518q31 0 53 22t22 53v167q0 31 -22 53t-53 22h-364q-50 0 -93.5 19t-76 51.5t-51.5 76t-19 93.5v83q0 50 22 90.5t58 69.5l50 40q-56 29 -90.5 85t-34.5 125v42q0 50 22 91.5t58 68.5l140 105
q26 19 56.5 29.5t63.5 10.5h416q34 0 34 -34v-67q0 -34 -34 -34h-513q-32 0 -53.5 -22t-21.5 -53v-167q0 -31 21.5 -53t53.5 -22h363q49 0 93 -19t76.5 -51.5t51.5 -76.5t19 -93v-83q0 -50 -21.5 -91t-58.5 -69l-52 -39q57 -29 92 -85.5t35 -125.5v-42q0 -50 -21.5 -91.5
t-58.5 -68.5zM785 758q0 31 -22 53t-53 22h-366q-32 0 -53.5 -22t-21.5 -53v-208q0 -31 21.5 -53t53.5 -22h366q31 0 53 22t22 53v208z" />
    <glyph glyph-name="dieresis" unicode="&#xa8;" horiz-adv-x="1170" 
d="M345 1276q-14 0 -24 10t-10 24v131q0 14 10 24t24 10h102q14 0 24 -10t10 -24v-131q0 -14 -10 -24t-24 -10h-102zM723 1276q-14 0 -24 10t-10 24v131q0 14 10 24t24 10h102q14 0 24 -10t10 -24v-131q0 -14 -10 -24t-24 -10h-102z" />
    <glyph glyph-name="copyright" unicode="&#xa9;" horiz-adv-x="2035" 
d="M1022 -270q-133 0 -251.5 31t-218.5 87.5t-180 137.5t-135.5 181t-85.5 217t-30 246q0 130 30 247.5t85.5 217.5t135.5 180.5t180 137t218.5 87t251.5 30.5q132 0 250.5 -30.5t218.5 -87t180 -137t135.5 -180.5t85.5 -217.5t30 -247.5q0 -129 -30 -246t-85.5 -217
t-135.5 -181t-180 -137.5t-218.5 -87.5t-250.5 -31zM1022 -134q169 0 307 55.5t236 156.5t151 241.5t53 310.5q0 166 -52 306.5t-148.5 243t-235 160t-311.5 57.5q-171 0 -309 -56t-235 -157.5t-149.5 -242.5t-52.5 -311q0 -167 51 -307t147 -241.5t234.5 -158.5t313.5 -57z
M1321 203q-23 -23 -52 -35t-61 -12h-322q-62 0 -117 23.5t-95.5 64t-64 95.5t-23.5 117v306q0 64 27.5 119.5t78.5 93.5l90 68q38 29 83.5 44t95.5 15h369q14 0 24 -10t10 -24v-67q0 -14 -10 -24t-24 -10h-413q-35 0 -64.5 -12.5t-52 -35t-35 -52.5t-12.5 -64v-348
q0 -35 12.5 -64.5t35 -52t52 -35t64.5 -12.5h443q14 0 19.5 -11t-5.5 -22z" />
    <glyph glyph-name="ordfeminine" unicode="&#xaa;" horiz-adv-x="761" 
d="M636 756q-41 0 -72 19.5t-45 49.5q-32 -35 -69 -53t-90 -18h-96q-42 0 -76.5 14.5t-59.5 39t-39 58t-14 72.5v6q0 42 20 77.5t53 60.5l56 42q23 17 51.5 26.5t58.5 9.5h168q10 0 17 7t7 18v46q0 40 -26 65.5t-65 25.5h-280q-8 0 -12.5 8.5t3.5 16.5l39 39q15 15 38 25
t43 10h201q40 0 75 -15.5t61.5 -41.5t41.5 -61.5t15 -74.5v-321q0 -24 14.5 -39t39.5 -15h20q9 0 15.5 -6.5t6.5 -14.5v-55q0 -8 -6.5 -14.5t-15.5 -6.5h-78zM506 1065h-206q-39 0 -64 -26.5t-25 -62.5v-34q0 -39 25 -64t64 -25h115q18 0 34.5 7.5t29 20t20 29t7.5 34.5v121
z" />
    <glyph glyph-name="guillemotleft" unicode="&#xab;" horiz-adv-x="862" 
d="M357 193q-10 -8 -18.5 -6.5t-15.5 9.5l-271 326q-16 17 0 36l271 324q18 20 34 5l77 -67q11 -9 12 -16.5t-7 -17.5l-213 -246l213 -247q18 -19 -3 -35zM728 193q-10 -8 -18.5 -6.5t-15.5 9.5l-271 326q-16 17 0 36l271 324q18 20 34 5l77 -67q11 -9 12 -16.5t-7 -17.5
l-213 -246l213 -247q18 -19 -3 -35z" />
    <glyph glyph-name="logicalnot" unicode="&#xac;" horiz-adv-x="1170" 
d="M913 278q-14 0 -24 10t-10 26v341h-714q-14 0 -24.5 10.5t-10.5 24.5v69q0 14 10.5 24.5t24.5 10.5h834q14 0 24 -10.5t10 -24.5v-447q0 -14 -10 -24t-24 -10h-86z" />
    <glyph glyph-name="registered" unicode="&#xae;" horiz-adv-x="806" 
d="M403 860q-71 0 -132 26t-105.5 71t-69.5 106.5t-25 132.5q0 72 25 133.5t69.5 106.5t105.5 70.5t132 25.5q72 0 133 -25.5t106 -70.5t70 -106.5t25 -133.5q0 -71 -25 -132.5t-70 -106.5t-106 -71t-133 -26zM403 932q56 0 103 20.5t80.5 56t52.5 83.5t19 104q0 57 -19 106
t-52.5 85t-80.5 56.5t-103 20.5q-55 0 -101.5 -20.5t-80.5 -56.5t-53 -85t-19 -106q0 -56 19 -104t53 -83.5t80.5 -56t101.5 -20.5zM485 1036q-11 0 -16 10l-61 101q-5 8 -16 8h-48v-107q0 -12 -11 -12h-62q-10 0 -10 12v304q0 12 10 12h200q35 0 58 -22.5t23 -58.5v-23
q0 -20 -8.5 -34.5t-25.5 -29.5l-30 -25l73 -120q5 -7 1.5 -11t-8.5 -4h-69zM463 1288q0 15 -15 15h-104v-89h104q15 0 15 15v59z" />
    <glyph glyph-name="macron" unicode="&#xaf;" horiz-adv-x="1170" 
d="M317 1227q-14 0 -24 10t-10 24v51q0 14 10 24.5t24 10.5h538q14 0 24.5 -10.5t10.5 -24.5v-51q0 -14 -10.5 -24t-24.5 -10h-538z" />
    <glyph glyph-name="degree" unicode="&#xb0;" horiz-adv-x="788" 
d="M698 1144q0 -65 -23 -120t-63.5 -95t-96.5 -62.5t-121 -22.5t-120.5 22.5t-96 62.5t-64 95t-23.5 120q0 64 23.5 119t64 94.5t96 62t120.5 22.5t121 -22.5t96.5 -62t63.5 -94.5t23 -119zM394 972q36 0 67 13t53.5 35.5t35 54t12.5 69.5q0 37 -13 68.5t-35.5 54.5t-53 36
t-66.5 13q-35 0 -65.5 -13t-53 -36t-35 -54.5t-12.5 -68.5q0 -38 12.5 -69.5t34.5 -54t52.5 -35.5t66.5 -13z" />
    <glyph glyph-name="plusminus" unicode="&#xb1;" horiz-adv-x="1170" 
d="M663 573v-332q0 -14 -10.5 -24t-24.5 -10h-85q-14 0 -24.5 10t-10.5 26v330h-349q-14 0 -24 10t-10 24v70q0 14 10 24t24 10h349v335q0 14 10.5 24t24.5 10h85q14 0 24.5 -10t10.5 -24v-335h350q14 0 24.5 -10t10.5 -24v-70q0 -14 -10.5 -24t-24.5 -10h-350zM169 0
q-14 0 -24 10.5t-10 24.5v69q0 14 10 24.5t24 10.5h834q14 0 24.5 -10.5t10.5 -24.5v-69q0 -14 -10.5 -24.5t-24.5 -10.5h-834z" />
    <glyph glyph-name="acute" unicode="&#xb4;" horiz-adv-x="970" 
d="M539 1230q-30 -30 -73 -30h-77q-19 0 -26.5 15.5t6.5 29.5l301 300q10 10 23.5 10t24.5 -10l44 -43q10 -10 10 -24.5t-10 -24.5z" />
    <glyph glyph-name="mu" unicode="&#xb5;" horiz-adv-x="1170" 
d="M891 0q-14 0 -23 10t-11 24l-3 25q-73 -16 -133.5 -28.5t-111.5 -21t-94.5 -13t-83.5 -4.5q-44 0 -74.5 11t-50.5 33l14 -442q1 -14 -9.5 -24t-24.5 -10h-99q-14 0 -24 10t-10 24v1452q0 14 10 24t24 10h99q14 0 24 -10t10 -24v-836q0 -33 21 -54t54 -21h416
q17 0 28.5 11.5t11.5 28.5v871q0 14 10 24t24 10h99q14 0 24 -10t10 -24v-1012q0 -14 -10 -24t-24 -10h-93z" />
    <glyph glyph-name="paragraph" unicode="&#xb6;" horiz-adv-x="1298" 
d="M941 -159q-14 0 -24 10t-10 24v1402h-195v-1402q0 -14 -10 -24t-24 -10h-100q-14 0 -24 10t-10 24v605h-178q-67 0 -125.5 24t-102 66.5t-68.5 101.5t-25 130v294q0 69 31 126.5t88 96.5l80 56q68 45 154 45h833q14 0 24 -10t10 -24v-75q0 -14 -10 -24t-24 -10h-156
v-1402q0 -14 -10 -24t-24 -10h-100z" />
    <glyph glyph-name="periodcentered" unicode="&#xb7;" horiz-adv-x="410" 
d="M147 445q-14 0 -24 10t-10 24v124q0 14 10 24t24 10h117q14 0 24 -10t10 -24v-124q0 -14 -10 -24t-24 -10h-117z" />
    <glyph glyph-name="cedilla" unicode="&#xb8;" horiz-adv-x="970" 
d="M559 -352q-16 -9 -33 -14.5t-36 -5.5h-141q-11 0 -18.5 8t-7.5 19v84q0 11 7.5 19t18.5 8h142q15 0 25 10t10 24v151q0 19 -12.5 34t-35.5 15h-2q-11 0 -11 13v47q0 11 11 11h17q34 0 63 -13t51 -34.5t34.5 -51t12.5 -62.5v-132q0 -32 -16 -61.5t-43 -46.5z" />
    <glyph glyph-name="ordmasculine" unicode="&#xba;" horiz-adv-x="805" 
d="M552 785q-38 -28 -87 -28h-184q-36 0 -67.5 13.5t-55 36.5t-37 53.5t-13.5 65.5v291q0 34 17.5 66.5t46.5 52.5l83 59q20 14 40.5 20.5t46.5 6.5h184q37 0 68.5 -13t54.5 -35.5t36 -53t13 -66.5v-290q0 -74 -63 -119zM553 1246q0 29 -18.5 47.5t-47.5 18.5h-169
q-27 0 -46.5 -19.5t-19.5 -46.5v-312q0 -29 18.5 -47.5t47.5 -18.5h169q27 0 46.5 19.5t19.5 46.5v312z" />
    <glyph glyph-name="guillemotright" unicode="&#xbb;" horiz-adv-x="862" 
d="M55 258q-21 16 -3 35l213 247l-213 246q-8 10 -7 17.5t12 16.5l77 67q16 15 34 -5l271 -324q16 -19 0 -36l-271 -326q-7 -8 -15.5 -9.5t-18.5 6.5zM426 258q-21 16 -3 35l213 247l-213 246q-8 10 -7 17.5t12 16.5l77 67q16 15 34 -5l271 -324q16 -19 0 -36l-271 -326
q-7 -8 -15.5 -9.5t-18.5 6.5z" />
    <glyph glyph-name="questiondown" unicode="&#xbf;" horiz-adv-x="780" 
d="M477 888q-14 0 -24 10t-10 24v122q0 14 10 24.5t24 10.5h109q14 0 24 -10.5t10 -24.5v-122q0 -14 -10 -24t-24 -10h-109zM686 -307q-44 -35 -101 -35h-253q-54 0 -98 17t-75.5 48.5t-48.5 75.5t-17 98v240q0 51 18 94.5t49.5 75.5t75 50t94.5 18h63q32 0 52.5 20.5
t20.5 51.5v178q0 16 10 25t25 9h79q15 0 24.5 -8.5t11.5 -25.5q2 -21 4 -46t3 -51t1.5 -51.5t0.5 -46.5q0 -42 -14.5 -77t-40 -61t-61 -40.5t-78.5 -14.5h-99q-31 0 -51.5 -20.5t-20.5 -51.5v-296q0 -34 20 -54.5t55 -20.5h407q9 0 15.5 -5t9 -12t0.5 -15t-9 -14z" />
    <glyph glyph-name="Agrave" unicode="&#xc0;" horiz-adv-x="1210" 
d="M609 1540q-43 0 -73 30l-223 223q-10 10 -10 24.5t10 24.5l44 43q11 10 24.5 10t23.5 -10l301 -300q14 -14 6.5 -29.5t-26.5 -15.5h-77zM1047 0q-16 0 -28.5 9t-17.5 26l-117 375h-567l-117 -375q-11 -35 -45 -35h-98q-16 0 -24 12t-3 26l426 1348q5 17 17.5 25.5
t28.5 8.5h208q16 0 28.5 -8.5t17.5 -25.5l424 -1348q5 -14 -3 -26t-24 -12h-106zM601 1329l-241 -775h481z" />
    <glyph glyph-name="Aacute" unicode="&#xc1;" horiz-adv-x="1210" 
d="M676 1570q-30 -30 -73 -30h-77q-19 0 -26.5 15.5t6.5 29.5l301 300q10 10 23.5 10t24.5 -10l44 -43q10 -10 10 -24.5t-10 -24.5zM1047 0q-16 0 -28.5 9t-17.5 26l-117 375h-567l-117 -375q-11 -35 -45 -35h-98q-16 0 -24 12t-3 26l426 1348q5 17 17.5 25.5t28.5 8.5h208
q16 0 28.5 -8.5t17.5 -25.5l424 -1348q5 -14 -3 -26t-24 -12h-106zM601 1329l-241 -775h481z" />
    <glyph glyph-name="Acircumflex" unicode="&#xc2;" horiz-adv-x="1210" 
d="M839 1548q-41 0 -73 29l-160 153l-160 -153q-17 -15 -33.5 -22t-38.5 -7h-73q-9 0 -16 4.5t-10 11t-2 14.5t8 15l301 284q11 11 24.5 11t23.5 -11l301 -284q14 -14 6.5 -29.5t-26.5 -15.5h-72zM1047 0q-16 0 -28.5 9t-17.5 26l-117 375h-567l-117 -375q-11 -35 -45 -35
h-98q-16 0 -24 12t-3 26l426 1348q5 17 17.5 25.5t28.5 8.5h208q16 0 28.5 -8.5t17.5 -25.5l424 -1348q5 -14 -3 -26t-24 -12h-106zM601 1329l-241 -775h481z" />
    <glyph glyph-name="Atilde" unicode="&#xc3;" horiz-adv-x="1210" 
d="M950 1710q15 -18 -1 -36q-92 -89 -215 -89q-42 0 -75.5 11.5t-64 26t-59.5 26t-62 11.5q-38 0 -68.5 -13t-53.5 -34q-14 -12 -25.5 -14.5t-22.5 11.5l-42 53q-7 8 -6.5 18t8.5 18q46 44 98.5 66t115.5 22q42 0 76 -11.5t64.5 -25.5t59.5 -25.5t62 -11.5q38 0 68 13t53 34
q14 11 25.5 14t22.5 -11zM1047 0q-16 0 -28.5 9t-17.5 26l-117 375h-567l-117 -375q-11 -35 -45 -35h-98q-16 0 -24 12t-3 26l426 1348q5 17 17.5 25.5t28.5 8.5h208q16 0 28.5 -8.5t17.5 -25.5l424 -1348q5 -14 -3 -26t-24 -12h-106zM601 1329l-241 -775h481z" />
    <glyph glyph-name="Adieresis" unicode="&#xc4;" horiz-adv-x="1210" 
d="M366 1616q-14 0 -24 10t-10 24v131q0 14 10 24t24 10h102q14 0 24 -10t10 -24v-131q0 -14 -10 -24t-24 -10h-102zM744 1616q-14 0 -24 10t-10 24v131q0 14 10 24t24 10h102q14 0 24 -10t10 -24v-131q0 -14 -10 -24t-24 -10h-102zM1047 0q-16 0 -28.5 9t-17.5 26l-117 375
h-567l-117 -375q-11 -35 -45 -35h-98q-16 0 -24 12t-3 26l426 1348q5 17 17.5 25.5t28.5 8.5h208q16 0 28.5 -8.5t17.5 -25.5l424 -1348q5 -14 -3 -26t-24 -12h-106zM601 1329l-241 -775h481z" />
    <glyph glyph-name="Aring" unicode="&#xc5;" horiz-adv-x="1210" 
d="M809 1700q0 -43 -15.5 -79.5t-42.5 -63t-64 -41.5t-81 -15q-43 0 -80 15t-64.5 41.5t-43 63t-15.5 79.5q0 42 15.5 78.5t43 62.5t64.5 41t80 15q44 0 81 -15t64 -41t42.5 -62.5t15.5 -78.5zM606 1604q41 0 68 27t27 69t-27 68.5t-68 26.5q-39 0 -65.5 -26.5t-26.5 -68.5
t25.5 -69t66.5 -27zM1047 0q-16 0 -28.5 9t-17.5 26l-117 375h-567l-117 -375q-11 -35 -45 -35h-98q-16 0 -24 12t-3 26l426 1348q5 17 17.5 25.5t28.5 8.5h208q16 0 28.5 -8.5t17.5 -25.5l424 -1348q5 -14 -3 -26t-24 -12h-106zM601 1329l-241 -775h481z" />
    <glyph glyph-name="AE" unicode="&#xc6;" horiz-adv-x="1865" 
d="M1660 36q-45 -36 -106 -36h-527q-51 0 -81 25.5t-36 77.5l-35 307h-569l-188 -376q-17 -34 -50 -34h-107q-15 0 -21 11.5t1 25.5l660 1300q21 42 52.5 62.5t78.5 20.5h967q14 0 24 -10t10 -24v-75q0 -14 -10 -24t-24 -10h-758l58 -470h665q14 0 24 -10t10 -24v-75
q0 -14 -10 -24t-24 -10h-648l60 -483q6 -38 42 -38h626q14 0 18 -12t-7 -21zM768 1339l-393 -786h484z" />
    <glyph glyph-name="Ccedilla" unicode="&#xc7;" horiz-adv-x="1258" 
d="M712 -352q-16 -9 -33 -14.5t-36 -5.5h-141q-11 0 -18.5 8t-7.5 19v84q0 11 7.5 19t18.5 8h142q15 0 25 10t10 24v151q0 19 -12.5 34t-35.5 15h-176q-61 0 -115 23t-94 63t-63 94t-23 115v760q0 61 27.5 110t74.5 84l164 123q31 23 68 35.5t78 12.5h551q14 0 24 -10
t10 -24v-75q0 -14 -10 -24t-24 -10h-634q-31 0 -57.5 -11t-46 -30.5t-30.5 -46t-11 -57.5v-844q0 -31 11 -57.5t30.5 -46t46 -30.5t57.5 -11h683q14 0 18 -11t-7 -19l-93 -71q-25 -19 -53.5 -30.5t-61.5 -11.5h-195q27 -41 27 -90v-132q0 -32 -16 -61.5t-43 -46.5z" />
    <glyph glyph-name="Egrave" unicode="&#xc8;" horiz-adv-x="1292" 
d="M744 1540q-43 0 -73 30l-223 223q-10 10 -10 24.5t10 24.5l44 43q11 10 24.5 10t23.5 -10l301 -300q14 -14 6.5 -29.5t-26.5 -15.5h-77zM1090 42q-25 -19 -53.5 -30.5t-61.5 -11.5h-520q-61 0 -115 23t-94 63t-63 94t-23 115v760q0 61 27.5 110t74.5 84l164 123
q31 23 68 35.5t78 12.5h563q14 0 24 -10t10 -24v-75q0 -14 -10 -24t-24 -10h-646q-31 0 -57.5 -11t-46 -30.5t-30.5 -46t-11 -57.5v-325h770q14 0 24 -10t10 -24v-75q0 -14 -10 -24t-24 -10h-770v-376q0 -31 11 -57.5t30.5 -46t46 -30.5t57.5 -11h683q14 0 18 -11t-7 -19z
" />
    <glyph glyph-name="Eacute" unicode="&#xc9;" horiz-adv-x="1292" 
d="M811 1570q-30 -30 -73 -30h-77q-19 0 -26.5 15.5t6.5 29.5l301 300q10 10 23.5 10t24.5 -10l44 -43q10 -10 10 -24.5t-10 -24.5zM1090 42q-25 -19 -53.5 -30.5t-61.5 -11.5h-520q-61 0 -115 23t-94 63t-63 94t-23 115v760q0 61 27.5 110t74.5 84l164 123q31 23 68 35.5
t78 12.5h563q14 0 24 -10t10 -24v-75q0 -14 -10 -24t-24 -10h-646q-31 0 -57.5 -11t-46 -30.5t-30.5 -46t-11 -57.5v-325h770q14 0 24 -10t10 -24v-75q0 -14 -10 -24t-24 -10h-770v-376q0 -31 11 -57.5t30.5 -46t46 -30.5t57.5 -11h683q14 0 18 -11t-7 -19z" />
    <glyph glyph-name="Ecircumflex" unicode="&#xca;" horiz-adv-x="1292" 
d="M974 1548q-41 0 -73 29l-160 153l-160 -153q-17 -15 -33.5 -22t-38.5 -7h-73q-9 0 -16 4.5t-10 11t-2 14.5t8 15l301 284q11 11 24.5 11t23.5 -11l301 -284q14 -14 6.5 -29.5t-26.5 -15.5h-72zM1090 42q-25 -19 -53.5 -30.5t-61.5 -11.5h-520q-61 0 -115 23t-94 63
t-63 94t-23 115v760q0 61 27.5 110t74.5 84l164 123q31 23 68 35.5t78 12.5h563q14 0 24 -10t10 -24v-75q0 -14 -10 -24t-24 -10h-646q-31 0 -57.5 -11t-46 -30.5t-30.5 -46t-11 -57.5v-325h770q14 0 24 -10t10 -24v-75q0 -14 -10 -24t-24 -10h-770v-376q0 -31 11 -57.5
t30.5 -46t46 -30.5t57.5 -11h683q14 0 18 -11t-7 -19z" />
    <glyph glyph-name="Edieresis" unicode="&#xcb;" horiz-adv-x="1292" 
d="M501 1616q-14 0 -24 10t-10 24v131q0 14 10 24t24 10h102q14 0 24 -10t10 -24v-131q0 -14 -10 -24t-24 -10h-102zM879 1616q-14 0 -24 10t-10 24v131q0 14 10 24t24 10h102q14 0 24 -10t10 -24v-131q0 -14 -10 -24t-24 -10h-102zM1090 42q-25 -19 -53.5 -30.5
t-61.5 -11.5h-520q-61 0 -115 23t-94 63t-63 94t-23 115v760q0 61 27.5 110t74.5 84l164 123q31 23 68 35.5t78 12.5h563q14 0 24 -10t10 -24v-75q0 -14 -10 -24t-24 -10h-646q-31 0 -57.5 -11t-46 -30.5t-30.5 -46t-11 -57.5v-325h770q14 0 24 -10t10 -24v-75
q0 -14 -10 -24t-24 -10h-770v-376q0 -31 11 -57.5t30.5 -46t46 -30.5t57.5 -11h683q14 0 18 -11t-7 -19z" />
    <glyph glyph-name="Igrave" unicode="&#xcc;" horiz-adv-x="561" 
d="M284 1540q-43 0 -73 30l-223 223q-10 10 -10 24.5t10 24.5l44 43q11 10 24.5 10t23.5 -10l301 -300q14 -14 6.5 -29.5t-26.5 -15.5h-77zM224 0q-14 0 -24 10t-10 24v1352q0 14 10 24t24 10h113q14 0 24 -10t10 -24v-1352q0 -14 -10 -24t-24 -10h-113z" />
    <glyph glyph-name="Iacute" unicode="&#xcd;" horiz-adv-x="561" 
d="M351 1570q-30 -30 -73 -30h-77q-19 0 -26.5 15.5t6.5 29.5l301 300q10 10 23.5 10t24.5 -10l44 -43q10 -10 10 -24.5t-10 -24.5zM224 0q-14 0 -24 10t-10 24v1352q0 14 10 24t24 10h113q14 0 24 -10t10 -24v-1352q0 -14 -10 -24t-24 -10h-113z" />
    <glyph glyph-name="Icircumflex" unicode="&#xce;" horiz-adv-x="561" 
d="M514 1548q-41 0 -73 29l-160 153l-160 -153q-17 -15 -33.5 -22t-38.5 -7h-73q-9 0 -16 4.5t-10 11t-2 14.5t8 15l301 284q11 11 24.5 11t23.5 -11l301 -284q14 -14 6.5 -29.5t-26.5 -15.5h-72zM224 0q-14 0 -24 10t-10 24v1352q0 14 10 24t24 10h113q14 0 24 -10t10 -24
v-1352q0 -14 -10 -24t-24 -10h-113z" />
    <glyph glyph-name="Idieresis" unicode="&#xcf;" horiz-adv-x="561" 
d="M41 1616q-14 0 -24 10t-10 24v131q0 14 10 24t24 10h102q14 0 24 -10t10 -24v-131q0 -14 -10 -24t-24 -10h-102zM419 1616q-14 0 -24 10t-10 24v131q0 14 10 24t24 10h102q14 0 24 -10t10 -24v-131q0 -14 -10 -24t-24 -10h-102zM224 0q-14 0 -24 10t-10 24v1352
q0 14 10 24t24 10h113q14 0 24 -10t10 -24v-1352q0 -14 -10 -24t-24 -10h-113z" />
    <glyph glyph-name="Ntilde" unicode="&#xd1;" horiz-adv-x="1441" 
d="M1069 1710q15 -18 -1 -36q-92 -89 -215 -89q-42 0 -75.5 11.5t-64 26t-59.5 26t-62 11.5q-38 0 -68.5 -13t-53.5 -34q-14 -12 -25.5 -14.5t-22.5 11.5l-42 53q-7 8 -6.5 18t8.5 18q46 44 98.5 66t115.5 22q42 0 76 -11.5t64.5 -25.5t59.5 -25.5t62 -11.5q38 0 68 13
t53 34q14 11 25.5 14t22.5 -11zM992 0q-20 0 -35 10t-22 27l-589 1277v-1280q0 -14 -10 -24t-24 -10h-88q-14 0 -24 10t-10 24v1352q0 14 10 24t24 10h224q20 0 35 -10t22 -27l589 -1276v1279q0 14 10 24t24 10h89q14 0 24 -10t10 -24v-1352q0 -14 -10 -24t-24 -10h-225z
" />
    <glyph glyph-name="Ograve" unicode="&#xd2;" horiz-adv-x="1446" 
d="M726 1540q-43 0 -73 30l-223 223q-10 10 -10 24.5t10 24.5l44 43q11 10 24.5 10t23.5 -10l301 -300q14 -14 6.5 -29.5t-26.5 -15.5h-77zM1020 48q-31 -23 -68 -35.5t-78 -12.5h-419q-61 0 -115 23t-94 63t-63 94t-23 115v760q0 61 27.5 110t74.5 84l164 123
q31 23 68 35.5t78 12.5h419q61 0 115 -23t94 -63t63 -94t23 -115v-760q0 -61 -27.5 -110t-74.5 -84zM1102 1132q0 31 -11 57.5t-30.5 46t-46 30.5t-57.5 11h-468q-31 0 -57.5 -11t-46 -30.5t-30.5 -46t-11 -57.5v-844q0 -31 11 -57.5t30.5 -46t46 -30.5t57.5 -11h468
q31 0 57.5 11t46 30.5t30.5 46t11 57.5v844z" />
    <glyph glyph-name="Oacute" unicode="&#xd3;" horiz-adv-x="1446" 
d="M793 1570q-30 -30 -73 -30h-77q-19 0 -26.5 15.5t6.5 29.5l301 300q10 10 23.5 10t24.5 -10l44 -43q10 -10 10 -24.5t-10 -24.5zM1020 48q-31 -23 -68 -35.5t-78 -12.5h-419q-61 0 -115 23t-94 63t-63 94t-23 115v760q0 61 27.5 110t74.5 84l164 123q31 23 68 35.5
t78 12.5h419q61 0 115 -23t94 -63t63 -94t23 -115v-760q0 -61 -27.5 -110t-74.5 -84zM1102 1132q0 31 -11 57.5t-30.5 46t-46 30.5t-57.5 11h-468q-31 0 -57.5 -11t-46 -30.5t-30.5 -46t-11 -57.5v-844q0 -31 11 -57.5t30.5 -46t46 -30.5t57.5 -11h468q31 0 57.5 11t46 30.5
t30.5 46t11 57.5v844z" />
    <glyph glyph-name="Ocircumflex" unicode="&#xd4;" horiz-adv-x="1446" 
d="M956 1548q-41 0 -73 29l-160 153l-160 -153q-17 -15 -33.5 -22t-38.5 -7h-73q-9 0 -16 4.5t-10 11t-2 14.5t8 15l301 284q11 11 24.5 11t23.5 -11l301 -284q14 -14 6.5 -29.5t-26.5 -15.5h-72zM1020 48q-31 -23 -68 -35.5t-78 -12.5h-419q-61 0 -115 23t-94 63t-63 94
t-23 115v760q0 61 27.5 110t74.5 84l164 123q31 23 68 35.5t78 12.5h419q61 0 115 -23t94 -63t63 -94t23 -115v-760q0 -61 -27.5 -110t-74.5 -84zM1102 1132q0 31 -11 57.5t-30.5 46t-46 30.5t-57.5 11h-468q-31 0 -57.5 -11t-46 -30.5t-30.5 -46t-11 -57.5v-844
q0 -31 11 -57.5t30.5 -46t46 -30.5t57.5 -11h468q31 0 57.5 11t46 30.5t30.5 46t11 57.5v844z" />
    <glyph glyph-name="Otilde" unicode="&#xd5;" horiz-adv-x="1446" 
d="M1067 1710q15 -18 -1 -36q-92 -89 -215 -89q-42 0 -75.5 11.5t-64 26t-59.5 26t-62 11.5q-38 0 -68.5 -13t-53.5 -34q-14 -12 -25.5 -14.5t-22.5 11.5l-42 53q-7 8 -6.5 18t8.5 18q46 44 98.5 66t115.5 22q42 0 76 -11.5t64.5 -25.5t59.5 -25.5t62 -11.5q38 0 68 13
t53 34q14 11 25.5 14t22.5 -11zM1020 48q-31 -23 -68 -35.5t-78 -12.5h-419q-61 0 -115 23t-94 63t-63 94t-23 115v760q0 61 27.5 110t74.5 84l164 123q31 23 68 35.5t78 12.5h419q61 0 115 -23t94 -63t63 -94t23 -115v-760q0 -61 -27.5 -110t-74.5 -84zM1102 1132
q0 31 -11 57.5t-30.5 46t-46 30.5t-57.5 11h-468q-31 0 -57.5 -11t-46 -30.5t-30.5 -46t-11 -57.5v-844q0 -31 11 -57.5t30.5 -46t46 -30.5t57.5 -11h468q31 0 57.5 11t46 30.5t30.5 46t11 57.5v844z" />
    <glyph glyph-name="Odieresis" unicode="&#xd6;" horiz-adv-x="1446" 
d="M483 1616q-14 0 -24 10t-10 24v131q0 14 10 24t24 10h102q14 0 24 -10t10 -24v-131q0 -14 -10 -24t-24 -10h-102zM861 1616q-14 0 -24 10t-10 24v131q0 14 10 24t24 10h102q14 0 24 -10t10 -24v-131q0 -14 -10 -24t-24 -10h-102zM1020 48q-31 -23 -68 -35.5t-78 -12.5
h-419q-61 0 -115 23t-94 63t-63 94t-23 115v760q0 61 27.5 110t74.5 84l164 123q31 23 68 35.5t78 12.5h419q61 0 115 -23t94 -63t63 -94t23 -115v-760q0 -61 -27.5 -110t-74.5 -84zM1102 1132q0 31 -11 57.5t-30.5 46t-46 30.5t-57.5 11h-468q-31 0 -57.5 -11t-46 -30.5
t-30.5 -46t-11 -57.5v-844q0 -31 11 -57.5t30.5 -46t46 -30.5t57.5 -11h468q31 0 57.5 11t46 30.5t30.5 46t11 57.5v844z" />
    <glyph glyph-name="Oslash" unicode="&#xd8;" horiz-adv-x="1446" 
d="M1020 49q-29 -22 -67 -35.5t-79 -13.5h-421q-60 0 -114 23l-66 -99q-16 -24 -46 -24h-84q-13 0 -18.5 8.5t2.5 19.5l111 167q-36 39 -56.5 90t-20.5 108v761q0 60 25 110t70 84l169 125q62 47 144 47h424q59 0 113 -23l67 100q16 23 45 23h85q13 0 18.5 -8.5t-2.5 -19.5
l-111 -165q36 -39 57 -90t21 -109v-758q0 -61 -26 -110.5t-71 -83.5zM1018 1265q-14 6 -29 9.5t-32 3.5h-468q-31 0 -57.5 -11t-46 -30.5t-30.5 -46t-11 -57.5v-845q0 -16 3 -29zM1102 1133q0 16 -3 31l-672 -1008q31 -13 62 -13h468q31 0 57.5 11t46 30.5t30.5 46t11 57.5
v845z" />
    <glyph glyph-name="Ugrave" unicode="&#xd9;" horiz-adv-x="1468" 
d="M735 1540q-43 0 -73 30l-223 223q-10 10 -10 24.5t10 24.5l44 43q11 10 24.5 10t23.5 -10l301 -300q14 -14 6.5 -29.5t-26.5 -15.5h-77zM1128 0q-14 0 -24 10t-10 24v35q-148 -23 -250 -37.5t-172.5 -23.5t-118 -12.5t-85.5 -3.5q-61 0 -114.5 23t-93.5 63t-63.5 94
t-23.5 116v1098q0 14 10 24t24 10h116q14 0 24 -10t10 -24v-1097q0 -31 11 -57.5t30.5 -46t46 -30.5t57.5 -11h549q18 0 30.5 12.5t12.5 30.5v1199q0 14 10 24t24 10h116q14 0 24 -10t10 -24v-1352q0 -14 -10 -24t-24 -10h-116z" />
    <glyph glyph-name="Uacute" unicode="&#xda;" horiz-adv-x="1468" 
d="M802 1570q-30 -30 -73 -30h-77q-19 0 -26.5 15.5t6.5 29.5l301 300q10 10 23.5 10t24.5 -10l44 -43q10 -10 10 -24.5t-10 -24.5zM1128 0q-14 0 -24 10t-10 24v35q-148 -23 -250 -37.5t-172.5 -23.5t-118 -12.5t-85.5 -3.5q-61 0 -114.5 23t-93.5 63t-63.5 94t-23.5 116
v1098q0 14 10 24t24 10h116q14 0 24 -10t10 -24v-1097q0 -31 11 -57.5t30.5 -46t46 -30.5t57.5 -11h549q18 0 30.5 12.5t12.5 30.5v1199q0 14 10 24t24 10h116q14 0 24 -10t10 -24v-1352q0 -14 -10 -24t-24 -10h-116z" />
    <glyph glyph-name="Ucircumflex" unicode="&#xdb;" horiz-adv-x="1468" 
d="M965 1548q-41 0 -73 29l-160 153l-160 -153q-17 -15 -33.5 -22t-38.5 -7h-73q-9 0 -16 4.5t-10 11t-2 14.5t8 15l301 284q11 11 24.5 11t23.5 -11l301 -284q14 -14 6.5 -29.5t-26.5 -15.5h-72zM1128 0q-14 0 -24 10t-10 24v35q-148 -23 -250 -37.5t-172.5 -23.5
t-118 -12.5t-85.5 -3.5q-61 0 -114.5 23t-93.5 63t-63.5 94t-23.5 116v1098q0 14 10 24t24 10h116q14 0 24 -10t10 -24v-1097q0 -31 11 -57.5t30.5 -46t46 -30.5t57.5 -11h549q18 0 30.5 12.5t12.5 30.5v1199q0 14 10 24t24 10h116q14 0 24 -10t10 -24v-1352q0 -14 -10 -24
t-24 -10h-116z" />
    <glyph glyph-name="Udieresis" unicode="&#xdc;" horiz-adv-x="1468" 
d="M492 1616q-14 0 -24 10t-10 24v131q0 14 10 24t24 10h102q14 0 24 -10t10 -24v-131q0 -14 -10 -24t-24 -10h-102zM870 1616q-14 0 -24 10t-10 24v131q0 14 10 24t24 10h102q14 0 24 -10t10 -24v-131q0 -14 -10 -24t-24 -10h-102zM1128 0q-14 0 -24 10t-10 24v35
q-148 -23 -250 -37.5t-172.5 -23.5t-118 -12.5t-85.5 -3.5q-61 0 -114.5 23t-93.5 63t-63.5 94t-23.5 116v1098q0 14 10 24t24 10h116q14 0 24 -10t10 -24v-1097q0 -31 11 -57.5t30.5 -46t46 -30.5t57.5 -11h549q18 0 30.5 12.5t12.5 30.5v1199q0 14 10 24t24 10h116
q14 0 24 -10t10 -24v-1352q0 -14 -10 -24t-24 -10h-116z" />
    <glyph glyph-name="germandbls" unicode="&#xdf;" horiz-adv-x="1356" 
d="M1035 48q-29 -22 -64 -35t-77 -13h-344q-14 0 -24 10t-10 24v67q0 14 10 24t24 10h456q31 0 53 22t22 53v206q0 33 -21 54t-54 21h-233q-50 0 -94 18.5t-76.5 51t-51 76.5t-18.5 94v72q0 51 18.5 95.5t51.5 77t77.5 51.5t95.5 19h136q38 0 61.5 24t23.5 62v178
q0 33 -21 54t-54 21h-527q-31 0 -53 -22t-22 -53v-1276q0 -14 -10 -24t-24 -10h-99q-14 0 -24 10t-10 24v1180q0 50 21 90.5t57 68.5l135 100q29 22 64 34.5t77 12.5h410q50 0 94 -18.5t76.5 -51t51 -76.5t18.5 -94v-122q0 -50 -18.5 -94t-51 -76.5t-76.5 -51t-94 -18.5
h-142q-35 0 -55 -21t-20 -54v-142q0 -33 21 -54t54 -21h233q50 0 94 -18.5t76.5 -51t51 -76.5t18.5 -94v-80q0 -49 -21 -90t-57 -68z" />
    <glyph glyph-name="agrave" unicode="&#xe0;" horiz-adv-x="1163" 
d="M621 1200q-43 0 -73 30l-223 223q-10 10 -10 24.5t10 24.5l44 43q11 10 24.5 10t23.5 -10l301 -300q14 -14 6.5 -29.5t-26.5 -15.5h-77zM878 0q-14 0 -24 10t-10 24v25q-98 -19 -168.5 -32t-123.5 -20.5t-93.5 -11t-77.5 -3.5q-50 0 -94 18.5t-76.5 51t-51 76.5t-18.5 95
v541q0 50 21 90.5t58 68.5l134 100q29 22 64 34.5t77 12.5h482q14 0 24 -10t10 -24v-1012q0 -14 -10 -24t-24 -10h-99zM844 945h-461q-31 0 -53 -22t-22 -53v-660q0 -33 21 -54t54 -21h421q17 0 28.5 11.5t11.5 28.5v770z" />
    <glyph glyph-name="aacute" unicode="&#xe1;" horiz-adv-x="1163" 
d="M688 1230q-30 -30 -73 -30h-77q-19 0 -26.5 15.5t6.5 29.5l301 300q10 10 23.5 10t24.5 -10l44 -43q10 -10 10 -24.5t-10 -24.5zM878 0q-14 0 -24 10t-10 24v25q-98 -19 -168.5 -32t-123.5 -20.5t-93.5 -11t-77.5 -3.5q-50 0 -94 18.5t-76.5 51t-51 76.5t-18.5 95v541
q0 50 21 90.5t58 68.5l134 100q29 22 64 34.5t77 12.5h482q14 0 24 -10t10 -24v-1012q0 -14 -10 -24t-24 -10h-99zM844 945h-461q-31 0 -53 -22t-22 -53v-660q0 -33 21 -54t54 -21h421q17 0 28.5 11.5t11.5 28.5v770z" />
    <glyph glyph-name="acircumflex" unicode="&#xe2;" horiz-adv-x="1163" 
d="M851 1208q-41 0 -73 29l-160 153l-160 -153q-17 -15 -33.5 -22t-38.5 -7h-73q-9 0 -16 4.5t-10 11t-2 14.5t8 15l301 284q11 11 24.5 11t23.5 -11l301 -284q14 -14 6.5 -29.5t-26.5 -15.5h-72zM878 0q-14 0 -24 10t-10 24v25q-98 -19 -168.5 -32t-123.5 -20.5t-93.5 -11
t-77.5 -3.5q-50 0 -94 18.5t-76.5 51t-51 76.5t-18.5 95v541q0 50 21 90.5t58 68.5l134 100q29 22 64 34.5t77 12.5h482q14 0 24 -10t10 -24v-1012q0 -14 -10 -24t-24 -10h-99zM844 945h-461q-31 0 -53 -22t-22 -53v-660q0 -33 21 -54t54 -21h421q17 0 28.5 11.5t11.5 28.5
v770z" />
    <glyph glyph-name="atilde" unicode="&#xe3;" horiz-adv-x="1163" 
d="M962 1370q15 -18 -1 -36q-92 -89 -215 -89q-42 0 -75.5 11.5t-64 26t-59.5 26t-62 11.5q-38 0 -68.5 -13t-53.5 -34q-14 -12 -25.5 -14.5t-22.5 11.5l-42 53q-7 8 -6.5 18t8.5 18q46 44 98.5 66t115.5 22q42 0 76 -11.5t64.5 -25.5t59.5 -25.5t62 -11.5q38 0 68 13t53 34
q14 11 25.5 14t22.5 -11zM878 0q-14 0 -24 10t-10 24v25q-98 -19 -168.5 -32t-123.5 -20.5t-93.5 -11t-77.5 -3.5q-50 0 -94 18.5t-76.5 51t-51 76.5t-18.5 95v541q0 50 21 90.5t58 68.5l134 100q29 22 64 34.5t77 12.5h482q14 0 24 -10t10 -24v-1012q0 -14 -10 -24t-24 -10
h-99zM844 945h-461q-31 0 -53 -22t-22 -53v-660q0 -33 21 -54t54 -21h421q17 0 28.5 11.5t11.5 28.5v770z" />
    <glyph glyph-name="adieresis" unicode="&#xe4;" horiz-adv-x="1163" 
d="M378 1276q-14 0 -24 10t-10 24v131q0 14 10 24t24 10h102q14 0 24 -10t10 -24v-131q0 -14 -10 -24t-24 -10h-102zM756 1276q-14 0 -24 10t-10 24v131q0 14 10 24t24 10h102q14 0 24 -10t10 -24v-131q0 -14 -10 -24t-24 -10h-102zM878 0q-14 0 -24 10t-10 24v25
q-98 -19 -168.5 -32t-123.5 -20.5t-93.5 -11t-77.5 -3.5q-50 0 -94 18.5t-76.5 51t-51 76.5t-18.5 95v541q0 50 21 90.5t58 68.5l134 100q29 22 64 34.5t77 12.5h482q14 0 24 -10t10 -24v-1012q0 -14 -10 -24t-24 -10h-99zM844 945h-461q-31 0 -53 -22t-22 -53v-660
q0 -33 21 -54t54 -21h421q17 0 28.5 11.5t11.5 28.5v770z" />
    <glyph glyph-name="aring" unicode="&#xe5;" horiz-adv-x="1163" 
d="M821 1360q0 -43 -15.5 -79.5t-42.5 -63t-64 -41.5t-81 -15q-43 0 -80 15t-64.5 41.5t-43 63t-15.5 79.5q0 42 15.5 78.5t43 62.5t64.5 41t80 15q44 0 81 -15t64 -41t42.5 -62.5t15.5 -78.5zM618 1264q41 0 68 27t27 69t-27 68.5t-68 26.5q-39 0 -65.5 -26.5t-26.5 -68.5
t25.5 -69t66.5 -27zM878 0q-14 0 -24 10t-10 24v25q-98 -19 -168.5 -32t-123.5 -20.5t-93.5 -11t-77.5 -3.5q-50 0 -94 18.5t-76.5 51t-51 76.5t-18.5 95v541q0 50 21 90.5t58 68.5l134 100q29 22 64 34.5t77 12.5h482q14 0 24 -10t10 -24v-1012q0 -14 -10 -24t-24 -10h-99z
M844 945h-461q-31 0 -53 -22t-22 -53v-660q0 -33 21 -54t54 -21h421q17 0 28.5 11.5t11.5 28.5v770z" />
    <glyph glyph-name="ae" unicode="&#xe6;" horiz-adv-x="1792" 
d="M1576 42q-25 -19 -55.5 -30.5t-67.5 -11.5h-405q-65 0 -117.5 29t-84.5 80l-83 -61q-29 -22 -64.5 -35t-77.5 -13h-274q-50 0 -94 18.5t-76.5 51t-51 76.5t-18.5 94v83q0 49 21 90t57 68l135 100q29 22 64 35t77 13h308q18 0 28.5 10t10.5 29v202q0 33 -21 54t-54 21
h-550q-6 0 -10.5 3.5t-6.5 8.5t-0.5 10.5t6.5 9.5l90 69q43 34 100 34h373q63 0 115.5 -29t84.5 -78l80 60q29 22 64 34.5t77 12.5h280q50 0 94 -18.5t76.5 -51t51 -76.5t18.5 -94v-106q0 -50 -18.5 -94t-51 -76.5t-76 -51t-94.5 -18.5h-461v-284q0 -33 21 -54t54 -21h595
q14 0 18 -12t-7 -20zM1509 870q0 33 -21 54t-54 21h-384q-31 0 -53 -22t-22 -53v-241h459q33 0 54 21t21 54v166zM808 494h-459q-31 0 -53 -22t-22 -53v-209q0 -33 21 -54t54 -21h384q31 0 53 22t22 53v284z" />
    <glyph glyph-name="ccedilla" unicode="&#xe7;" horiz-adv-x="1020" 
d="M592 -352q-16 -9 -33 -14.5t-36 -5.5h-141q-11 0 -18.5 8t-7.5 19v84q0 11 7.5 19t18.5 8h142q15 0 25 10t10 24v151q0 19 -12.5 34t-35.5 15h-130q-50 0 -94 18.5t-76.5 51t-51 76.5t-18.5 94v534q0 50 21 90.5t58 68.5l134 100q29 22 64 34.5t77 12.5h411q14 0 24 -10
t10 -24v-67q0 -14 -10 -24t-24 -10h-523q-31 0 -53 -22t-22 -53v-660q0 -33 21 -54t54 -21h555q13 0 17 -12t-6 -20l-81 -61q-25 -19 -55.5 -30.5t-67.5 -11.5h-85q27 -41 27 -90v-132q0 -32 -16 -61.5t-43 -46.5z" />
    <glyph glyph-name="egrave" unicode="&#xe8;" horiz-adv-x="1132" 
d="M601 1200q-43 0 -73 30l-223 223q-10 10 -10 24.5t10 24.5l44 43q11 10 24.5 10t23.5 -10l301 -300q14 -14 6.5 -29.5t-26.5 -15.5h-77zM924 42q-25 -19 -55.5 -30.5t-67.5 -11.5h-420q-50 0 -94 18.5t-76.5 51t-51 76.5t-18.5 94v534q0 50 21 90.5t58 68.5l134 100
q29 22 64 34.5t77 12.5h281q50 0 94 -18.5t76.5 -51t51 -76.5t18.5 -94v-104q0 -51 -18.5 -94.5t-51 -76t-76.5 -51t-94 -18.5h-468v-286q0 -33 21 -54t54 -21h611q13 0 17 -12t-6 -20zM849 870q0 33 -21 54t-54 21h-391q-31 0 -53 -22t-22 -53v-239h466q34 0 54.5 20
t20.5 55v164z" />
    <glyph glyph-name="eacute" unicode="&#xe9;" horiz-adv-x="1132" 
d="M668 1230q-30 -30 -73 -30h-77q-19 0 -26.5 15.5t6.5 29.5l301 300q10 10 23.5 10t24.5 -10l44 -43q10 -10 10 -24.5t-10 -24.5zM924 42q-25 -19 -55.5 -30.5t-67.5 -11.5h-420q-50 0 -94 18.5t-76.5 51t-51 76.5t-18.5 94v534q0 50 21 90.5t58 68.5l134 100
q29 22 64 34.5t77 12.5h281q50 0 94 -18.5t76.5 -51t51 -76.5t18.5 -94v-104q0 -51 -18.5 -94.5t-51 -76t-76.5 -51t-94 -18.5h-468v-286q0 -33 21 -54t54 -21h611q13 0 17 -12t-6 -20zM849 870q0 33 -21 54t-54 21h-391q-31 0 -53 -22t-22 -53v-239h466q34 0 54.5 20
t20.5 55v164z" />
    <glyph glyph-name="ecircumflex" unicode="&#xea;" horiz-adv-x="1132" 
d="M831 1208q-41 0 -73 29l-160 153l-160 -153q-17 -15 -33.5 -22t-38.5 -7h-73q-9 0 -16 4.5t-10 11t-2 14.5t8 15l301 284q11 11 24.5 11t23.5 -11l301 -284q14 -14 6.5 -29.5t-26.5 -15.5h-72zM924 42q-25 -19 -55.5 -30.5t-67.5 -11.5h-420q-50 0 -94 18.5t-76.5 51
t-51 76.5t-18.5 94v534q0 50 21 90.5t58 68.5l134 100q29 22 64 34.5t77 12.5h281q50 0 94 -18.5t76.5 -51t51 -76.5t18.5 -94v-104q0 -51 -18.5 -94.5t-51 -76t-76.5 -51t-94 -18.5h-468v-286q0 -33 21 -54t54 -21h611q13 0 17 -12t-6 -20zM849 870q0 33 -21 54t-54 21
h-391q-31 0 -53 -22t-22 -53v-239h466q34 0 54.5 20t20.5 55v164z" />
    <glyph glyph-name="edieresis" unicode="&#xeb;" horiz-adv-x="1132" 
d="M358 1276q-14 0 -24 10t-10 24v131q0 14 10 24t24 10h102q14 0 24 -10t10 -24v-131q0 -14 -10 -24t-24 -10h-102zM736 1276q-14 0 -24 10t-10 24v131q0 14 10 24t24 10h102q14 0 24 -10t10 -24v-131q0 -14 -10 -24t-24 -10h-102zM924 42q-25 -19 -55.5 -30.5t-67.5 -11.5
h-420q-50 0 -94 18.5t-76.5 51t-51 76.5t-18.5 94v534q0 50 21 90.5t58 68.5l134 100q29 22 64 34.5t77 12.5h281q50 0 94 -18.5t76.5 -51t51 -76.5t18.5 -94v-104q0 -51 -18.5 -94.5t-51 -76t-76.5 -51t-94 -18.5h-468v-286q0 -33 21 -54t54 -21h611q13 0 17 -12t-6 -20z
M849 870q0 33 -21 54t-54 21h-391q-31 0 -53 -22t-22 -53v-239h466q34 0 54.5 20t20.5 55v164z" />
    <glyph glyph-name="igrave" unicode="&#xec;" horiz-adv-x="472" 
d="M239 1200q-43 0 -73 30l-223 223q-10 10 -10 24.5t10 24.5l44 43q11 10 24.5 10t23.5 -10l301 -300q14 -14 6.5 -29.5t-26.5 -15.5h-77zM187 0q-14 0 -24 10t-10 24v1012q0 14 10 24t24 10h99q14 0 24 -10t10 -24v-1012q0 -14 -10 -24t-24 -10h-99z" />
    <glyph glyph-name="iacute" unicode="&#xed;" horiz-adv-x="472" 
d="M306 1230q-30 -30 -73 -30h-77q-19 0 -26.5 15.5t6.5 29.5l301 300q10 10 23.5 10t24.5 -10l44 -43q10 -10 10 -24.5t-10 -24.5zM187 0q-14 0 -24 10t-10 24v1012q0 14 10 24t24 10h99q14 0 24 -10t10 -24v-1012q0 -14 -10 -24t-24 -10h-99z" />
    <glyph glyph-name="icircumflex" unicode="&#xee;" horiz-adv-x="472" 
d="M469 1208q-41 0 -73 29l-160 153l-160 -153q-17 -15 -33.5 -22t-38.5 -7h-73q-9 0 -16 4.5t-10 11t-2 14.5t8 15l301 284q11 11 24.5 11t23.5 -11l301 -284q14 -14 6.5 -29.5t-26.5 -15.5h-72zM187 0q-14 0 -24 10t-10 24v1012q0 14 10 24t24 10h99q14 0 24 -10t10 -24
v-1012q0 -14 -10 -24t-24 -10h-99z" />
    <glyph glyph-name="idieresis" unicode="&#xef;" horiz-adv-x="472" 
d="M-4 1276q-14 0 -24 10t-10 24v131q0 14 10 24t24 10h102q14 0 24 -10t10 -24v-131q0 -14 -10 -24t-24 -10h-102zM374 1276q-14 0 -24 10t-10 24v131q0 14 10 24t24 10h102q14 0 24 -10t10 -24v-131q0 -14 -10 -24t-24 -10h-102zM187 0q-14 0 -24 10t-10 24v1012
q0 14 10 24t24 10h99q14 0 24 -10t10 -24v-1012q0 -14 -10 -24t-24 -10h-99z" />
    <glyph glyph-name="ntilde" unicode="&#xf1;" horiz-adv-x="1164" 
d="M927 1370q15 -18 -1 -36q-92 -89 -215 -89q-42 0 -75.5 11.5t-64 26t-59.5 26t-62 11.5q-38 0 -68.5 -13t-53.5 -34q-14 -12 -25.5 -14.5t-22.5 11.5l-42 53q-7 8 -6.5 18t8.5 18q46 44 98.5 66t115.5 22q42 0 76 -11.5t64.5 -25.5t59.5 -25.5t62 -11.5q38 0 68 13t53 34
q14 11 25.5 14t22.5 -11zM890 0q-14 0 -24 10t-10 24v836q0 33 -21 54t-54 21h-421q-17 0 -28.5 -11.5t-11.5 -28.5v-871q0 -14 -10 -24t-24 -10h-99q-14 0 -24 10t-10 24v1012q0 14 10 24t24 10h99q14 0 24 -10t10 -24v-25q98 19 168.5 32t123.5 20.5t93 11t78 3.5
q50 0 94 -18.5t76.5 -51t51 -76.5t18.5 -95v-813q0 -14 -10 -24t-24 -10h-99z" />
    <glyph glyph-name="ograve" unicode="&#xf2;" horiz-adv-x="1152" 
d="M595 1200q-43 0 -73 30l-223 223q-10 10 -10 24.5t10 24.5l44 43q11 10 24.5 10t23.5 -10l301 -300q14 -14 6.5 -29.5t-26.5 -15.5h-77zM798 48q-29 -21 -64 -34.5t-77 -13.5h-276q-50 0 -94 18.5t-76.5 51t-51 76.5t-18.5 94v534q0 50 21 90.5t58 68.5l134 100
q29 22 64 34.5t77 12.5h276q50 0 94 -18.5t76.5 -51t51 -76.5t18.5 -94v-534q0 -49 -21 -90t-57 -68zM844 870q0 33 -21 54t-54 21h-386q-31 0 -53 -22t-22 -53v-660q0 -33 21 -54t54 -21h386q31 0 53 22t22 53v660z" />
    <glyph glyph-name="oacute" unicode="&#xf3;" horiz-adv-x="1152" 
d="M662 1230q-30 -30 -73 -30h-77q-19 0 -26.5 15.5t6.5 29.5l301 300q10 10 23.5 10t24.5 -10l44 -43q10 -10 10 -24.5t-10 -24.5zM798 48q-29 -21 -64 -34.5t-77 -13.5h-276q-50 0 -94 18.5t-76.5 51t-51 76.5t-18.5 94v534q0 50 21 90.5t58 68.5l134 100q29 22 64 34.5
t77 12.5h276q50 0 94 -18.5t76.5 -51t51 -76.5t18.5 -94v-534q0 -49 -21 -90t-57 -68zM844 870q0 33 -21 54t-54 21h-386q-31 0 -53 -22t-22 -53v-660q0 -33 21 -54t54 -21h386q31 0 53 22t22 53v660z" />
    <glyph glyph-name="ocircumflex" unicode="&#xf4;" horiz-adv-x="1152" 
d="M825 1208q-41 0 -73 29l-160 153l-160 -153q-17 -15 -33.5 -22t-38.5 -7h-73q-9 0 -16 4.5t-10 11t-2 14.5t8 15l301 284q11 11 24.5 11t23.5 -11l301 -284q14 -14 6.5 -29.5t-26.5 -15.5h-72zM798 48q-29 -21 -64 -34.5t-77 -13.5h-276q-50 0 -94 18.5t-76.5 51
t-51 76.5t-18.5 94v534q0 50 21 90.5t58 68.5l134 100q29 22 64 34.5t77 12.5h276q50 0 94 -18.5t76.5 -51t51 -76.5t18.5 -94v-534q0 -49 -21 -90t-57 -68zM844 870q0 33 -21 54t-54 21h-386q-31 0 -53 -22t-22 -53v-660q0 -33 21 -54t54 -21h386q31 0 53 22t22 53v660z
" />
    <glyph glyph-name="otilde" unicode="&#xf5;" horiz-adv-x="1152" 
d="M936 1370q15 -18 -1 -36q-92 -89 -215 -89q-42 0 -75.5 11.5t-64 26t-59.5 26t-62 11.5q-38 0 -68.5 -13t-53.5 -34q-14 -12 -25.5 -14.5t-22.5 11.5l-42 53q-7 8 -6.5 18t8.5 18q46 44 98.5 66t115.5 22q42 0 76 -11.5t64.5 -25.5t59.5 -25.5t62 -11.5q38 0 68 13t53 34
q14 11 25.5 14t22.5 -11zM798 48q-29 -21 -64 -34.5t-77 -13.5h-276q-50 0 -94 18.5t-76.5 51t-51 76.5t-18.5 94v534q0 50 21 90.5t58 68.5l134 100q29 22 64 34.5t77 12.5h276q50 0 94 -18.5t76.5 -51t51 -76.5t18.5 -94v-534q0 -49 -21 -90t-57 -68zM844 870q0 33 -21 54
t-54 21h-386q-31 0 -53 -22t-22 -53v-660q0 -33 21 -54t54 -21h386q31 0 53 22t22 53v660z" />
    <glyph glyph-name="odieresis" unicode="&#xf6;" horiz-adv-x="1152" 
d="M352 1276q-14 0 -24 10t-10 24v131q0 14 10 24t24 10h102q14 0 24 -10t10 -24v-131q0 -14 -10 -24t-24 -10h-102zM730 1276q-14 0 -24 10t-10 24v131q0 14 10 24t24 10h102q14 0 24 -10t10 -24v-131q0 -14 -10 -24t-24 -10h-102zM798 48q-29 -21 -64 -34.5t-77 -13.5
h-276q-50 0 -94 18.5t-76.5 51t-51 76.5t-18.5 94v534q0 50 21 90.5t58 68.5l134 100q29 22 64 34.5t77 12.5h276q50 0 94 -18.5t76.5 -51t51 -76.5t18.5 -94v-534q0 -49 -21 -90t-57 -68zM844 870q0 33 -21 54t-54 21h-386q-31 0 -53 -22t-22 -53v-660q0 -33 21 -54t54 -21
h386q31 0 53 22t22 53v660z" />
    <glyph glyph-name="divide" unicode="&#xf7;" horiz-adv-x="1170" 
d="M529 824q-14 0 -24 10t-10 24v129q0 14 10 24t24 10h116q14 0 24 -10t10 -24v-129q0 -14 -10 -24t-24 -10h-116zM169 472q-14 0 -24 10t-10 24v70q0 14 10 24t24 10h834q14 0 24.5 -10t10.5 -24v-70q0 -14 -10.5 -24t-24.5 -10h-834zM529 61q-14 0 -24 10t-10 24v129
q0 14 10 24t24 10h116q14 0 24 -10t10 -24v-129q0 -14 -10 -24t-24 -10h-116z" />
    <glyph glyph-name="oslash" unicode="&#xf8;" horiz-adv-x="1152" 
d="M794 40q-25 -18 -56 -29t-64 -11h-294q-43 0 -82 14l-61 -91q-16 -23 -45 -23h-81q-13 0 -18.5 8.5t2.5 19.5l103 155q-27 31 -42 71t-15 85v538q0 51 22 92t58 68l138 103q24 19 54.5 29.5t65.5 10.5h293q42 0 81 -14l62 93q16 23 46 23h80q13 0 18.5 -8.5t-2.5 -19.5
l-103 -157q26 -31 41.5 -71t15.5 -85v-538q0 -49 -21.5 -90.5t-58.5 -69.5zM772 945h-3h-386q-31 0 -53 -22t-22 -53v-622zM844 833l-466 -698h5h386q32 0 53.5 22t21.5 53v623z" />
    <glyph glyph-name="ugrave" unicode="&#xf9;" horiz-adv-x="1169" 
d="M586 1200q-43 0 -73 30l-223 223q-10 10 -10 24.5t10 24.5l44 43q11 10 24.5 10t23.5 -10l301 -300q14 -14 6.5 -29.5t-26.5 -15.5h-77zM884 0q-14 0 -24 10t-10 24v25q-98 -19 -168.5 -32t-123.5 -20.5t-93.5 -11t-77.5 -3.5q-50 0 -94 18.5t-76.5 51t-51 76.5t-18.5 95
v813q0 14 10 24t24 10h99q14 0 24 -10t10 -24v-836q0 -33 21 -54t54 -21h421q17 0 28.5 11.5t11.5 28.5v871q0 14 10 24t24 10h99q14 0 24 -10t10 -24v-1012q0 -14 -10 -24t-24 -10h-99z" />
    <glyph glyph-name="uacute" unicode="&#xfa;" horiz-adv-x="1169" 
d="M653 1230q-30 -30 -73 -30h-77q-19 0 -26.5 15.5t6.5 29.5l301 300q10 10 23.5 10t24.5 -10l44 -43q10 -10 10 -24.5t-10 -24.5zM884 0q-14 0 -24 10t-10 24v25q-98 -19 -168.5 -32t-123.5 -20.5t-93.5 -11t-77.5 -3.5q-50 0 -94 18.5t-76.5 51t-51 76.5t-18.5 95v813
q0 14 10 24t24 10h99q14 0 24 -10t10 -24v-836q0 -33 21 -54t54 -21h421q17 0 28.5 11.5t11.5 28.5v871q0 14 10 24t24 10h99q14 0 24 -10t10 -24v-1012q0 -14 -10 -24t-24 -10h-99z" />
    <glyph glyph-name="ucircumflex" unicode="&#xfb;" horiz-adv-x="1169" 
d="M816 1208q-41 0 -73 29l-160 153l-160 -153q-17 -15 -33.5 -22t-38.5 -7h-73q-9 0 -16 4.5t-10 11t-2 14.5t8 15l301 284q11 11 24.5 11t23.5 -11l301 -284q14 -14 6.5 -29.5t-26.5 -15.5h-72zM884 0q-14 0 -24 10t-10 24v25q-98 -19 -168.5 -32t-123.5 -20.5t-93.5 -11
t-77.5 -3.5q-50 0 -94 18.5t-76.5 51t-51 76.5t-18.5 95v813q0 14 10 24t24 10h99q14 0 24 -10t10 -24v-836q0 -33 21 -54t54 -21h421q17 0 28.5 11.5t11.5 28.5v871q0 14 10 24t24 10h99q14 0 24 -10t10 -24v-1012q0 -14 -10 -24t-24 -10h-99z" />
    <glyph glyph-name="udieresis" unicode="&#xfc;" horiz-adv-x="1169" 
d="M343 1276q-14 0 -24 10t-10 24v131q0 14 10 24t24 10h102q14 0 24 -10t10 -24v-131q0 -14 -10 -24t-24 -10h-102zM721 1276q-14 0 -24 10t-10 24v131q0 14 10 24t24 10h102q14 0 24 -10t10 -24v-131q0 -14 -10 -24t-24 -10h-102zM884 0q-14 0 -24 10t-10 24v25
q-98 -19 -168.5 -32t-123.5 -20.5t-93.5 -11t-77.5 -3.5q-50 0 -94 18.5t-76.5 51t-51 76.5t-18.5 95v813q0 14 10 24t24 10h99q14 0 24 -10t10 -24v-836q0 -33 21 -54t54 -21h421q17 0 28.5 11.5t11.5 28.5v871q0 14 10 24t24 10h99q14 0 24 -10t10 -24v-1012
q0 -14 -10 -24t-24 -10h-99z" />
    <glyph glyph-name="ydieresis" unicode="&#xff;" horiz-adv-x="1169" 
d="M343 1276q-14 0 -24 10t-10 24v131q0 14 10 24t24 10h102q14 0 24 -10t10 -24v-131q0 -14 -10 -24t-24 -10h-102zM721 1276q-14 0 -24 10t-10 24v131q0 14 10 24t24 10h102q14 0 24 -10t10 -24v-131q0 -14 -10 -24t-24 -10h-102zM907 -433q-9 -9 -19 -11t-18.5 1.5
t-14 12t-5.5 20.5v469q-98 -19 -168.5 -32t-123.5 -20.5t-93.5 -11t-77.5 -3.5q-50 0 -94 18.5t-76.5 51t-51 76.5t-18.5 95v813q0 14 10 24t24 10h99q14 0 24 -10t10 -24v-836q0 -33 21 -54t54 -21h421q17 0 28.5 11.5t11.5 28.5v871q0 14 10 24t24 10h99q14 0 24 -10
t10 -24v-1328q0 -23 -8 -39.5t-21 -30.5z" />
    <glyph glyph-name="dotlessi" unicode="&#x131;" horiz-adv-x="472" 
d="M187 0q-14 0 -24 10t-10 24v1012q0 14 10 24t24 10h99q14 0 24 -10t10 -24v-1012q0 -14 -10 -24t-24 -10h-99z" />
    <glyph glyph-name="OE" unicode="&#x152;" horiz-adv-x="2242" 
d="M2040 42q-25 -19 -53.5 -30.5t-61.5 -11.5h-533q-81 0 -148 39t-105 103l-125 -93q-29 -22 -67 -35.5t-78 -13.5h-414q-61 0 -114.5 23.5t-93.5 63.5t-63.5 94t-23.5 114v760q0 61 27.5 110t74.5 84l164 123q31 23 68 35.5t78 12.5h413q40 0 77.5 -10t70 -29t59 -45
t46.5 -57l125 93q29 22 66 35t76 13h581q14 0 24 -10t10 -24v-74q0 -14 -10 -24t-24 -10h-661q-31 0 -57.5 -11t-46 -30.5t-30.5 -46t-11 -57.5v-326h770q14 0 24 -10t10 -24v-75q0 -14 -10 -24t-24 -10h-770v-376q0 -31 11 -57.5t30.5 -46t46 -30.5t57.5 -11h697
q14 0 18 -11t-7 -19zM1097 1133q0 31 -11 57.5t-30.5 46t-46 30.5t-57.5 11h-463q-31 0 -57.5 -11t-46 -30.5t-30.5 -46t-11 -57.5v-845q0 -31 11 -57.5t30.5 -46t46 -30.5t57.5 -11h463q31 0 57.5 11t46 30.5t30.5 46t11 57.5v845z" />
    <glyph glyph-name="oe" unicode="&#x153;" horiz-adv-x="1823" 
d="M1607 42q-25 -19 -55.5 -30.5t-67.5 -11.5h-405q-64 0 -117 29.5t-85 80.5l-84 -62q-29 -22 -64 -35t-77 -13h-271q-50 0 -94 18.5t-76.5 51t-51 76.5t-18.5 94v534q0 50 21 90.5t58 68.5l134 100q29 22 64 34.5t77 12.5h271q65 0 117.5 -29.5t84.5 -79.5l84 62
q29 22 64 34.5t77 12.5h274q51 0 95 -18.5t76 -51t50.5 -76.5t18.5 -94v-106q0 -50 -18.5 -94t-50.5 -76.5t-76 -51t-95 -18.5h-461v-284q0 -33 21 -54t54 -21h596q13 0 17 -12t-6 -20zM839 870q0 33 -21 54t-54 21h-381q-31 0 -53 -22t-22 -53v-660q0 -33 21 -54t54 -21
h381q31 0 53 22t22 53v660zM1540 870q0 33 -21 54t-54 21h-384q-31 0 -53 -22t-22 -53v-241h459q33 0 54 21t21 54v166z" />
    <glyph glyph-name="Ydieresis" unicode="&#x178;" horiz-adv-x="1087" 
d="M305 1616q-14 0 -24 10t-10 24v131q0 14 10 24t24 10h102q14 0 24 -10t10 -24v-131q0 -14 -10 -24t-24 -10h-102zM683 1616q-14 0 -24 10t-10 24v131q0 14 10 24t24 10h102q14 0 24 -10t10 -24v-131q0 -14 -10 -24t-24 -10h-102zM485 0q-14 0 -24 10t-10 24v479
q0 13 -2.5 26t-9.5 25l-460 821q-8 14 -1 24.5t22 10.5h136q32 0 48 -28l363 -661l367 661q16 28 46 28h128q14 0 20.5 -11t-0.5 -24l-459 -821q-14 -25 -14 -51v-479q0 -14 -10 -24t-24 -10h-116z" />
    <glyph glyph-name="florin" unicode="&#x192;" horiz-adv-x="735" 
d="M167 -399q-26 -19 -64.5 -30t-72.5 -11h-59q-14 0 -24 10t-10 24v67q0 14 10 24t24 10h160q38 0 63.5 25.5t25.5 63.5v952h-164q-14 0 -24 10t-10 24v67q0 14 10 24t24 10h164v342q0 50 22 92t59 70l139 104q26 19 64.5 30t72.5 11h108q14 0 24 -10t10 -24v-67
q0 -14 -10 -24t-24 -10h-209q-38 0 -63.5 -25.5t-25.5 -63.5v-425h300q14 0 24 -10t10 -24v-67q0 -14 -10 -24t-24 -10h-300v-869q0 -50 -22 -92t-60 -70z" />
    <glyph glyph-name="circumflex" unicode="&#x2c6;" horiz-adv-x="970" 
d="M718 1208q-41 0 -73 29l-160 153l-160 -153q-17 -15 -33.5 -22t-38.5 -7h-73q-9 0 -16 4.5t-10 11t-2 14.5t8 15l301 284q11 11 24.5 11t23.5 -11l301 -284q14 -14 6.5 -29.5t-26.5 -15.5h-72z" />
    <glyph glyph-name="caron" unicode="&#x2c7;" horiz-adv-x="970" 
d="M509 1192q-10 -11 -23.5 -11t-24.5 11l-301 284q-7 7 -8 15t2 14.5t10 11t16 4.5h73q22 0 38.5 -7t33.5 -22l160 -153l160 153q32 29 73 29h72q19 0 26.5 -15.5t-6.5 -29.5z" />
    <glyph glyph-name="breve" unicode="&#x2d8;" horiz-adv-x="1170" 
d="M878 1515q16 0 16 -16q-2 -63 -25.5 -114.5t-64 -88t-96 -56t-122.5 -19.5t-123 19.5t-96.5 56t-64 88t-25.5 114.5q0 16 16 16h111q16 0 16 -16q4 -72 48.5 -115.5t117.5 -43.5q36 0 66 11.5t52 32.5t34.5 50t14.5 65q0 16 16 16h109z" />
    <glyph glyph-name="dotaccent" unicode="&#x2d9;" horiz-adv-x="970" 
d="M434 1276q-14 0 -24 10t-10 24v131q0 14 10 24t24 10h102q14 0 24 -10t10 -24v-131q0 -14 -10 -24t-24 -10h-102z" />
    <glyph glyph-name="ring" unicode="&#x2da;" horiz-adv-x="1120" 
d="M763 1360q0 -43 -15.5 -79.5t-42.5 -63t-64 -41.5t-81 -15q-43 0 -80 15t-64.5 41.5t-43 63t-15.5 79.5q0 42 15.5 78.5t43 62.5t64.5 41t80 15q44 0 81 -15t64 -41t42.5 -62.5t15.5 -78.5zM560 1264q41 0 68 27t27 69t-27 68.5t-68 26.5q-39 0 -65.5 -26.5t-26.5 -68.5
t25.5 -69t66.5 -27z" />
    <glyph glyph-name="ogonek" unicode="&#x2db;" horiz-adv-x="970" 
d="M470 -372q-34 0 -63.5 13t-51 34.5t-34 51t-12.5 62.5v133q0 33 16 62.5t43 46.5l36 22q16 9 33 14.5t36 5.5h31q11 0 11 -12v-48q0 -13 -11 -13h-26q-20 0 -30.5 -12.5t-10.5 -29.5v-143q0 -20 12.5 -34.5t35.5 -14.5h125q11 0 19 -8t8 -19v-84q0 -11 -8 -19t-19 -8
h-140z" />
    <glyph glyph-name="tilde" unicode="&#x2dc;" horiz-adv-x="1170" 
d="M929 1370q15 -18 -1 -36q-92 -89 -215 -89q-42 0 -75.5 11.5t-64 26t-59.5 26t-62 11.5q-38 0 -68.5 -13t-53.5 -34q-14 -12 -25.5 -14.5t-22.5 11.5l-42 53q-7 8 -6.5 18t8.5 18q46 44 98.5 66t115.5 22q42 0 76 -11.5t64.5 -25.5t59.5 -25.5t62 -11.5q38 0 68 13t53 34
q14 11 25.5 14t22.5 -11z" />
    <glyph glyph-name="hungarumlaut" unicode="&#x2dd;" horiz-adv-x="1120" 
d="M676 1200q-19 0 -27 15t3 31l206 294q9 13 23 15t25 -7l51 -34q11 -8 13.5 -22t-5.5 -26l-164 -236q-20 -30 -58 -30h-67zM364 1200q-19 0 -27 15t3 31l206 294q9 13 23 14.5t25 -6.5l51 -34q11 -8 13.5 -22t-5.5 -26l-164 -236q-20 -30 -58 -30h-67z" />
    <glyph glyph-name="pi" unicode="&#x3c0;" horiz-adv-x="1326" 
d="M1242 39q-23 -18 -50.5 -28.5t-60.5 -10.5h-123q-48 0 -90.5 18.5t-74 50t-50 73.5t-18.5 89v716h-243v-605q0 -57 -27 -110.5t-76 -89.5l-127 -96q-29 -21 -64.5 -33.5t-75.5 -12.5h-115q-14 0 -23 9t-9 23v73q0 14 9 23.5t23 9.5h213q20 0 39 8t33.5 22.5t23.5 33.5
t9 41v704h-293q-14 0 -23.5 9t-9.5 24v68q0 15 9.5 24t23.5 9h1141q14 0 23.5 -9t9.5 -24v-68q0 -15 -9.5 -24t-23.5 -9h-270v-732q0 -36 22.5 -58.5t58.5 -22.5h287q15 0 18 -11t-7 -19z" />
    <glyph glyph-name="endash" unicode="&#x2013;" horiz-adv-x="997" 
d="M65 482q-14 0 -24.5 10t-10.5 24v52q0 14 10.5 24t24.5 10h867q14 0 24.5 -10t10.5 -24v-52q0 -14 -10.5 -24t-24.5 -10h-867z" />
    <glyph glyph-name="emdash" unicode="&#x2014;" horiz-adv-x="1570" 
d="M80 482q-14 0 -24.5 10t-10.5 24v52q0 14 10.5 24t24.5 10h1411q14 0 24 -10t10 -24v-52q0 -14 -10 -24t-24 -10h-1411z" />
    <glyph glyph-name="quoteleft" unicode="&#x2018;" horiz-adv-x="363" 
d="M132 982q-14 0 -24 10t-10 24v355q0 30 23 53l88 88q8 8 18 10t18.5 -2t14.5 -12t6 -19v-473q0 -14 -10 -24t-24 -10h-100z" />
    <glyph glyph-name="quoteright" unicode="&#x2019;" horiz-adv-x="363" 
d="M155 990q-8 -8 -18 -10t-18.5 2t-14.5 12t-6 19v473q0 14 10 24t24 10h100q14 0 24 -10t10 -24v-355q0 -30 -23 -53z" />
    <glyph glyph-name="quotesinglbase" unicode="&#x201a;" horiz-adv-x="363" 
d="M155 -302q-8 -8 -18 -9.5t-18.5 2.5t-14.5 12t-6 19v473q0 14 10 24t24 10h100q14 0 24 -10t10 -24v-355q0 -29 -23 -54z" />
    <glyph glyph-name="quotedblleft" unicode="&#x201c;" horiz-adv-x="692" 
d="M136 982q-14 0 -24 10t-10 24v355q0 30 23 53l88 88q8 8 18 10t18.5 -2t14.5 -12t6 -19v-473q0 -14 -10 -24t-24 -10h-100zM448 982q-14 0 -24 10t-10 24v355q0 30 23 53l88 88q8 8 18 10t18.5 -2t14.5 -12t6 -19v-473q0 -14 -10 -24t-24 -10h-100z" />
    <glyph glyph-name="quotedblright" unicode="&#x201d;" horiz-adv-x="690" 
d="M155 990q-8 -8 -18 -10t-18.5 2t-14.5 12t-6 19v473q0 14 10 24t24 10h100q14 0 24 -10t10 -24v-355q0 -30 -23 -53zM482 990q-8 -8 -18 -10t-18.5 2t-14.5 12t-6 19v473q0 14 10 24t24 10h100q14 0 24 -10t10 -24v-355q0 -30 -23 -53z" />
    <glyph glyph-name="quotedblbase" unicode="&#x201e;" horiz-adv-x="675" 
d="M155 -302q-8 -8 -18 -9.5t-18.5 2.5t-14.5 12t-6 19v473q0 14 10 24t24 10h100q14 0 24 -10t10 -24v-355q0 -29 -23 -54zM467 -302q-8 -8 -18 -9.5t-18.5 2.5t-14.5 12t-6 19v473q0 14 10 24t24 10h100q14 0 24 -10t10 -24v-355q0 -29 -23 -54z" />
    <glyph glyph-name="dagger" unicode="&#x2020;" horiz-adv-x="850" 
d="M381 304q-12 0 -18.5 7t-6.5 18v783h-233q-25 0 -25 25v74q0 25 25 25h233v259q0 25 25 25h103q25 0 25 -25v-259h234q11 0 18 -6.5t7 -18.5v-74q0 -12 -7 -18.5t-18 -6.5h-234v-783q0 -11 -6.5 -18t-18.5 -7h-103z" />
    <glyph glyph-name="daggerdbl" unicode="&#x2021;" horiz-adv-x="865" 
d="M381 304q-12 0 -18.5 7t-6.5 18v259h-233q-11 0 -18 6.5t-7 18.5v74q0 12 7 18.5t18 6.5h233v400h-233q-25 0 -25 25v74q0 25 25 25h233v259q0 25 25 25h103q25 0 25 -25v-259h234q11 0 18 -6.5t7 -18.5v-74q0 -12 -7 -18.5t-18 -6.5h-234v-400h234q25 0 25 -25v-74
q0 -25 -25 -25h-234v-259q0 -11 -6.5 -18t-18.5 -7h-103z" />
    <glyph glyph-name="bullet" unicode="&#x2022;" horiz-adv-x="661" 
d="M225 390q-17 0 -28.5 11.5t-11.5 28.5v222q0 17 11.5 28.5t28.5 11.5h211q17 0 28.5 -11.5t11.5 -28.5v-222q0 -17 -11.5 -28.5t-28.5 -11.5h-211z" />
    <glyph glyph-name="ellipsis" unicode="&#x2026;" horiz-adv-x="1195" 
d="M132 0q-14 0 -24 10t-10 24v124q0 14 10 24t24 10h117q14 0 24 -10t10 -24v-124q0 -14 -10 -24t-24 -10h-117zM540 0q-14 0 -24 10t-10 24v124q0 14 10 24t24 10h117q14 0 24 -10t10 -24v-124q0 -14 -10 -24t-24 -10h-117zM947 0q-14 0 -24 10t-10 24v124q0 14 10 24
t24 10h117q14 0 24 -10t10 -24v-124q0 -14 -10 -24t-24 -10h-117z" />
    <glyph glyph-name="perthousand" unicode="&#x2030;" horiz-adv-x="2266" 
d="M410 810q-65 0 -122.5 25t-100 68t-67.5 100.5t-25 122.5q0 66 25 123.5t67.5 100t100 67.5t122.5 25t122.5 -25t100.5 -67.5t68 -100t25 -123.5q0 -65 -25 -122.5t-68 -100.5t-100.5 -68t-122.5 -25zM177 0q-14 0 -18.5 12.5t4.5 23.5l1074 1353q13 16 30 23.5t37 7.5
h108q13 0 18 -11.5t-4 -22.5l-1075 -1353q-27 -33 -66 -33h-108zM410 950q35 0 65.5 13.5t53 37.5t35 56t12.5 69t-12.5 69t-35 56t-53 37.5t-65.5 13.5t-65 -13.5t-52.5 -37.5t-35 -56t-12.5 -69t12.5 -69t35 -56t52.5 -37.5t65 -13.5zM1179 -21q-65 0 -122.5 25t-100 68
t-67 100.5t-24.5 123.5t24.5 124t67 100.5t100 67.5t122.5 25t122.5 -25t100.5 -67.5t68 -100.5t25 -124t-25 -123.5t-68 -100.5t-100.5 -68t-122.5 -25zM1855 -21q-66 0 -123 25t-100 68t-67.5 100.5t-24.5 123.5t24.5 124t67.5 100.5t100 67.5t123 25q65 0 122.5 -25
t100.5 -67.5t68 -100.5t25 -124t-25 -123.5t-68 -100.5t-100.5 -68t-122.5 -25zM1179 120q35 0 65.5 13.5t53 37.5t35.5 56t13 69t-13 69.5t-35.5 56.5t-53 37.5t-65.5 13.5t-65 -13.5t-52 -37.5t-35 -56.5t-13 -69.5t13 -69t35 -56t52 -37.5t65 -13.5zM1855 120
q35 0 65 13.5t52.5 37.5t35.5 56t13 69t-13 69.5t-35.5 56.5t-52.5 37.5t-65 13.5t-65 -13.5t-52.5 -37.5t-35 -56.5t-12.5 -69.5t12.5 -69t35 -56t52.5 -37.5t65 -13.5z" />
    <glyph glyph-name="guilsinglleft" unicode="&#x2039;" horiz-adv-x="491" 
d="M357 193q-10 -8 -18.5 -6.5t-15.5 9.5l-271 326q-8 10 -8 18t8 18l271 324q8 9 16.5 11t17.5 -6l77 -67q11 -9 12 -16.5t-7 -17.5l-213 -246l213 -247q18 -19 -3 -35z" />
    <glyph glyph-name="guilsinglright" unicode="&#x203a;" horiz-adv-x="491" 
d="M55 258q-21 16 -3 35l213 247l-213 246q-8 10 -7 17.5t12 16.5l77 67q9 8 17.5 6t16.5 -11l271 -324q8 -10 8 -18t-8 -18l-271 -326q-7 -8 -15.5 -9.5t-18.5 6.5z" />
    <glyph glyph-name="fraction" unicode="&#x2044;" horiz-adv-x="406" 
d="M-530 0q-9 0 -13 7t3 15l1331 1382q7 7 16 11.5t20 4.5h109q11 0 14.5 -7t-4.5 -15l-1331 -1382q-14 -16 -36 -16h-109z" />
    <glyph glyph-name="Euro" unicode="&#x20ac;" horiz-adv-x="1281" 
d="M514 0q-61 0 -114 23t-92.5 63t-62.5 93.5t-23 113.5v177h-132q-15 0 -23 10t-4 24l21 75q9 33 42 33h96v178h-131q-15 0 -23 10t-4 24l21 75q9 34 42 34h95v121q0 60 25 110.5t70 83.5l169 125q62 47 145 47h577q15 0 23 -10t4 -24l-21 -75q-9 -34 -42 -34h-621
q-31 0 -57.5 -11t-46 -30.5t-31 -46t-11.5 -57.5v-199h664q15 0 23 -10t4 -24l-21 -75q-9 -34 -42 -34h-628v-178h584q15 0 23 -10t4 -24l-21 -75q-9 -33 -42 -33h-548v-182q0 -31 11 -57.5t30.5 -46t46 -30.5t57.5 -11h586q14 0 24 -10t10 -24v-75q0 -14 -10 -24t-24 -10
h-622z" />
    <glyph glyph-name="trademark" unicode="&#x2122;" horiz-adv-x="852" 
d="M163 1192q-10 0 -10 10v258h-98q-10 0 -10 10v40q0 10 10 10h271q10 0 10 -10v-40q0 -10 -10 -10h-97v-258q0 -10 -10 -10h-56zM713 1192q-10 0 -10 10v276h-7l-62 -276q-3 -10 -12 -10h-97q-9 0 -12 10l-65 276h-8v-276q0 -10 -10 -10h-47q-10 0 -10 10v308q0 10 10 10
h118q5 0 8.5 -1t5.5 -7l58 -270h6l58 270q2 6 5.5 7t8.5 1h116q10 0 10 -10v-308q0 -10 -10 -10h-54z" />
    <glyph glyph-name="Omega" unicode="&#x2126;" horiz-adv-x="1344" 
d="M807 0q-35 0 -59 21.5t-24 56.5v339q0 36 20.5 57t53.5 21h90q39 0 67.5 14.5t47.5 39t28.5 58t9.5 71.5v448q0 41 -14.5 70t-39 47t-58 26t-71.5 8h-405q-31 0 -58.5 -12t-48.5 -32.5t-33 -48t-12 -58.5v-448q0 -38 9.5 -71.5t28 -58t47 -39t67.5 -14.5h90
q33 0 53.5 -21t20.5 -57v-339q0 -35 -23.5 -56.5t-58.5 -21.5h-398q-15 0 -24 8.5t-9 23.5v78q0 15 9 24t24 9h308v210h-38q-62 0 -115 23.5t-92 64t-61 95t-22 117.5v401q0 62 28.5 113t76.5 86l158 119q31 23 69 36t79 13h397q62 0 117 -23.5t96 -64.5t64.5 -95.5
t23.5 -117.5v-467q0 -63 -22.5 -117.5t-61.5 -95t-92.5 -64t-115.5 -23.5h-38v-210h310q14 0 23.5 -9t9.5 -24v-78q0 -15 -9.5 -23.5t-23.5 -8.5h-399z" />
    <glyph glyph-name="partialdiff" unicode="&#x2202;" horiz-adv-x="1193" 
d="M859 77q-42 -35 -91 -56t-112 -21h-271q-48 0 -93.5 18t-81 50.5t-57 78.5t-21.5 103v576q0 62 22.5 110.5t61.5 81.5t92 50.5t113 17.5q30 0 68 -3.5t91.5 -11.5t126 -21.5t170.5 -33.5v165q0 22 -8.5 41t-22.5 33.5t-33 22.5t-41 8h-564q-14 0 -18 11.5t6 19.5l85 60
q27 19 57.5 31t72.5 12h212q72 0 121.5 -15t96.5 -50l116 -86q42 -32 66.5 -77t24.5 -99v-738q0 -64 -22.5 -110.5t-62.5 -80.5zM877 902q0 17 -11.5 28.5t-28.5 11.5h-429q-47 0 -75.5 -28.5t-28.5 -75.5v-602q0 -44 29.5 -74t74.5 -30h364q47 0 76 28.5t29 75.5v666z" />
    <glyph glyph-name="product" unicode="&#x220f;" horiz-adv-x="1755" 
d="M1204 0q-21 0 -32 13t-11 34v1230h-567v-1230q0 -21 -11 -34t-33 -13h-90q-21 0 -32.5 13t-11.5 34v1230h-301q-14 0 -23.5 9.5t-9.5 23.5v76q0 14 9.5 23.5t23.5 9.5h1525q14 0 23.5 -9.5t9.5 -23.5v-76q0 -14 -9.5 -23.5t-23.5 -9.5h-302v-1230q0 -21 -11 -34t-32 -13
h-91z" />
    <glyph glyph-name="summation" unicode="&#x2211;" horiz-adv-x="1170" 
d="M133 0q-17 0 -27 10.5t-10 28.5v146q0 23 9.5 37t24.5 24l711 468l-712 466q-15 10 -24.5 24t-9.5 38v139q0 18 10 28.5t27 10.5h897q37 0 37 -35v-75q0 -35 -37 -35h-779l708 -462q11 -7 17.5 -17.5t6.5 -25.5v-115q0 -16 -6.5 -25.5t-17.5 -17.5l-710 -470h781
q17 0 27.5 -9t10.5 -26v-72q0 -17 -10.5 -26t-27.5 -9h-896z" />
    <glyph glyph-name="radical" unicode="&#x221a;" horiz-adv-x="1662" 
d="M645 1q-32 0 -45 33l-238 626q-11 30 -26 40.5t-43 10.5h-222q-14 0 -23.5 9.5t-9.5 23.5v66q0 14 9.5 23.5t23.5 9.5h343q26 0 40 -9.5t22 -30.5l269 -711l751 1746q7 16 18.5 25t26.5 9h106q16 0 24 -11.5t2 -25.5l-778 -1801q-14 -33 -45 -33h-205z" />
    <glyph glyph-name="infinity" unicode="&#x221e;" horiz-adv-x="1632" 
d="M1334 348q-32 -26 -73.5 -47.5t-94.5 -21.5h-152q-76 0 -135.5 37t-90.5 95l-54 -49q-18 -17 -37 -32t-40.5 -26t-46.5 -18t-56 -7h-150q-54 0 -101 20t-82 55.5t-55.5 84t-20.5 105.5v154q0 75 22 127t70 91l88 73q32 26 73.5 47.5t94.5 21.5h152q76 0 135.5 -38
t90.5 -96l54 49q18 16 37 31.5t40.5 27.5t46.5 19t56 7h150q54 0 101 -20t82 -55.5t55.5 -84t20.5 -105.5v-154q0 -75 -22 -127t-70 -91zM755 816q0 47 -29 76t-76 29h-244q-22 0 -41 -8t-33.5 -22.5t-22.5 -33.5t-8 -41v-296q0 -47 29 -76t76 -29h244q22 0 41 8t33 22.5
t22.5 33.5t8.5 41v296zM1358 816q0 47 -29 76t-76 29h-244q-22 0 -41 -8.5t-33.5 -22.5t-22.5 -33t-8 -41v-296q0 -47 29 -76t76 -29h244q22 0 41 8t33 22.5t22.5 33.5t8.5 41v296z" />
    <glyph glyph-name="integral" unicode="&#x222b;" horiz-adv-x="1150" 
d="M423 -396q-27 -20 -64 -32t-74 -12h-92q-14 0 -23.5 9.5t-9.5 23.5v68q0 14 9.5 23.5t23.5 9.5h193q34 0 57.5 24t23.5 57v1441q0 28 8.5 54t23 48.5t33 42t39.5 34.5l108 81q28 20 64.5 32t73.5 12h138q14 0 23.5 -9.5t9.5 -23.5v-68q0 -14 -9.5 -23.5t-23.5 -9.5h-239
q-23 0 -38.5 -9.5t-25 -25.5t-13.5 -37t-4 -44v-1356q0 -43 -6 -76.5t-18.5 -60.5t-32 -49t-46.5 -43z" />
    <glyph glyph-name="approxequal" unicode="&#x2248;" horiz-adv-x="1170" 
d="M1076 817q25 -21 5 -47q-57 -63 -130 -95.5t-161 -32.5q-68 0 -116.5 18.5t-90 40.5t-81.5 40.5t-89 18.5q-56 0 -99.5 -20t-80.5 -58q-24 -24 -48 -4l-57 45q-29 23 -5 50q56 63 128 95.5t162 32.5q43 0 78.5 -8.5t66 -22t58 -28.5t55 -28.5t56.5 -22t63 -8.5
q54 0 98.5 20t80.5 57q24 25 48 5zM1076 373q25 -21 5 -47q-57 -63 -130 -95.5t-161 -32.5q-68 0 -116.5 18.5t-90 40.5t-81.5 40.5t-89 18.5q-56 0 -99.5 -20t-80.5 -58q-24 -24 -48 -4l-57 45q-29 23 -5 50q56 63 128 95.5t162 32.5q43 0 78.5 -8.5t66 -22t58 -28.5
t55 -28.5t56.5 -22t63 -8.5q54 0 98.5 20t80.5 57q24 25 48 5z" />
    <glyph glyph-name="notequal" unicode="&#x2260;" horiz-adv-x="1170" 
d="M517 251l-108 -216q-18 -35 -55 -35h-76q-14 0 -21.5 10.5t-0.5 24.5l108 216h-195q-14 0 -24 10t-10 24v70q0 14 10 24t24 10h264l155 310h-419q-14 0 -24 10t-10 24v70q0 14 10 24t24 10h488l105 209q17 34 55 34h76q14 0 21.5 -10.5t0.5 -23.5l-105 -209h193
q14 0 24.5 -10t10.5 -24v-70q0 -14 -10.5 -24t-24.5 -10h-262l-155 -310h417q14 0 24.5 -10t10.5 -24v-70q0 -14 -10.5 -24t-24.5 -10h-486z" />
    <glyph glyph-name="lessequal" unicode="&#x2264;" horiz-adv-x="1170" 
d="M169 633q-11 5 -15.5 14.5t-4.5 19t5 18.5t15 14l738 364q29 14 44 -15l34 -69q7 -14 3.5 -26t-19.5 -20l-545 -267l545 -267q16 -8 19.5 -20t-3.5 -26l-34 -69q-15 -29 -44 -15zM193 0q-14 0 -24 10.5t-10 24.5v69q0 14 10 24.5t24 10.5h766q14 0 24.5 -10.5t10.5 -24.5
v-69q0 -14 -10.5 -24.5t-24.5 -10.5h-766z" />
    <glyph glyph-name="greaterequal" unicode="&#x2265;" horiz-adv-x="1170" 
d="M264 269q-29 -14 -44 15l-34 69q-7 14 -3.5 26t19.5 20l545 267l-545 267q-16 8 -19.5 20t3.5 26l34 69q15 29 44 15l738 -364q10 -5 15 -14t5 -18.5t-5 -19t-15 -14.5zM212 0q-14 0 -24.5 10.5t-10.5 24.5v69q0 14 10.5 24.5t24.5 10.5h766q14 0 24 -10.5t10 -24.5v-69
q0 -14 -10 -24.5t-24 -10.5h-766z" />
    <glyph glyph-name="lozenge" unicode="&#x25ca;" horiz-adv-x="1178" 
d="M527 0q-40 0 -61 36l-384 638q-22 36 0 73l384 638q20 35 61 35h126q39 0 60 -35l383 -638q22 -36 0 -73l-383 -638q-22 -36 -60 -36h-126zM923 710l-333 555l-335 -555l335 -555z" />
    <glyph glyph-name=".null" horiz-adv-x="1200" 
 />
    <glyph glyph-name=".null" horiz-adv-x="1200" 
 />
    <glyph glyph-name="currency" unicode="&#xa4;" horiz-adv-x="1170" 
d="M1005 231q-24 -24 -48 0l-117 116q-54 -38 -118.5 -59t-136.5 -21t-137 21t-119 58l-115 -115q-24 -24 -48 0l-58 58q-24 24 0 48l115 114q-37 54 -58 119.5t-21 137.5t21 136.5t59 118.5l-116 116q-23 25 0 48l58 58q24 24 48 0l115 -116q54 37 119 58t137 21t136.5 -21
t117.5 -58l118 116q24 24 48 0l57 -58q24 -24 0 -48l-116 -116q37 -54 58 -118.5t21 -136.5t-21 -136.5t-58 -118.5l116 -116q24 -24 0 -48zM585 423q60 0 110.5 22.5t88 61t58.5 90.5t21 111q0 60 -21 111.5t-58.5 90t-88 60.5t-110.5 22t-111 -21.5t-88.5 -60t-58.5 -90.5
t-21 -112t21 -112t58.5 -90.5t88.5 -60.5t111 -22z" />
    <glyph glyph-name="brokenbar" unicode="&#xa6;" horiz-adv-x="546" 
d="M224 869q-34 0 -34 34v583q0 34 34 34h98q34 0 34 -34v-583q0 -34 -34 -34h-98zM224 -440q-34 0 -34 34v583q0 34 34 34h98q34 0 34 -34v-583q0 -34 -34 -34h-98z" />
    <glyph glyph-name="uni00AD" unicode="&#xad;" horiz-adv-x="732" 
d="M133 474q-14 0 -24.5 10.5t-10.5 24.5v65q0 14 10.5 24t24.5 10h468q14 0 24 -10t10 -24v-65q0 -14 -10 -24.5t-24 -10.5h-468z" />
    <glyph glyph-name="twosuperior" unicode="&#xb2;" horiz-adv-x="670" 
d="M84 748q-18 0 -18 18v203q0 33 14.5 63.5t43.5 50.5l82 60q20 14 41 20.5t41 6.5h136q28 0 46 18.5t18 45.5v108q0 28 -17.5 46t-46.5 18h-335q-8 0 -11.5 7t4.5 13l56 45q31 25 65 25h249q33 0 61.5 -12.5t49.5 -33.5t33.5 -50t12.5 -62v-102q0 -33 -12 -62t-33.5 -50.5
t-50 -33.5t-61.5 -12h-189q-35 0 -56 -20.5t-21 -55.5v-164h395q8 0 13 -5t5 -13v-54q0 -18 -18 -18h-497z" />
    <glyph glyph-name="threesuperior" unicode="&#xb3;" horiz-adv-x="670" 
d="M469 773q-34 -25 -79 -25h-323q-9 0 -12 7.5t4 12.5l57 45q31 25 65 25h241q27 0 45 18t18 46v125q0 27 -18 45t-45 18h-240q-18 0 -18 18v52q0 18 18 18h236q27 0 45.5 18.5t18.5 45.5v100q0 28 -18 46t-46 18h-340q-9 0 -12 7.5t4 12.5l57 46q31 24 65 24h255
q32 0 60.5 -12t49.5 -33t33.5 -49.5t12.5 -60.5v-50q0 -65 -54 -107l-30 -24q42 -20 65 -57t23 -82v-76q0 -34 -14.5 -62.5t-40.5 -48.5z" />
    <glyph glyph-name="onesuperior" unicode="&#xb9;" horiz-adv-x="670" 
d="M94 748q-18 0 -18 18v54q0 8 5 13t13 5h197v568h-197q-9 0 -12 7.5t4 12.5l57 46q31 24 65 24h184q19 0 19 -18v-640h185q8 0 13 -5t5 -13v-54q0 -8 -5 -13t-13 -5h-502z" />
    <glyph glyph-name="onequarter" unicode="&#xbc;" horiz-adv-x="1800" 
d="M94 672q-18 0 -18 18v54q0 8 5 13t13 5h197v568h-197q-9 0 -12 7.5t4 12.5l57 46q31 24 65 24h184q19 0 19 -18v-640h185q8 0 13 -5t5 -13v-54q0 -8 -5 -13t-13 -5h-502zM191 0q-9 0 -13 7t3 15l1331 1382q13 16 36 16h109q11 0 14.5 -7t-4.5 -15l-1331 -1382
q-14 -16 -36 -16h-109zM1532 0q-8 0 -13 5t-5 13v176h-174q-33 0 -60.5 11.5t-48 32t-32 48t-11.5 60.5v225q0 23 7.5 42.5t24.5 40.5l59 70q8 8 17.5 5.5t9.5 -13.5v-371q0 -26 17.5 -43.5t43.5 -17.5h147v446q0 8 5 13t13 5h81q18 0 18 -18v-446h108q18 0 18 -18v-53
q0 -19 -18 -19h-108v-176q0 -18 -18 -18h-81z" />
    <glyph glyph-name="onehalf" unicode="&#xbd;" horiz-adv-x="1814" 
d="M94 672q-18 0 -18 18v54q0 8 5 13t13 5h197v568h-197q-9 0 -12 7.5t4 12.5l57 46q31 24 65 24h184q19 0 19 -18v-640h185q8 0 13 -5t5 -13v-54q0 -8 -5 -13t-13 -5h-502zM191 0q-9 0 -13 7t3 15l1331 1382q13 16 36 16h109q11 0 14.5 -7t-4.5 -15l-1331 -1382
q-14 -16 -36 -16h-109zM1228 0q-18 0 -18 18v203q0 33 14.5 63.5t43.5 50.5l82 60q20 14 41 20.5t41 6.5h136q28 0 46 18.5t18 45.5v108q0 28 -17.5 46t-46.5 18h-335q-8 0 -11.5 7t4.5 13l56 45q31 25 65 25h249q33 0 61.5 -12.5t49.5 -33.5t33.5 -50t12.5 -62v-102
q0 -33 -12 -62t-33.5 -50.5t-50 -33.5t-61.5 -12h-189q-35 0 -56 -20.5t-21 -55.5v-164h395q8 0 13 -5t5 -13v-54q0 -18 -18 -18h-497z" />
    <glyph glyph-name="threequarters" unicode="&#xbe;" horiz-adv-x="1783" 
d="M469 697q-34 -25 -79 -25h-323q-9 0 -12 7.5t4 12.5l57 45q31 25 65 25h241q27 0 45 18t18 46v125q0 27 -18 45t-45 18h-240q-18 0 -18 18v52q0 18 18 18h236q27 0 45.5 18.5t18.5 45.5v100q0 28 -18 46t-46 18h-340q-9 0 -12 7.5t4 12.5l57 46q31 24 65 24h255
q32 0 60.5 -12t49.5 -33t33.5 -49.5t12.5 -60.5v-50q0 -65 -54 -107l-30 -24q42 -20 65 -57t23 -82v-76q0 -34 -14.5 -62.5t-40.5 -48.5zM127 0q-9 0 -13 7t3 15l1331 1382q13 16 36 16h109q11 0 14.5 -7t-4.5 -15l-1331 -1382q-14 -16 -36 -16h-109zM1515 0q-8 0 -13 5
t-5 13v176h-174q-33 0 -60.5 11.5t-48 32t-32 48t-11.5 60.5v225q0 23 7.5 42.5t24.5 40.5l59 70q8 8 17.5 5.5t9.5 -13.5v-371q0 -26 17.5 -43.5t43.5 -17.5h147v446q0 8 5 13t13 5h81q18 0 18 -18v-446h108q18 0 18 -18v-53q0 -19 -18 -19h-108v-176q0 -18 -18 -18h-81z
" />
    <glyph glyph-name="Eth" unicode="&#xd0;" horiz-adv-x="1476" 
d="M1050 48q-31 -23 -68 -35.5t-78 -12.5h-680q-14 0 -24 10t-10 24v643h-171q-14 0 -24 10t-10 24v63q0 14 10 24t24 10h171v578q0 14 10 24t24 10h116q14 0 24 -10t10 -24v-34q148 22 253 37t180 23.5t125.5 12t88.5 3.5q61 0 115 -23t94 -63t63 -94t23 -115v-768
q0 -61 -27.5 -110t-74.5 -84zM1132 1132q0 31 -11 57.5t-30.5 46t-46 30.5t-57.5 11h-570q-18 0 -30.5 -12.5t-12.5 -30.5v-426h346q14 0 24 -10t10 -24v-63q0 -14 -10 -24t-24 -10h-346v-534h613q31 0 57.5 11t46 30.5t30.5 46t11 57.5v844z" />
    <glyph glyph-name="multiply" unicode="&#xd7;" horiz-adv-x="1170" 
d="M974 101q-11 -11 -24.5 -10.5t-24.5 10.5l-339 340l-340 -340q-11 -10 -24.5 -10.5t-24.5 10.5l-51 51q-11 11 -10.5 24.5t10.5 24.5l340 340l-340 339q-10 11 -10.5 24.5t10.5 24.5l51 51q11 11 25.5 10.5t24.5 -10.5l339 -340l339 340q11 10 24.5 10.5t24.5 -10.5
l51 -51q11 -11 10.5 -25.5t-10.5 -24.5l-338 -338l338 -340q10 -11 10.5 -24.5t-10.5 -24.5z" />
    <glyph glyph-name="Yacute" unicode="&#xdd;" horiz-adv-x="1087" 
d="M615 1570q-30 -30 -73 -30h-77q-19 0 -26.5 15.5t6.5 29.5l301 300q10 10 23.5 10t24.5 -10l44 -43q10 -10 10 -24.5t-10 -24.5zM485 0q-14 0 -24 10t-10 24v479q0 13 -2.5 26t-9.5 25l-460 821q-8 14 -1 24.5t22 10.5h136q32 0 48 -28l363 -661l367 661q16 28 46 28h128
q14 0 20.5 -11t-0.5 -24l-459 -821q-14 -25 -14 -51v-479q0 -14 -10 -24t-24 -10h-116z" />
    <glyph glyph-name="Thorn" unicode="&#xde;" horiz-adv-x="1404" 
d="M1000 368q-30 -23 -67.5 -36t-77.5 -13h-481v-285q0 -14 -10 -24t-24 -10h-116q-14 0 -24 10t-10 24v1352q0 14 10 24t24 10h116q14 0 24 -10t10 -24v-285q149 22 251 37t171 23.5t112 12t73 3.5q60 0 112.5 -24.5t90.5 -64.5t60 -91t22 -105v-208q0 -61 -27 -110
t-74 -84zM1083 895q0 58 -36.5 94.5t-95.5 36.5h-534q-18 0 -30.5 -12.5t-12.5 -30.5v-521h565q30 0 56.5 11t46 30.5t30.5 46t11 57.5v288z" />
    <glyph glyph-name="eth" unicode="&#xf0;" horiz-adv-x="1152" 
d="M794 41q-25 -19 -56 -29.5t-64 -10.5h-293q-51 0 -94.5 18.5t-76 51t-51 76.5t-18.5 94v537q0 51 22 91.5t58 68.5l138 103q24 18 54.5 29t65.5 11h221q35 0 65 -8.5t57 -22.5q-23 60 -60 114.5t-84 101.5l-277 -109q-12 -5 -20 -0.5t-13 15.5l-25 67q-10 22 14 31
l224 88q-43 29 -88.5 53t-93.5 38q-11 5 -11.5 16.5t10.5 16.5l106 38q24 11 46 -4q53 -16 99 -41.5t88 -54.5l253 100q12 5 20 0.5t13 -15.5l25 -67q5 -11 1 -18t-15 -13l-208 -83q90 -100 137.5 -227.5t47.5 -282.5v-510q0 -50 -21.5 -91.5t-58.5 -68.5zM844 862
q0 40 -22.5 62t-62.5 22h-376q-31 0 -53 -22t-22 -53v-660q0 -33 21 -54t54 -21h386q31 0 53 22t22 53v651z" />
    <glyph glyph-name="yacute" unicode="&#xfd;" horiz-adv-x="1169" 
d="M653 1230q-30 -30 -73 -30h-77q-19 0 -26.5 15.5t6.5 29.5l301 300q10 10 23.5 10t24.5 -10l44 -43q10 -10 10 -24.5t-10 -24.5zM907 -433q-9 -9 -19 -11t-18.5 1.5t-14 12t-5.5 20.5v469q-98 -19 -168.5 -32t-123.5 -20.5t-93.5 -11t-77.5 -3.5q-50 0 -94 18.5t-76.5 51
t-51 76.5t-18.5 95v813q0 14 10 24t24 10h99q14 0 24 -10t10 -24v-836q0 -33 21 -54t54 -21h421q17 0 28.5 11.5t11.5 28.5v871q0 14 10 24t24 10h99q14 0 24 -10t10 -24v-1328q0 -23 -8 -39.5t-21 -30.5z" />
    <glyph glyph-name="thorn" unicode="&#xfe;" horiz-adv-x="1164" 
d="M810 48q-29 -22 -64.5 -35t-76.5 -13h-349v-409q0 -14 -10 -24t-24 -10h-99q-14 0 -24 10t-10 24v1895q0 14 10 24t24 10h99q14 0 24 -10t10 -24v-465q98 19 168.5 32t123.5 20.5t93 11t78 3.5q52 0 96.5 -17.5t76 -49.5t49.5 -76t18 -96v-543q0 -49 -21 -90t-58 -68z
M856 870q0 33 -21 54t-54 21h-421q-17 0 -28.5 -11.5t-11.5 -28.5v-770h461q31 0 53 22t22 53v660z" />
    <glyph glyph-name="Amacron" unicode="&#x100;" horiz-adv-x="1210" 
d="M336 1567q-14 0 -24 10t-10 24v51q0 14 10 24.5t24 10.5h538q14 0 24.5 -10.5t10.5 -24.5v-51q0 -14 -10.5 -24t-24.5 -10h-538zM1047 0q-16 0 -28.5 9t-17.5 26l-117 375h-567l-117 -375q-11 -35 -45 -35h-98q-16 0 -24 12t-3 26l426 1348q5 17 17.5 25.5t28.5 8.5h208
q16 0 28.5 -8.5t17.5 -25.5l424 -1348q5 -14 -3 -26t-24 -12h-106zM601 1329l-241 -775h481z" />
    <glyph glyph-name="amacron" unicode="&#x101;" horiz-adv-x="1163" 
d="M348 1227q-14 0 -24 10t-10 24v51q0 14 10 24.5t24 10.5h538q14 0 24.5 -10.5t10.5 -24.5v-51q0 -14 -10.5 -24t-24.5 -10h-538zM878 0q-14 0 -24 10t-10 24v25q-98 -19 -168.5 -32t-123.5 -20.5t-93.5 -11t-77.5 -3.5q-50 0 -94 18.5t-76.5 51t-51 76.5t-18.5 95v541
q0 50 21 90.5t58 68.5l134 100q29 22 64 34.5t77 12.5h482q14 0 24 -10t10 -24v-1012q0 -14 -10 -24t-24 -10h-99zM844 945h-461q-31 0 -53 -22t-22 -53v-660q0 -33 21 -54t54 -21h421q17 0 28.5 11.5t11.5 28.5v770z" />
    <glyph glyph-name="Abreve" unicode="&#x102;" horiz-adv-x="1210" 
d="M899 1855q16 0 16 -16q-2 -63 -25.5 -114.5t-64 -88t-96 -56t-122.5 -19.5t-123 19.5t-96.5 56t-64 88t-25.5 114.5q0 16 16 16h111q16 0 16 -16q4 -72 48.5 -115.5t117.5 -43.5q36 0 66 11.5t52 32.5t34.5 50t14.5 65q0 16 16 16h109zM1047 0q-16 0 -28.5 9t-17.5 26
l-117 375h-567l-117 -375q-11 -35 -45 -35h-98q-16 0 -24 12t-3 26l426 1348q5 17 17.5 25.5t28.5 8.5h208q16 0 28.5 -8.5t17.5 -25.5l424 -1348q5 -14 -3 -26t-24 -12h-106zM601 1329l-241 -775h481z" />
    <glyph glyph-name="abreve" unicode="&#x103;" horiz-adv-x="1163" 
d="M911 1515q16 0 16 -16q-2 -63 -25.5 -114.5t-64 -88t-96 -56t-122.5 -19.5t-123 19.5t-96.5 56t-64 88t-25.5 114.5q0 16 16 16h111q16 0 16 -16q4 -72 48.5 -115.5t117.5 -43.5q36 0 66 11.5t52 32.5t34.5 50t14.5 65q0 16 16 16h109zM878 0q-14 0 -24 10t-10 24v25
q-98 -19 -168.5 -32t-123.5 -20.5t-93.5 -11t-77.5 -3.5q-50 0 -94 18.5t-76.5 51t-51 76.5t-18.5 95v541q0 50 21 90.5t58 68.5l134 100q29 22 64 34.5t77 12.5h482q14 0 24 -10t10 -24v-1012q0 -14 -10 -24t-24 -10h-99zM844 945h-461q-31 0 -53 -22t-22 -53v-660
q0 -33 21 -54t54 -21h421q17 0 28.5 11.5t11.5 28.5v770z" />
    <glyph glyph-name="Aogonek" unicode="&#x104;" horiz-adv-x="1210" 
d="M1030 -372q-34 0 -63.5 13t-51 34.5t-34 51t-12.5 62.5v133q0 33 16 62.5t43 46.5l36 22q7 4 13.5 7t13.5 6l-107 344h-567l-117 -375q-11 -35 -45 -35h-98q-16 0 -24 12t-3 26l426 1348q5 17 17.5 25.5t28.5 8.5h208q16 0 28.5 -8.5t17.5 -25.5l424 -1348q5 -14 -3 -26
t-24 -12h-115q-20 0 -30.5 -12.5t-10.5 -29.5v-143q0 -20 12.5 -34.5t35.5 -14.5h125q11 0 19 -8t8 -19v-84q0 -11 -8 -19t-19 -8h-140zM601 1329l-241 -775h481z" />
    <glyph glyph-name="aogonek" unicode="&#x105;" horiz-adv-x="1163" 
d="M900 -372q-34 0 -63.5 13t-51 34.5t-34 51t-12.5 62.5v133q0 33 16 62.5t43 46.5l36 22q5 3 10 5v1q-98 -19 -168.5 -32t-123.5 -20.5t-93.5 -11t-77.5 -3.5q-50 0 -94 18.5t-76.5 51t-51 76.5t-18.5 95v541q0 50 21 90.5t58 68.5l134 100q29 22 64 34.5t77 12.5h482
q14 0 24 -10t10 -24v-1012q0 -14 -10 -24t-24 -10h-69q-20 0 -30.5 -12.5t-10.5 -29.5v-143q0 -20 12.5 -34.5t35.5 -14.5h125q11 0 19 -8t8 -19v-84q0 -11 -8 -19t-19 -8h-140zM844 945h-461q-31 0 -53 -22t-22 -53v-660q0 -33 21 -54t54 -21h421q17 0 28.5 11.5t11.5 28.5
v770z" />
    <glyph glyph-name="Cacute" unicode="&#x106;" horiz-adv-x="1258" 
d="M775 1570q-30 -30 -73 -30h-77q-19 0 -26.5 15.5t6.5 29.5l301 300q10 10 23.5 10t24.5 -10l44 -43q10 -10 10 -24.5t-10 -24.5zM1090 42q-25 -19 -53.5 -30.5t-61.5 -11.5h-520q-61 0 -115 23t-94 63t-63 94t-23 115v760q0 61 27.5 110t74.5 84l164 123q31 23 68 35.5
t78 12.5h551q14 0 24 -10t10 -24v-75q0 -14 -10 -24t-24 -10h-634q-31 0 -57.5 -11t-46 -30.5t-30.5 -46t-11 -57.5v-844q0 -31 11 -57.5t30.5 -46t46 -30.5t57.5 -11h683q14 0 18 -11t-7 -19z" />
    <glyph glyph-name="cacute" unicode="&#x107;" horiz-adv-x="1020" 
d="M656 1230q-30 -30 -73 -30h-77q-19 0 -26.5 15.5t6.5 29.5l301 300q10 10 23.5 10t24.5 -10l44 -43q10 -10 10 -24.5t-10 -24.5zM868 42q-25 -19 -55.5 -30.5t-67.5 -11.5h-364q-50 0 -94 18.5t-76.5 51t-51 76.5t-18.5 94v534q0 50 21 90.5t58 68.5l134 100
q29 22 64 34.5t77 12.5h411q14 0 24 -10t10 -24v-67q0 -14 -10 -24t-24 -10h-523q-31 0 -53 -22t-22 -53v-660q0 -33 21 -54t54 -21h555q13 0 17 -12t-6 -20z" />
    <glyph glyph-name="Ccaron" unicode="&#x10c;" horiz-adv-x="1258" 
d="M729 1532q-10 -11 -23.5 -11t-24.5 11l-301 284q-7 7 -8 15t2 14.5t10 11t16 4.5h73q22 0 38.5 -7t33.5 -22l160 -153l160 153q32 29 73 29h72q19 0 26.5 -15.5t-6.5 -29.5zM1090 42q-25 -19 -53.5 -30.5t-61.5 -11.5h-520q-61 0 -115 23t-94 63t-63 94t-23 115v760
q0 61 27.5 110t74.5 84l164 123q31 23 68 35.5t78 12.5h551q14 0 24 -10t10 -24v-75q0 -14 -10 -24t-24 -10h-634q-31 0 -57.5 -11t-46 -30.5t-30.5 -46t-11 -57.5v-844q0 -31 11 -57.5t30.5 -46t46 -30.5t57.5 -11h683q14 0 18 -11t-7 -19z" />
    <glyph glyph-name="ccaron" unicode="&#x10d;" horiz-adv-x="1020" 
d="M610 1192q-10 -11 -23.5 -11t-24.5 11l-301 284q-7 7 -8 15t2 14.5t10 11t16 4.5h73q22 0 38.5 -7t33.5 -22l160 -153l160 153q32 29 73 29h72q19 0 26.5 -15.5t-6.5 -29.5zM868 42q-25 -19 -55.5 -30.5t-67.5 -11.5h-364q-50 0 -94 18.5t-76.5 51t-51 76.5t-18.5 94v534
q0 50 21 90.5t58 68.5l134 100q29 22 64 34.5t77 12.5h411q14 0 24 -10t10 -24v-67q0 -14 -10 -24t-24 -10h-523q-31 0 -53 -22t-22 -53v-660q0 -33 21 -54t54 -21h555q13 0 17 -12t-6 -20z" />
    <glyph glyph-name="Dcaron" unicode="&#x10e;" horiz-adv-x="1476" 
d="M753 1532q-10 -11 -23.5 -11t-24.5 11l-301 284q-7 7 -8 15t2 14.5t10 11t16 4.5h73q22 0 38.5 -7t33.5 -22l160 -153l160 153q32 29 73 29h72q19 0 26.5 -15.5t-6.5 -29.5zM1050 48q-31 -23 -68 -35.5t-78 -12.5h-680q-14 0 -24 10t-10 24v1352q0 14 10 24t24 10h116
q14 0 24 -10t10 -24v-34q148 22 253 37t180 23.5t125.5 12t88.5 3.5q61 0 115 -23t94 -63t63 -94t23 -115v-768q0 -61 -27.5 -110t-74.5 -84zM1132 1132q0 31 -11 57.5t-30.5 46t-46 30.5t-57.5 11h-570q-18 0 -30.5 -12.5t-12.5 -30.5v-1091h613q31 0 57.5 11t46 30.5
t30.5 46t11 57.5v844z" />
    <glyph glyph-name="dcaron" unicode="&#x10f;" horiz-adv-x="1163" 
d="M878 1q-14 0 -24 10t-10 24v25q-98 -19 -168.5 -32t-123.5 -20.5t-93.5 -11t-77.5 -3.5q-50 0 -94 18.5t-76.5 51t-51 76.5t-18.5 95v541q0 50 21 90.5t58 68.5l134 100q29 22 64 34.5t77 12.5h349v406q0 14 10 24t24 10h99q14 0 24 -10t10 -24v-1452q0 -14 -10 -24
t-24 -10h-99zM1194 1157q-8 -8 -17 -9.5t-17 2.5t-13.5 11.5t-5.5 17.5v308q0 14 10 24t24 10h72q14 0 24 -10t10 -24v-215q0 -26 -21 -49zM844 946h-461q-31 0 -53 -22t-22 -53v-660q0 -33 21 -54t54 -21h421q17 0 28.5 11.5t11.5 28.5v770z" />
    <glyph glyph-name="Dcroat" unicode="&#x110;" horiz-adv-x="1476" 
d="M1050 48q-31 -23 -68 -35.5t-78 -12.5h-680q-14 0 -24 10t-10 24v643h-171q-14 0 -24 10t-10 24v63q0 14 10 24t24 10h171v578q0 14 10 24t24 10h116q14 0 24 -10t10 -24v-34q148 22 253 37t180 23.5t125.5 12t88.5 3.5q61 0 115 -23t94 -63t63 -94t23 -115v-768
q0 -61 -27.5 -110t-74.5 -84zM1132 1132q0 31 -11 57.5t-30.5 46t-46 30.5t-57.5 11h-570q-18 0 -30.5 -12.5t-12.5 -30.5v-426h346q14 0 24 -10t10 -24v-63q0 -14 -10 -24t-24 -10h-346v-534h613q31 0 57.5 11t46 30.5t30.5 46t11 57.5v844z" />
    <glyph glyph-name="dcroat" unicode="&#x111;" horiz-adv-x="1163" 
d="M878 0q-14 0 -24 10t-10 24v25q-98 -19 -168.5 -32t-123.5 -20.5t-93.5 -11t-77.5 -3.5q-50 0 -94 18.5t-76.5 51t-51 76.5t-18.5 95v541q0 50 21 90.5t58 68.5l134 100q29 22 64 34.5t77 12.5h349v147h-239q-14 0 -24 10t-10 24v48q0 14 10 24t24 10h239v143q0 14 10 24
t24 10h99q14 0 24 -10t10 -24v-143h175q14 0 24 -10t10 -24v-48q0 -14 -10 -24t-24 -10h-175v-1193q0 -14 -10 -24t-24 -10h-99zM844 945h-461q-31 0 -53 -22t-22 -53v-660q0 -33 21 -54t54 -21h421q17 0 28.5 11.5t11.5 28.5v770z" />
    <glyph glyph-name="Emacron" unicode="&#x112;" horiz-adv-x="1292" 
d="M471 1567q-14 0 -24 10t-10 24v51q0 14 10 24.5t24 10.5h538q14 0 24.5 -10.5t10.5 -24.5v-51q0 -14 -10.5 -24t-24.5 -10h-538zM1090 42q-25 -19 -53.5 -30.5t-61.5 -11.5h-520q-61 0 -115 23t-94 63t-63 94t-23 115v760q0 61 27.5 110t74.5 84l164 123q31 23 68 35.5
t78 12.5h563q14 0 24 -10t10 -24v-75q0 -14 -10 -24t-24 -10h-646q-31 0 -57.5 -11t-46 -30.5t-30.5 -46t-11 -57.5v-325h770q14 0 24 -10t10 -24v-75q0 -14 -10 -24t-24 -10h-770v-376q0 -31 11 -57.5t30.5 -46t46 -30.5t57.5 -11h683q14 0 18 -11t-7 -19z" />
    <glyph glyph-name="emacron" unicode="&#x113;" horiz-adv-x="1132" 
d="M328 1227q-14 0 -24 10t-10 24v51q0 14 10 24.5t24 10.5h538q14 0 24.5 -10.5t10.5 -24.5v-51q0 -14 -10.5 -24t-24.5 -10h-538zM924 42q-25 -19 -55.5 -30.5t-67.5 -11.5h-420q-50 0 -94 18.5t-76.5 51t-51 76.5t-18.5 94v534q0 50 21 90.5t58 68.5l134 100
q29 22 64 34.5t77 12.5h281q50 0 94 -18.5t76.5 -51t51 -76.5t18.5 -94v-104q0 -51 -18.5 -94.5t-51 -76t-76.5 -51t-94 -18.5h-468v-286q0 -33 21 -54t54 -21h611q13 0 17 -12t-6 -20zM849 870q0 33 -21 54t-54 21h-391q-31 0 -53 -22t-22 -53v-239h466q34 0 54.5 20
t20.5 55v164z" />
    <glyph glyph-name="Edotaccent" unicode="&#x116;" horiz-adv-x="1292" 
d="M690 1616q-14 0 -24 10t-10 24v131q0 14 10 24t24 10h102q14 0 24 -10t10 -24v-131q0 -14 -10 -24t-24 -10h-102zM1090 42q-25 -19 -53.5 -30.5t-61.5 -11.5h-520q-61 0 -115 23t-94 63t-63 94t-23 115v760q0 61 27.5 110t74.5 84l164 123q31 23 68 35.5t78 12.5h563
q14 0 24 -10t10 -24v-75q0 -14 -10 -24t-24 -10h-646q-31 0 -57.5 -11t-46 -30.5t-30.5 -46t-11 -57.5v-325h770q14 0 24 -10t10 -24v-75q0 -14 -10 -24t-24 -10h-770v-376q0 -31 11 -57.5t30.5 -46t46 -30.5t57.5 -11h683q14 0 18 -11t-7 -19z" />
    <glyph glyph-name="edotaccent" unicode="&#x117;" horiz-adv-x="1132" 
d="M547 1276q-14 0 -24 10t-10 24v131q0 14 10 24t24 10h102q14 0 24 -10t10 -24v-131q0 -14 -10 -24t-24 -10h-102zM924 42q-25 -19 -55.5 -30.5t-67.5 -11.5h-420q-50 0 -94 18.5t-76.5 51t-51 76.5t-18.5 94v534q0 50 21 90.5t58 68.5l134 100q29 22 64 34.5t77 12.5h281
q50 0 94 -18.5t76.5 -51t51 -76.5t18.5 -94v-104q0 -51 -18.5 -94.5t-51 -76t-76.5 -51t-94 -18.5h-468v-286q0 -33 21 -54t54 -21h611q13 0 17 -12t-6 -20zM849 870q0 33 -21 54t-54 21h-391q-31 0 -53 -22t-22 -53v-239h466q34 0 54.5 20t20.5 55v164z" />
    <glyph glyph-name="Eogonek" unicode="&#x118;" horiz-adv-x="1292" 
d="M948 -372q-34 0 -63.5 13t-51 34.5t-34 51t-12.5 62.5v133q0 21 7 41t19 37h-358q-61 0 -115 23t-94 63t-63 94t-23 115v760q0 61 27.5 110t74.5 84l164 123q31 23 68 35.5t78 12.5h563q14 0 24 -10t10 -24v-75q0 -14 -10 -24t-24 -10h-646q-31 0 -57.5 -11t-46 -30.5
t-30.5 -46t-11 -57.5v-325h770q14 0 24 -10t10 -24v-75q0 -14 -10 -24t-24 -10h-770v-376q0 -31 11 -57.5t30.5 -46t46 -30.5t57.5 -11h683q14 0 18 -11t-7 -19l-93 -71q-23 -17 -49 -28.5t-56 -13.5h-3h-26q-20 0 -30.5 -12.5t-10.5 -29.5v-143q0 -20 12.5 -34.5
t35.5 -14.5h125q11 0 19 -8t8 -19v-84q0 -11 -8 -19t-19 -8h-140z" />
    <glyph glyph-name="eogonek" unicode="&#x119;" horiz-adv-x="1132" 
d="M778 -372q-34 0 -63.5 13t-51 34.5t-34 51t-12.5 62.5v133q0 21 7 41t19 37h-262q-50 0 -94 18.5t-76.5 51t-51 76.5t-18.5 94v534q0 50 21 90.5t58 68.5l134 100q29 22 64 34.5t77 12.5h281q50 0 94 -18.5t76.5 -51t51 -76.5t18.5 -94v-104q0 -51 -18.5 -94.5t-51 -76
t-76.5 -51t-94 -18.5h-468v-286q0 -33 21 -54t54 -21h611q13 0 17 -12t-6 -20l-81 -61q-23 -17 -49.5 -28t-58.5 -13q-1 -1 -4 -1h-26q-20 0 -30.5 -12.5t-10.5 -29.5v-143q0 -20 12.5 -34.5t35.5 -14.5h125q11 0 19 -8t8 -19v-84q0 -11 -8 -19t-19 -8h-140zM849 870
q0 33 -21 54t-54 21h-391q-31 0 -53 -22t-22 -53v-239h466q34 0 54.5 20t20.5 55v164z" />
    <glyph glyph-name="Ecaron" unicode="&#x11a;" horiz-adv-x="1292" 
d="M765 1532q-10 -11 -23.5 -11t-24.5 11l-301 284q-7 7 -8 15t2 14.5t10 11t16 4.5h73q22 0 38.5 -7t33.5 -22l160 -153l160 153q32 29 73 29h72q19 0 26.5 -15.5t-6.5 -29.5zM1090 42q-25 -19 -53.5 -30.5t-61.5 -11.5h-520q-61 0 -115 23t-94 63t-63 94t-23 115v760
q0 61 27.5 110t74.5 84l164 123q31 23 68 35.5t78 12.5h563q14 0 24 -10t10 -24v-75q0 -14 -10 -24t-24 -10h-646q-31 0 -57.5 -11t-46 -30.5t-30.5 -46t-11 -57.5v-325h770q14 0 24 -10t10 -24v-75q0 -14 -10 -24t-24 -10h-770v-376q0 -31 11 -57.5t30.5 -46t46 -30.5
t57.5 -11h683q14 0 18 -11t-7 -19z" />
    <glyph glyph-name="ecaron" unicode="&#x11b;" horiz-adv-x="1132" 
d="M622 1192q-10 -11 -23.5 -11t-24.5 11l-301 284q-7 7 -8 15t2 14.5t10 11t16 4.5h73q22 0 38.5 -7t33.5 -22l160 -153l160 153q32 29 73 29h72q19 0 26.5 -15.5t-6.5 -29.5zM924 42q-25 -19 -55.5 -30.5t-67.5 -11.5h-420q-50 0 -94 18.5t-76.5 51t-51 76.5t-18.5 94v534
q0 50 21 90.5t58 68.5l134 100q29 22 64 34.5t77 12.5h281q50 0 94 -18.5t76.5 -51t51 -76.5t18.5 -94v-104q0 -51 -18.5 -94.5t-51 -76t-76.5 -51t-94 -18.5h-468v-286q0 -33 21 -54t54 -21h611q13 0 17 -12t-6 -20zM849 870q0 33 -21 54t-54 21h-391q-31 0 -53 -22
t-22 -53v-239h466q34 0 54.5 20t20.5 55v164z" />
    <glyph glyph-name="uni0122" unicode="&#x122;" horiz-adv-x="1386" 
d="M1136 0q-14 0 -24 10t-10 24v34q-148 -23 -253 -37.5t-180 -23t-125.5 -12t-88.5 -3.5q-61 0 -115 23t-94 63t-63 94t-23 115v768q0 61 27.5 110t74.5 84l164 123q31 23 68 35.5t78 12.5h680q14 0 24 -10t10 -24v-75q0 -14 -10 -24t-24 -10h-763q-31 0 -57.5 -11
t-46 -30.5t-30.5 -46t-11 -57.5v-844q0 -31 11 -57.5t30.5 -46t46 -30.5t57.5 -11h570q18 0 30.5 12.5t12.5 30.5v414h-320q-14 0 -24 10t-10 24v75q0 14 10 24t24 10h470q14 0 24 -10t10 -24v-675q0 -14 -10 -24t-24 -10h-116zM659 -472q-8 -8 -17 -9t-16.5 2.5t-13 11
t-5.5 17.5v311q0 13 8.5 22.5t22.5 9.5h78q14 0 22.5 -9.5t8.5 -22.5v-217q0 -26 -21 -49z" />
    <glyph glyph-name="uni0123" unicode="&#x123;" horiz-adv-x="1163" 
d="M559 1196q-13 0 -22 9.5t-9 22.5v217q0 27 22 49l66 67q8 7 17 8.5t17 -2t13.5 -11t5.5 -17.5v-311q0 -13 -9 -22.5t-22 -9.5h-79zM798 -392q-29 -21 -64 -34.5t-77 -13.5h-442q-14 0 -24 10t-10 24v67q0 14 10 24t24 10h554q31 0 53 22t22 53v289q-98 -19 -168.5 -32
t-123.5 -20.5t-93.5 -11t-77.5 -3.5q-50 0 -94 18.5t-76.5 51t-51 76.5t-18.5 95v541q0 50 21 90.5t58 68.5l134 100q29 22 64 34.5t77 12.5h482q14 0 24 -10t10 -24v-1180q0 -49 -21 -90t-57 -68zM844 945h-461q-31 0 -53 -22t-22 -53v-660q0 -33 21 -54t54 -21h421
q17 0 28.5 11.5t11.5 28.5v770z" />
    <glyph glyph-name="Hbar" unicode="&#x126;" horiz-adv-x="1487" 
d="M1150 0q-14 0 -24 10t-10 24v630h-745v-630q0 -14 -10 -24t-24 -10h-113q-14 0 -24 10t-10 24v1077h-183q-14 0 -23 9.5t-9 23.5v68q0 14 9 23.5t23 9.5h183v141q0 14 10 24t24 10h113q14 0 24 -10t10 -24v-141h745v141q0 14 10 24t24 10h113q14 0 24 -10t10 -24v-141
h183q14 0 23 -9.5t9 -23.5v-68q0 -14 -9 -23.5t-23 -9.5h-183v-1077q0 -14 -10 -24t-24 -10h-113zM1116 1111h-745v-304h745v304z" />
    <glyph glyph-name="hbar" unicode="&#x127;" horiz-adv-x="1160" 
d="M886 0q-14 0 -24 10t-10 24v836q0 33 -21 54t-54 21h-417q-17 0 -28.5 -11.5t-11.5 -28.5v-871q0 -14 -10 -24t-24 -10h-99q-14 0 -24 10t-10 24v1193h-134q-14 0 -24 10t-10 24v48q0 14 10 24t24 10h134v143q0 14 10 24t24 10h99q14 0 24 -10t10 -24v-143h280
q14 0 24 -10t10 -24v-48q0 -14 -10 -24t-24 -10h-280v-206q98 19 168 32t122 20.5t91.5 11t77.5 3.5q52 0 96.5 -17.5t76 -49.5t49.5 -76t18 -96v-815q0 -14 -10 -24t-24 -10h-99z" />
    <glyph glyph-name="Imacron" unicode="&#x12a;" horiz-adv-x="561" 
d="M11 1567q-14 0 -24 10t-10 24v51q0 14 10 24.5t24 10.5h538q14 0 24.5 -10.5t10.5 -24.5v-51q0 -14 -10.5 -24t-24.5 -10h-538zM224 0q-14 0 -24 10t-10 24v1352q0 14 10 24t24 10h113q14 0 24 -10t10 -24v-1352q0 -14 -10 -24t-24 -10h-113z" />
    <glyph glyph-name="imacron" unicode="&#x12b;" horiz-adv-x="472" 
d="M-34 1227q-14 0 -24 10t-10 24v51q0 14 10 24.5t24 10.5h538q14 0 24.5 -10.5t10.5 -24.5v-51q0 -14 -10.5 -24t-24.5 -10h-538zM187 0q-14 0 -24 10t-10 24v1012q0 14 10 24t24 10h99q14 0 24 -10t10 -24v-1012q0 -14 -10 -24t-24 -10h-99z" />
    <glyph glyph-name="Iogonek" unicode="&#x12e;" horiz-adv-x="561" 
d="M224 -372q-34 0 -63.5 13t-51 34.5t-34 51t-12.5 62.5v133q0 33 16 62.5t43 46.5l36 22q16 10 32 14v1319q0 14 10 24t24 10h113q14 0 24 -10t10 -24v-1352q0 -14 -10 -24t-24 -10h-105q-20 0 -30.5 -12.5t-10.5 -29.5v-143q0 -20 12.5 -34.5t35.5 -14.5h125q11 0 19 -8
t8 -19v-84q0 -11 -8 -19t-19 -8h-140z" />
    <glyph glyph-name="iogonek" unicode="&#x12f;" horiz-adv-x="472" 
d="M185 1276q-14 0 -24 10t-10 24v131q0 14 10 24t24 10h102q14 0 24 -10t10 -24v-131q0 -14 -10 -24t-24 -10h-102zM204 -372q-34 0 -63.5 13t-51 34.5t-34 51t-12.5 62.5v133q0 33 16 62.5t43 46.5l36 22l15 8v985q0 14 10 24t24 10h99q14 0 24 -10t10 -24v-1012
q0 -14 -10 -24t-24 -10h-74q-20 0 -30.5 -12.5t-10.5 -29.5v-143q0 -20 12.5 -34.5t35.5 -14.5h125q11 0 19 -8t8 -19v-84q0 -11 -8 -19t-19 -8h-140z" />
    <glyph glyph-name="IJ" unicode="&#x132;" horiz-adv-x="1418" 
d="M224 0q-14 0 -24 10t-10 24v1352q0 14 10 24t24 10h113q14 0 24 -10t10 -24v-1352q0 -14 -10 -24t-24 -10h-113zM982 49q-31 -23 -68 -36t-78 -13h-228q-14 0 -24 10t-10 24v75q0 14 10 24t24 10h314q31 0 57.5 11t46 30.5t30.5 46t11 57.5v1098q0 14 10 24t24 10h113
q14 0 24 -10t10 -24v-1021q0 -60 -27.5 -109.5t-74.5 -84.5z" />
    <glyph glyph-name="ij" unicode="&#x133;" horiz-adv-x="1071" 
d="M187 1321q-14 0 -24 10t-10 24v131q0 14 10 24t24 10h99q14 0 24 -10t10 -24v-131q0 -14 -10 -24t-24 -10h-99zM187 0q-14 0 -24 10t-10 24v1012q0 14 10 24t24 10h99q14 0 24 -10t10 -24v-1012q0 -14 -10 -24t-24 -10h-99zM786 1321q-14 0 -24 10t-10 24v131q0 14 10 24
t24 10h99q14 0 24 -10t10 -24v-131q0 -14 -10 -24t-24 -10h-99zM706 -392q-29 -21 -64 -34.5t-77 -13.5h-32q-14 0 -24 10t-10 24v67q0 14 10 24t24 10h144q31 0 53 22t22 53v1276q0 14 10 24t24 10h99q14 0 24 -10t10 -24v-1180q0 -49 -21 -90t-57 -68z" />
    <glyph glyph-name="uni0136" unicode="&#x136;" horiz-adv-x="1228" 
d="M1055 0q-19 0 -36.5 8t-30.5 23l-589 657q-8 8 -17.5 4t-9.5 -14v-644q0 -14 -10 -24t-24 -10h-114q-14 0 -24 10t-10 24v1352q0 14 10 24t24 10h114q14 0 24 -10t10 -24v-622q0 -10 9.5 -14t17.5 4l576 635q27 31 68 31h120q16 0 23 -13t-4 -25l-591 -653l622 -689
q11 -13 5 -26.5t-22 -13.5h-141zM613 -472q-8 -8 -17 -9t-16.5 2.5t-13 11t-5.5 17.5v311q0 13 8.5 22.5t22.5 9.5h78q14 0 22.5 -9.5t8.5 -22.5v-217q0 -26 -21 -49z" />
    <glyph glyph-name="uni0137" unicode="&#x137;" horiz-adv-x="1003" 
d="M862 0q-20 0 -36.5 7t-30.5 24l-448 491q-8 8 -17.5 4t-9.5 -15v-477q0 -14 -10 -24t-24 -10h-99q-14 0 -24 10t-10 24v1452q0 14 10 24t24 10h99q14 0 24 -10t10 -24v-892q0 -10 9.5 -14t17.5 4l431 466q12 14 30.5 22t38.5 8h103q16 0 21.5 -13t-5.5 -24l-448 -484
l478 -520q11 -13 5 -26t-22 -13h-117zM497 -472q-8 -8 -17 -9t-16.5 2.5t-13 11t-5.5 17.5v311q0 13 8.5 22.5t22.5 9.5h78q14 0 22.5 -9.5t8.5 -22.5v-217q0 -26 -21 -49z" />
    <glyph glyph-name="kgreenlandic" unicode="&#x138;" horiz-adv-x="1003" 
d="M862 0q-39 0 -67 31l-448 491q-8 8 -17.5 4t-9.5 -15v-477q0 -14 -10 -24t-24 -10h-99q-14 0 -24 10t-10 24v1452q0 14 10 24t24 10h99q14 0 24 -10t10 -24v-892q0 -10 9.5 -14t17.5 4l431 466q13 14 30 22t36 8h125q14 0 23.5 -9.5t9.5 -23.5v-72q0 -14 -9.5 -23.5
t-23.5 -9.5h-62q-35 0 -62 -30l-327 -353l478 -520q11 -13 5 -26t-22 -13h-117z" />
    <glyph glyph-name="Lacute" unicode="&#x139;" horiz-adv-x="1082" 
d="M368 1570q-30 -30 -73 -30h-77q-19 0 -26.5 15.5t6.5 29.5l301 300q10 10 23.5 10t24.5 -10l44 -43q10 -10 10 -24.5t-10 -24.5zM997 42q-25 -19 -53.5 -30.5t-62.5 -11.5h-413q-61 0 -114.5 23.5t-93.5 63.5t-63.5 93.5t-23.5 114.5v1091q0 14 10 24t24 10h116
q14 0 24 -10t10 -24v-1098q0 -31 11 -57.5t30.5 -46t46 -30.5t57.5 -11h577q13 0 17.5 -11t-6.5 -19z" />
    <glyph glyph-name="lacute" unicode="&#x13a;" horiz-adv-x="472" 
d="M306 1670q-30 -30 -73 -30h-77q-19 0 -26.5 15.5t6.5 29.5l301 300q10 10 23.5 10t24.5 -10l44 -43q10 -10 10 -24.5t-10 -24.5zM187 0q-14 0 -24 10t-10 24v1452q0 14 10 24t24 10h99q14 0 24 -10t10 -24v-1452q0 -14 -10 -24t-24 -10h-99z" />
    <glyph glyph-name="uni013B" unicode="&#x13b;" horiz-adv-x="1082" 
d="M997 42q-25 -19 -53.5 -30.5t-62.5 -11.5h-413q-61 0 -114.5 23.5t-93.5 63.5t-63.5 93.5t-23.5 114.5v1091q0 14 10 24t24 10h116q14 0 24 -10t10 -24v-1098q0 -31 11 -57.5t30.5 -46t46 -30.5t57.5 -11h577q13 0 17.5 -11t-6.5 -19zM564 -472q-8 -8 -17 -9t-16.5 2.5
t-13 11t-5.5 17.5v311q0 13 8.5 22.5t22.5 9.5h78q14 0 22.5 -9.5t8.5 -22.5v-217q0 -26 -21 -49z" />
    <glyph glyph-name="uni013C" unicode="&#x13c;" horiz-adv-x="472" 
d="M187 0q-14 0 -24 10t-10 24v1452q0 14 10 24t24 10h99q14 0 24 -10t10 -24v-1452q0 -14 -10 -24t-24 -10h-99zM218 -472q-8 -8 -17 -9t-16.5 2.5t-13 11t-5.5 17.5v311q0 13 8.5 22.5t22.5 9.5h78q14 0 22.5 -9.5t8.5 -22.5v-217q0 -26 -21 -49z" />
    <glyph glyph-name="Lcaron" unicode="&#x13d;" horiz-adv-x="1082" 
d="M997 42q-25 -19 -53.5 -30.5t-62.5 -11.5h-413q-61 0 -114.5 23.5t-93.5 63.5t-63.5 93.5t-23.5 114.5v1091q0 14 10 24t24 10h116q14 0 24 -10t10 -24v-1098q0 -31 11 -57.5t30.5 -46t46 -30.5t57.5 -11h577q13 0 17.5 -11t-6.5 -19zM626 1056q-8 -8 -17 -9.5t-17 2.5
t-13.5 11.5t-5.5 17.5v308q0 14 10 24t24 10h72q14 0 24 -10t10 -24v-215q0 -28 -21 -49z" />
    <glyph glyph-name="lcaron" unicode="&#x13e;" horiz-adv-x="472" 
d="M187 0q-14 0 -24 10t-10 24v1452q0 14 10 24t24 10h99q14 0 24 -10t10 -24v-1452q0 -14 -10 -24t-24 -10h-99zM502 1156q-8 -8 -17 -9.5t-17 2.5t-13.5 11.5t-5.5 17.5v308q0 14 10 24t24 10h72q14 0 24 -10t10 -24v-215q0 -26 -21 -49z" />
    <glyph glyph-name="Ldot" unicode="&#x13f;" horiz-adv-x="1082" 
d="M997 42q-25 -19 -53.5 -30.5t-62.5 -11.5h-413q-61 0 -114.5 23.5t-93.5 63.5t-63.5 93.5t-23.5 114.5v1091q0 14 10 24t24 10h116q14 0 24 -10t10 -24v-1098q0 -31 11 -57.5t30.5 -46t46 -30.5t57.5 -11h577q13 0 17.5 -11t-6.5 -19zM737 677q-14 0 -24 10t-10 24v124
q0 14 10 24t24 10h117q14 0 24 -10t10 -24v-124q0 -14 -10 -24t-24 -10h-117z" />
    <glyph glyph-name="ldot" unicode="&#x140;" horiz-adv-x="864" 
d="M187 0q-14 0 -24 10t-10 24v1452q0 14 10 24t24 10h99q14 0 24 -10t10 -24v-1452q0 -14 -10 -24t-24 -10h-99zM616 677q-14 0 -24 10t-10 24v124q0 14 10 24t24 10h117q14 0 24 -10t10 -24v-124q0 -14 -10 -24t-24 -10h-117z" />
    <glyph glyph-name="Lslash" unicode="&#x141;" horiz-adv-x="1082" 
d="M997 42q-25 -19 -53.5 -30.5t-62.5 -11.5h-413q-61 0 -114.5 23.5t-93.5 63.5t-63.5 93.5t-23.5 114.5v301l-94 -47q-13 -7 -26 -2.5t-20 18.5l-23 46q-7 13 -2.5 26.5t18.5 19.5l147 74v655q0 14 10 24t24 10h116q14 0 24 -10t10 -24v-562l169 85q13 6 26.5 1.5
t19.5 -17.5l23 -46q6 -13 2 -26.5t-16 -20.5l-224 -112v-400q0 -31 11 -57.5t30.5 -46t46 -30.5t57.5 -11h577q13 0 17.5 -11t-6.5 -19z" />
    <glyph glyph-name="lslash" unicode="&#x142;" horiz-adv-x="472" 
d="M187 0q-14 0 -24 10t-10 24v627l-164 -82q-13 -7 -25.5 -2.5t-19.5 17.5l-27 55q-7 14 -2.5 25.5t16.5 18.5l222 111v682q0 14 10 24t24 10h99q14 0 24 -10t10 -24v-599l164 82q13 6 25.5 1.5t19.5 -17.5l25 -55q14 -30 -14 -44l-220 -110v-710q0 -14 -10 -24t-24 -10
h-99z" />
    <glyph glyph-name="Nacute" unicode="&#x143;" horiz-adv-x="1441" 
d="M795 1570q-30 -30 -73 -30h-77q-19 0 -26.5 15.5t6.5 29.5l301 300q10 10 23.5 10t24.5 -10l44 -43q10 -10 10 -24.5t-10 -24.5zM992 0q-20 0 -35 10t-22 27l-589 1277v-1280q0 -14 -10 -24t-24 -10h-88q-14 0 -24 10t-10 24v1352q0 14 10 24t24 10h224q20 0 35 -10
t22 -27l589 -1276v1279q0 14 10 24t24 10h89q14 0 24 -10t10 -24v-1352q0 -14 -10 -24t-24 -10h-225z" />
    <glyph glyph-name="nacute" unicode="&#x144;" horiz-adv-x="1164" 
d="M653 1230q-30 -30 -73 -30h-77q-19 0 -26.5 15.5t6.5 29.5l301 300q10 10 23.5 10t24.5 -10l44 -43q10 -10 10 -24.5t-10 -24.5zM890 0q-14 0 -24 10t-10 24v836q0 33 -21 54t-54 21h-421q-17 0 -28.5 -11.5t-11.5 -28.5v-871q0 -14 -10 -24t-24 -10h-99q-14 0 -24 10
t-10 24v1012q0 14 10 24t24 10h99q14 0 24 -10t10 -24v-25q98 19 168.5 32t123.5 20.5t93 11t78 3.5q50 0 94 -18.5t76.5 -51t51 -76.5t18.5 -95v-813q0 -14 -10 -24t-24 -10h-99z" />
    <glyph glyph-name="uni0145" unicode="&#x145;" horiz-adv-x="1441" 
d="M992 0q-20 0 -35 10t-22 27l-589 1277v-1280q0 -14 -10 -24t-24 -10h-88q-14 0 -24 10t-10 24v1352q0 14 10 24t24 10h224q20 0 35 -10t22 -27l589 -1276v1279q0 14 10 24t24 10h89q14 0 24 -10t10 -24v-1352q0 -14 -10 -24t-24 -10h-225zM710 -472q-8 -8 -17 -9
t-16.5 2.5t-13 11t-5.5 17.5v311q0 13 8.5 22.5t22.5 9.5h78q14 0 22.5 -9.5t8.5 -22.5v-217q0 -26 -21 -49z" />
    <glyph glyph-name="uni0146" unicode="&#x146;" horiz-adv-x="1164" 
d="M890 0q-14 0 -24 10t-10 24v836q0 33 -21 54t-54 21h-421q-17 0 -28.5 -11.5t-11.5 -28.5v-871q0 -14 -10 -24t-24 -10h-99q-14 0 -24 10t-10 24v1012q0 14 10 24t24 10h99q14 0 24 -10t10 -24v-25q98 19 168.5 32t123.5 20.5t93 11t78 3.5q50 0 94 -18.5t76.5 -51
t51 -76.5t18.5 -95v-813q0 -14 -10 -24t-24 -10h-99zM565 -472q-8 -8 -17 -9t-16.5 2.5t-13 11t-5.5 17.5v311q0 13 8.5 22.5t22.5 9.5h78q14 0 22.5 -9.5t8.5 -22.5v-217q0 -26 -21 -49z" />
    <glyph glyph-name="Ncaron" unicode="&#x147;" horiz-adv-x="1441" 
d="M749 1532q-10 -11 -23.5 -11t-24.5 11l-301 284q-7 7 -8 15t2 14.5t10 11t16 4.5h73q22 0 38.5 -7t33.5 -22l160 -153l160 153q32 29 73 29h72q19 0 26.5 -15.5t-6.5 -29.5zM992 0q-20 0 -35 10t-22 27l-589 1277v-1280q0 -14 -10 -24t-24 -10h-88q-14 0 -24 10t-10 24
v1352q0 14 10 24t24 10h224q20 0 35 -10t22 -27l589 -1276v1279q0 14 10 24t24 10h89q14 0 24 -10t10 -24v-1352q0 -14 -10 -24t-24 -10h-225z" />
    <glyph glyph-name="ncaron" unicode="&#x148;" horiz-adv-x="1164" 
d="M607 1192q-10 -11 -23.5 -11t-24.5 11l-301 284q-7 7 -8 15t2 14.5t10 11t16 4.5h73q22 0 38.5 -7t33.5 -22l160 -153l160 153q32 29 73 29h72q19 0 26.5 -15.5t-6.5 -29.5zM890 0q-14 0 -24 10t-10 24v836q0 33 -21 54t-54 21h-421q-17 0 -28.5 -11.5t-11.5 -28.5v-871
q0 -14 -10 -24t-24 -10h-99q-14 0 -24 10t-10 24v1012q0 14 10 24t24 10h99q14 0 24 -10t10 -24v-25q98 19 168.5 32t123.5 20.5t93 11t78 3.5q50 0 94 -18.5t76.5 -51t51 -76.5t18.5 -95v-813q0 -14 -10 -24t-24 -10h-99z" />
    <glyph glyph-name="napostrophe" unicode="&#x149;" horiz-adv-x="1287" 
d="M47 904q-8 -8 -16.5 -9t-16.5 2t-13 10.5t-5 16.5v314q0 14 9 23.5t23 9.5h74q14 0 23 -9.5t9 -23.5v-219q0 -14 -6 -27t-17 -24zM1013 0q-14 0 -24 10t-10 24v836q0 33 -21 54t-54 21h-421q-17 0 -28.5 -11.5t-11.5 -28.5v-871q0 -14 -10 -24t-24 -10h-99q-14 0 -24 10
t-10 24v1012q0 14 10 24t24 10h99q14 0 24 -10t10 -24v-25q98 19 168.5 32t123.5 20.5t93 11t78 3.5q50 0 94 -18.5t76.5 -51t51 -76.5t18.5 -95v-813q0 -14 -10 -24t-24 -10h-99z" />
    <glyph glyph-name="Eng" unicode="&#x14a;" horiz-adv-x="1482" 
d="M1073 -404q-53 -39 -120 -39h-62q-34 0 -34 34v71q0 34 34 34h152q31 0 53 22t22 53v229h-108q-18 0 -34 10t-23 27l-589 1277v-1280q0 -14 -10 -24t-24 -10h-106q-14 0 -24 10t-10 24v1352q0 14 10 24t24 10h248q18 0 34 -10t23 -27l589 -1276v1279q0 14 10 24t24 10
h106q14 0 24 -10t10 -24v-1525q0 -50 -21.5 -91.5t-57.5 -68.5z" />
    <glyph glyph-name="eng" unicode="&#x14b;" horiz-adv-x="1164" 
d="M810 -392q-29 -21 -64 -34.5t-77 -13.5h-48q-14 0 -24 10t-10 24v67q0 14 10 24t24 10h160q31 0 53 22t22 53v1100q0 33 -21 54t-54 21h-421q-17 0 -28.5 -11.5t-11.5 -28.5v-871q0 -14 -10 -24t-24 -10h-99q-14 0 -24 10t-10 24v1012q0 14 10 24t24 10h99q14 0 24 -10
t10 -24v-25q98 19 168.5 32t123.5 20.5t93 11t78 3.5q50 0 94 -18.5t76.5 -51t51 -76.5t18.5 -95v-981q0 -49 -21 -90t-57 -68z" />
    <glyph glyph-name="Omacron" unicode="&#x14c;" horiz-adv-x="1446" 
d="M453 1567q-14 0 -24 10t-10 24v51q0 14 10 24.5t24 10.5h538q14 0 24.5 -10.5t10.5 -24.5v-51q0 -14 -10.5 -24t-24.5 -10h-538zM1020 48q-31 -23 -68 -35.5t-78 -12.5h-419q-61 0 -115 23t-94 63t-63 94t-23 115v760q0 61 27.5 110t74.5 84l164 123q31 23 68 35.5
t78 12.5h419q61 0 115 -23t94 -63t63 -94t23 -115v-760q0 -61 -27.5 -110t-74.5 -84zM1102 1132q0 31 -11 57.5t-30.5 46t-46 30.5t-57.5 11h-468q-31 0 -57.5 -11t-46 -30.5t-30.5 -46t-11 -57.5v-844q0 -31 11 -57.5t30.5 -46t46 -30.5t57.5 -11h468q31 0 57.5 11t46 30.5
t30.5 46t11 57.5v844z" />
    <glyph glyph-name="omacron" unicode="&#x14d;" horiz-adv-x="1152" 
d="M322 1227q-14 0 -24 10t-10 24v51q0 14 10 24.5t24 10.5h538q14 0 24.5 -10.5t10.5 -24.5v-51q0 -14 -10.5 -24t-24.5 -10h-538zM798 48q-29 -21 -64 -34.5t-77 -13.5h-276q-50 0 -94 18.5t-76.5 51t-51 76.5t-18.5 94v534q0 50 21 90.5t58 68.5l134 100q29 22 64 34.5
t77 12.5h276q50 0 94 -18.5t76.5 -51t51 -76.5t18.5 -94v-534q0 -49 -21 -90t-57 -68zM844 870q0 33 -21 54t-54 21h-386q-31 0 -53 -22t-22 -53v-660q0 -33 21 -54t54 -21h386q31 0 53 22t22 53v660z" />
    <glyph glyph-name="Ohungarumlaut" unicode="&#x150;" horiz-adv-x="1446" 
d="M839 1540q-19 0 -27 15t3 31l206 294q9 13 23 15t25 -7l51 -34q11 -8 13.5 -22t-5.5 -26l-164 -236q-20 -30 -58 -30h-67zM527 1540q-19 0 -27 15t3 31l206 294q9 13 23 14.5t25 -6.5l51 -34q11 -8 13.5 -22t-5.5 -26l-164 -236q-20 -30 -58 -30h-67zM1020 48
q-31 -23 -68 -35.5t-78 -12.5h-419q-61 0 -115 23t-94 63t-63 94t-23 115v760q0 61 27.5 110t74.5 84l164 123q31 23 68 35.5t78 12.5h419q61 0 115 -23t94 -63t63 -94t23 -115v-760q0 -61 -27.5 -110t-74.5 -84zM1102 1132q0 31 -11 57.5t-30.5 46t-46 30.5t-57.5 11h-468
q-31 0 -57.5 -11t-46 -30.5t-30.5 -46t-11 -57.5v-844q0 -31 11 -57.5t30.5 -46t46 -30.5t57.5 -11h468q31 0 57.5 11t46 30.5t30.5 46t11 57.5v844z" />
    <glyph glyph-name="ohungarumlaut" unicode="&#x151;" horiz-adv-x="1152" 
d="M708 1200q-19 0 -27 15t3 31l206 294q9 13 23 15t25 -7l51 -34q11 -8 13.5 -22t-5.5 -26l-164 -236q-20 -30 -58 -30h-67zM396 1200q-19 0 -27 15t3 31l206 294q9 13 23 14.5t25 -6.5l51 -34q11 -8 13.5 -22t-5.5 -26l-164 -236q-20 -30 -58 -30h-67zM798 48
q-29 -21 -64 -34.5t-77 -13.5h-276q-50 0 -94 18.5t-76.5 51t-51 76.5t-18.5 94v534q0 50 21 90.5t58 68.5l134 100q29 22 64 34.5t77 12.5h276q50 0 94 -18.5t76.5 -51t51 -76.5t18.5 -94v-534q0 -49 -21 -90t-57 -68zM844 870q0 33 -21 54t-54 21h-386q-31 0 -53 -22
t-22 -53v-660q0 -33 21 -54t54 -21h386q31 0 53 22t22 53v660z" />
    <glyph glyph-name="Racute" unicode="&#x154;" horiz-adv-x="1385" 
d="M778 1570q-30 -30 -73 -30h-77q-19 0 -26.5 15.5t6.5 29.5l301 300q10 10 23.5 10t24.5 -10l44 -43q10 -10 10 -24.5t-10 -24.5zM1193 0q-32 0 -48 28l-297 528q-10 17 -24 24t-34 7h-416v-553q0 -14 -10 -24t-24 -10h-116q-14 0 -24 10t-10 24v1352q0 14 10 24t24 10
h116q14 0 24 -10t10 -24v-34q149 22 249.5 37t167.5 23.5t108.5 12t71.5 3.5q61 0 115 -23t94 -63t63 -94t23 -115v-181q0 -61 -26.5 -110t-74.5 -84l-158 -117l343 -608q8 -14 1 -23.5t-21 -9.5h-137zM1082 1132q0 31 -11 57.5t-30.5 46t-46 30.5t-57.5 11h-520
q-18 0 -30.5 -12.5t-12.5 -30.5v-504h564q30 0 56.5 11t46 30.5t30.5 46t11 57.5v257z" />
    <glyph glyph-name="racute" unicode="&#x155;" horiz-adv-x="784" 
d="M523 1230q-30 -30 -73 -30h-77q-19 0 -26.5 15.5t6.5 29.5l301 300q10 10 23.5 10t24.5 -10l44 -43q10 -10 10 -24.5t-10 -24.5zM187 0q-14 0 -24 10t-10 24v1012q0 14 10 24t24 10h99q14 0 24 -10t10 -24v-60q61 28 101.5 46t69 28.5t48.5 15t39 4.5h165q14 0 24 -10
t10 -24v-80q0 -14 -10 -24t-24 -10h-383q-17 0 -28.5 -11.5t-11.5 -28.5v-858q0 -14 -10 -24t-24 -10h-99z" />
    <glyph glyph-name="uni0156" unicode="&#x156;" horiz-adv-x="1385" 
d="M1193 0q-32 0 -48 28l-297 528q-10 17 -24 24t-34 7h-416v-553q0 -14 -10 -24t-24 -10h-116q-14 0 -24 10t-10 24v1352q0 14 10 24t24 10h116q14 0 24 -10t10 -24v-34q149 22 249.5 37t167.5 23.5t108.5 12t71.5 3.5q61 0 115 -23t94 -63t63 -94t23 -115v-181
q0 -61 -26.5 -110t-74.5 -84l-158 -117l343 -608q8 -14 1 -23.5t-21 -9.5h-137zM1082 1132q0 31 -11 57.5t-30.5 46t-46 30.5t-57.5 11h-520q-18 0 -30.5 -12.5t-12.5 -30.5v-504h564q30 0 56.5 11t46 30.5t30.5 46t11 57.5v257zM695 -472q-8 -8 -17 -9t-16.5 2.5t-13 11
t-5.5 17.5v311q0 13 8.5 22.5t22.5 9.5h78q14 0 22.5 -9.5t8.5 -22.5v-217q0 -26 -21 -49z" />
    <glyph glyph-name="uni0157" unicode="&#x157;" horiz-adv-x="784" 
d="M187 0q-14 0 -24 10t-10 24v1012q0 14 10 24t24 10h99q14 0 24 -10t10 -24v-60q61 28 101.5 46t69 28.5t48.5 15t39 4.5h165q14 0 24 -10t10 -24v-80q0 -14 -10 -24t-24 -10h-383q-17 0 -28.5 -11.5t-11.5 -28.5v-858q0 -14 -10 -24t-24 -10h-99zM218 -472q-8 -8 -17 -9
t-16.5 2.5t-13 11t-5.5 17.5v311q0 13 8.5 22.5t22.5 9.5h78q14 0 22.5 -9.5t8.5 -22.5v-217q0 -26 -21 -49z" />
    <glyph glyph-name="Rcaron" unicode="&#x158;" horiz-adv-x="1385" 
d="M732 1532q-10 -11 -23.5 -11t-24.5 11l-301 284q-7 7 -8 15t2 14.5t10 11t16 4.5h73q22 0 38.5 -7t33.5 -22l160 -153l160 153q32 29 73 29h72q19 0 26.5 -15.5t-6.5 -29.5zM1193 0q-32 0 -48 28l-297 528q-10 17 -24 24t-34 7h-416v-553q0 -14 -10 -24t-24 -10h-116
q-14 0 -24 10t-10 24v1352q0 14 10 24t24 10h116q14 0 24 -10t10 -24v-34q149 22 249.5 37t167.5 23.5t108.5 12t71.5 3.5q61 0 115 -23t94 -63t63 -94t23 -115v-181q0 -61 -26.5 -110t-74.5 -84l-158 -117l343 -608q8 -14 1 -23.5t-21 -9.5h-137zM1082 1132q0 31 -11 57.5
t-30.5 46t-46 30.5t-57.5 11h-520q-18 0 -30.5 -12.5t-12.5 -30.5v-504h564q30 0 56.5 11t46 30.5t30.5 46t11 57.5v257z" />
    <glyph glyph-name="rcaron" unicode="&#x159;" horiz-adv-x="784" 
d="M477 1192q-10 -11 -23.5 -11t-24.5 11l-301 284q-7 7 -8 15t2 14.5t10 11t16 4.5h73q22 0 38.5 -7t33.5 -22l160 -153l160 153q32 29 73 29h72q19 0 26.5 -15.5t-6.5 -29.5zM187 0q-14 0 -24 10t-10 24v1012q0 14 10 24t24 10h99q14 0 24 -10t10 -24v-60q61 28 101.5 46
t69 28.5t48.5 15t39 4.5h165q14 0 24 -10t10 -24v-80q0 -14 -10 -24t-24 -10h-383q-17 0 -28.5 -11.5t-11.5 -28.5v-858q0 -14 -10 -24t-24 -10h-99z" />
    <glyph glyph-name="Sacute" unicode="&#x15a;" horiz-adv-x="1243" 
d="M693 1570q-30 -30 -73 -30h-77q-19 0 -26.5 15.5t6.5 29.5l301 300q10 10 23.5 10t24.5 -10l44 -43q10 -10 10 -24.5t-10 -24.5zM885 49q-31 -23 -68 -36t-78 -13h-590q-14 0 -24 10t-10 24v75q0 14 10 24t24 10h673q31 0 57.5 11t46 30.5t30.5 46t11 57.5v213
q0 31 -11 57.5t-30.5 46t-46 30.5t-57.5 11h-432q-61 0 -114.5 23t-93 63t-62.5 93.5t-23 113.5v116q0 61 27.5 110t74.5 84l164 123q31 23 68 35.5t78 12.5h561q14 0 24 -10t10 -24v-75q0 -14 -10 -24t-24 -10h-644q-31 0 -57.5 -11t-46 -30.5t-30.5 -46t-11 -57.5v-192
q0 -31 11 -57.5t30.5 -46t46 -30.5t57.5 -11h432q61 0 114.5 -23t93 -63t62.5 -93.5t23 -113.5v-137q0 -60 -27.5 -109.5t-74.5 -84.5z" />
    <glyph glyph-name="sacute" unicode="&#x15b;" horiz-adv-x="1065" 
d="M618 1230q-30 -30 -73 -30h-77q-19 0 -26.5 15.5t6.5 29.5l301 300q10 10 23.5 10t24.5 -10l44 -43q10 -10 10 -24.5t-10 -24.5zM744 48q-29 -22 -64 -35t-77 -13h-442q-14 0 -24 10t-10 24v67q0 14 10 24t24 10h554q31 0 53 22t22 53v208q0 33 -21 54t-54 21h-369
q-50 0 -94 18.5t-76.5 51t-51 76.5t-18.5 94v41q0 50 21 90.5t58 68.5l134 100q29 22 64 34.5t77 12.5h432q14 0 24 -10t10 -24v-67q0 -14 -10 -24t-24 -10h-544q-31 0 -53 -22t-22 -53v-167q0 -33 21 -54t54 -21h369q50 0 94 -18.5t76.5 -51t51 -76.5t18.5 -94v-82
q0 -49 -21 -90t-58 -68z" />
    <glyph glyph-name="Scedilla" unicode="&#x15e;" horiz-adv-x="1243" 
d="M699 -352q-16 -9 -33 -14.5t-36 -5.5h-141q-11 0 -18.5 8t-7.5 19v84q0 11 7.5 19t18.5 8h142q15 0 25 10t10 24v151q0 19 -12.5 34t-35.5 15h-469q-14 0 -24 10t-10 24v75q0 14 10 24t24 10h673q31 0 57.5 11t46 30.5t30.5 46t11 57.5v213q0 31 -11 57.5t-30.5 46
t-46 30.5t-57.5 11h-432q-61 0 -114.5 23t-93 63t-62.5 93.5t-23 113.5v116q0 61 27.5 110t74.5 84l164 123q31 23 68 35.5t78 12.5h561q14 0 24 -10t10 -24v-75q0 -14 -10 -24t-24 -10h-644q-31 0 -57.5 -11t-46 -30.5t-30.5 -46t-11 -57.5v-192q0 -31 11 -57.5t30.5 -46
t46 -30.5t57.5 -11h432q61 0 114.5 -23t93 -63t62.5 -93.5t23 -113.5v-137q0 -60 -27.5 -109.5t-74.5 -84.5l-164 -122q-53 -40 -119 -48q28 -40 28 -91v-132q0 -32 -16 -61.5t-43 -46.5z" />
    <glyph glyph-name="scedilla" unicode="&#x15f;" horiz-adv-x="1065" 
d="M587 -352q-16 -9 -33 -14.5t-36 -5.5h-141q-11 0 -18.5 8t-7.5 19v84q0 11 7.5 19t18.5 8h142q15 0 25 10t10 24v151q0 19 -12.5 34t-35.5 15h-345q-14 0 -24 10t-10 24v67q0 14 10 24t24 10h554q31 0 53 22t22 53v208q0 33 -21 54t-54 21h-369q-50 0 -94 18.5t-76.5 51
t-51 76.5t-18.5 94v41q0 50 21 90.5t58 68.5l134 100q29 22 64 34.5t77 12.5h432q14 0 24 -10t10 -24v-67q0 -14 -10 -24t-24 -10h-544q-31 0 -53 -22t-22 -53v-167q0 -33 21 -54t54 -21h369q50 0 94 -18.5t76.5 -51t51 -76.5t18.5 -94v-82q0 -49 -21 -90t-58 -68l-134 -100
q-20 -15 -43.5 -26.5t-49.5 -16.5q31 -42 31 -95v-132q0 -32 -16 -61.5t-43 -46.5z" />
    <glyph glyph-name="Scaron" unicode="&#x160;" horiz-adv-x="1243" 
d="M647 1532q-10 -11 -23.5 -11t-24.5 11l-301 284q-7 7 -8 15t2 14.5t10 11t16 4.5h73q22 0 38.5 -7t33.5 -22l160 -153l160 153q32 29 73 29h72q19 0 26.5 -15.5t-6.5 -29.5zM885 49q-31 -23 -68 -36t-78 -13h-590q-14 0 -24 10t-10 24v75q0 14 10 24t24 10h673
q31 0 57.5 11t46 30.5t30.5 46t11 57.5v213q0 31 -11 57.5t-30.5 46t-46 30.5t-57.5 11h-432q-61 0 -114.5 23t-93 63t-62.5 93.5t-23 113.5v116q0 61 27.5 110t74.5 84l164 123q31 23 68 35.5t78 12.5h561q14 0 24 -10t10 -24v-75q0 -14 -10 -24t-24 -10h-644
q-31 0 -57.5 -11t-46 -30.5t-30.5 -46t-11 -57.5v-192q0 -31 11 -57.5t30.5 -46t46 -30.5t57.5 -11h432q61 0 114.5 -23t93 -63t62.5 -93.5t23 -113.5v-137q0 -60 -27.5 -109.5t-74.5 -84.5z" />
    <glyph glyph-name="scaron" unicode="&#x161;" horiz-adv-x="1065" 
d="M572 1192q-10 -11 -23.5 -11t-24.5 11l-301 284q-7 7 -8 15t2 14.5t10 11t16 4.5h73q22 0 38.5 -7t33.5 -22l160 -153l160 153q32 29 73 29h72q19 0 26.5 -15.5t-6.5 -29.5zM744 48q-29 -22 -64 -35t-77 -13h-442q-14 0 -24 10t-10 24v67q0 14 10 24t24 10h554
q31 0 53 22t22 53v208q0 33 -21 54t-54 21h-369q-50 0 -94 18.5t-76.5 51t-51 76.5t-18.5 94v41q0 50 21 90.5t58 68.5l134 100q29 22 64 34.5t77 12.5h432q14 0 24 -10t10 -24v-67q0 -14 -10 -24t-24 -10h-544q-31 0 -53 -22t-22 -53v-167q0 -33 21 -54t54 -21h369
q50 0 94 -18.5t76.5 -51t51 -76.5t18.5 -94v-82q0 -49 -21 -90t-58 -68z" />
    <glyph glyph-name="uni0162" unicode="&#x162;" horiz-adv-x="1168" 
d="M650 -352q-16 -9 -33 -14.5t-36 -5.5h-141q-11 0 -18.5 8t-7.5 19v84q0 11 7.5 19t18.5 8h142q15 0 25 10t10 24v151q0 19 -12.5 34t-35.5 15h-43q-14 0 -24 10t-10 24v1243h-443q-14 0 -24 10t-10 24v75q0 14 10 24t24 10h1070q14 0 24 -10t10 -24v-75q0 -14 -10 -24
t-24 -10h-443v-1235q32 -22 50.5 -56.5t18.5 -75.5v-132q0 -32 -16 -61.5t-43 -46.5z" />
    <glyph glyph-name="uni0163" unicode="&#x163;" horiz-adv-x="753" 
d="M458 -352q-16 -9 -33 -14.5t-36 -5.5h-141q-11 0 -18.5 8t-7.5 19v84q0 11 7.5 19t18.5 8h142q15 0 25 10t10 24v151q0 19 -12.5 34t-35.5 15h-2h-4q-47 3 -88 22.5t-71 52t-47.5 75t-17.5 90.5v936q0 17 8 31t22 22l96 58q14 8 27.5 1t13.5 -22v-186h360q14 0 24 -10
t10 -24v-67q0 -14 -10 -24t-24 -10h-360v-735q0 -33 21 -54t54 -21h319q13 0 17 -12t-6 -20l-81 -61q-23 -17 -51 -28.5t-62 -13.5q28 -40 28 -90v-132q0 -32 -16 -61.5t-43 -46.5z" />
    <glyph glyph-name="Tcaron" unicode="&#x164;" horiz-adv-x="1168" 
d="M608 1532q-10 -11 -23.5 -11t-24.5 11l-301 284q-7 7 -8 15t2 14.5t10 11t16 4.5h73q22 0 38.5 -7t33.5 -22l160 -153l160 153q32 29 73 29h72q19 0 26.5 -15.5t-6.5 -29.5zM526 0q-14 0 -24 10t-10 24v1243h-443q-14 0 -24 10t-10 24v75q0 14 10 24t24 10h1070
q14 0 24 -10t10 -24v-75q0 -14 -10 -24t-24 -10h-443v-1243q0 -14 -10 -24t-24 -10h-116z" />
    <glyph glyph-name="tcaron" unicode="&#x165;" horiz-adv-x="753" 
d="M488 1170q-8 -8 -17 -9t-17 2.5t-13.5 11t-5.5 17.5v294q0 14 10 24t24 10h73q14 0 24 -10t10 -24v-200q0 -27 -22 -49zM638 42q-25 -19 -55.5 -30.5t-67.5 -11.5h-128q-50 0 -94 18.5t-76.5 51t-51 76.5t-18.5 94v936q0 17 8 31t22 22l96 58q14 8 27.5 1t13.5 -22v-186
h360q14 0 24 -10t10 -24v-67q0 -14 -10 -24t-24 -10h-360v-735q0 -33 21 -54t54 -21h319q13 0 17 -12t-6 -20z" />
    <glyph glyph-name="Tbar" unicode="&#x166;" horiz-adv-x="1168" 
d="M526 0q-14 0 -24 10t-10 24v632h-334q-14 0 -24 10t-10 24v72q0 14 10 24t24 10h334v471h-443q-14 0 -24 10t-10 24v75q0 14 10 24t24 10h1070q14 0 24 -10t10 -24v-75q0 -14 -10 -24t-24 -10h-443v-471h334q14 0 24 -10t10 -24v-72q0 -14 -10 -24t-24 -10h-334v-632
q0 -14 -10 -24t-24 -10h-116z" />
    <glyph glyph-name="tbar" unicode="&#x167;" horiz-adv-x="795" 
d="M663 35q-43 -35 -100 -35h-143q-50 0 -93.5 19t-76 51.5t-51.5 76t-19 93.5v281h-158q-14 0 -24 10t-10 24v62q0 14 10 24t24 10h158v530q0 14 7.5 26t19.5 20l100 60q14 8 27.5 0.5t13.5 -21.5v-186h360q14 0 24 -10t10 -24v-67q0 -14 -10 -24t-24 -10h-360v-294h360
q14 0 24 -10t10 -24v-62q0 -14 -10 -24t-24 -10h-360v-311q0 -31 21.5 -53t53.5 -22h319q13 0 17 -12t-6 -20z" />
    <glyph glyph-name="Umacron" unicode="&#x16a;" horiz-adv-x="1468" 
d="M462 1567q-14 0 -24 10t-10 24v51q0 14 10 24.5t24 10.5h538q14 0 24.5 -10.5t10.5 -24.5v-51q0 -14 -10.5 -24t-24.5 -10h-538zM1128 0q-14 0 -24 10t-10 24v35q-148 -23 -250 -37.5t-172.5 -23.5t-118 -12.5t-85.5 -3.5q-61 0 -114.5 23t-93.5 63t-63.5 94t-23.5 116
v1098q0 14 10 24t24 10h116q14 0 24 -10t10 -24v-1097q0 -31 11 -57.5t30.5 -46t46 -30.5t57.5 -11h549q18 0 30.5 12.5t12.5 30.5v1199q0 14 10 24t24 10h116q14 0 24 -10t10 -24v-1352q0 -14 -10 -24t-24 -10h-116z" />
    <glyph glyph-name="umacron" unicode="&#x16b;" horiz-adv-x="1169" 
d="M313 1227q-14 0 -24 10t-10 24v51q0 14 10 24.5t24 10.5h538q14 0 24.5 -10.5t10.5 -24.5v-51q0 -14 -10.5 -24t-24.5 -10h-538zM884 0q-14 0 -24 10t-10 24v25q-98 -19 -168.5 -32t-123.5 -20.5t-93.5 -11t-77.5 -3.5q-50 0 -94 18.5t-76.5 51t-51 76.5t-18.5 95v813
q0 14 10 24t24 10h99q14 0 24 -10t10 -24v-836q0 -33 21 -54t54 -21h421q17 0 28.5 11.5t11.5 28.5v871q0 14 10 24t24 10h99q14 0 24 -10t10 -24v-1012q0 -14 -10 -24t-24 -10h-99z" />
    <glyph glyph-name="Uring" unicode="&#x16e;" horiz-adv-x="1468" 
d="M935 1700q0 -43 -15.5 -79.5t-42.5 -63t-64 -41.5t-81 -15q-43 0 -80 15t-64.5 41.5t-43 63t-15.5 79.5q0 42 15.5 78.5t43 62.5t64.5 41t80 15q44 0 81 -15t64 -41t42.5 -62.5t15.5 -78.5zM732 1604q41 0 68 27t27 69t-27 68.5t-68 26.5q-39 0 -65.5 -26.5t-26.5 -68.5
t25.5 -69t66.5 -27zM1128 0q-14 0 -24 10t-10 24v35q-148 -23 -250 -37.5t-172.5 -23.5t-118 -12.5t-85.5 -3.5q-61 0 -114.5 23t-93.5 63t-63.5 94t-23.5 116v1098q0 14 10 24t24 10h116q14 0 24 -10t10 -24v-1097q0 -31 11 -57.5t30.5 -46t46 -30.5t57.5 -11h549
q18 0 30.5 12.5t12.5 30.5v1199q0 14 10 24t24 10h116q14 0 24 -10t10 -24v-1352q0 -14 -10 -24t-24 -10h-116z" />
    <glyph glyph-name="uring" unicode="&#x16f;" horiz-adv-x="1169" 
d="M786 1360q0 -43 -15.5 -79.5t-42.5 -63t-64 -41.5t-81 -15q-43 0 -80 15t-64.5 41.5t-43 63t-15.5 79.5q0 42 15.5 78.5t43 62.5t64.5 41t80 15q44 0 81 -15t64 -41t42.5 -62.5t15.5 -78.5zM583 1264q41 0 68 27t27 69t-27 68.5t-68 26.5q-39 0 -65.5 -26.5t-26.5 -68.5
t25.5 -69t66.5 -27zM884 0q-14 0 -24 10t-10 24v25q-98 -19 -168.5 -32t-123.5 -20.5t-93.5 -11t-77.5 -3.5q-50 0 -94 18.5t-76.5 51t-51 76.5t-18.5 95v813q0 14 10 24t24 10h99q14 0 24 -10t10 -24v-836q0 -33 21 -54t54 -21h421q17 0 28.5 11.5t11.5 28.5v871
q0 14 10 24t24 10h99q14 0 24 -10t10 -24v-1012q0 -14 -10 -24t-24 -10h-99z" />
    <glyph glyph-name="Uhungarumlaut" unicode="&#x170;" horiz-adv-x="1468" 
d="M848 1540q-19 0 -27 15t3 31l206 294q9 13 23 15t25 -7l51 -34q11 -8 13.5 -22t-5.5 -26l-164 -236q-20 -30 -58 -30h-67zM536 1540q-19 0 -27 15t3 31l206 294q9 13 23 14.5t25 -6.5l51 -34q11 -8 13.5 -22t-5.5 -26l-164 -236q-20 -30 -58 -30h-67zM1128 0
q-14 0 -24 10t-10 24v35q-148 -23 -250 -37.5t-172.5 -23.5t-118 -12.5t-85.5 -3.5q-61 0 -114.5 23t-93.5 63t-63.5 94t-23.5 116v1098q0 14 10 24t24 10h116q14 0 24 -10t10 -24v-1097q0 -31 11 -57.5t30.5 -46t46 -30.5t57.5 -11h549q18 0 30.5 12.5t12.5 30.5v1199
q0 14 10 24t24 10h116q14 0 24 -10t10 -24v-1352q0 -14 -10 -24t-24 -10h-116z" />
    <glyph glyph-name="uhungarumlaut" unicode="&#x171;" horiz-adv-x="1169" 
d="M699 1200q-19 0 -27 15t3 31l206 294q9 13 23 15t25 -7l51 -34q11 -8 13.5 -22t-5.5 -26l-164 -236q-20 -30 -58 -30h-67zM387 1200q-19 0 -27 15t3 31l206 294q9 13 23 14.5t25 -6.5l51 -34q11 -8 13.5 -22t-5.5 -26l-164 -236q-20 -30 -58 -30h-67zM884 0q-14 0 -24 10
t-10 24v25q-98 -19 -168.5 -32t-123.5 -20.5t-93.5 -11t-77.5 -3.5q-50 0 -94 18.5t-76.5 51t-51 76.5t-18.5 95v813q0 14 10 24t24 10h99q14 0 24 -10t10 -24v-836q0 -33 21 -54t54 -21h421q17 0 28.5 11.5t11.5 28.5v871q0 14 10 24t24 10h99q14 0 24 -10t10 -24v-1012
q0 -14 -10 -24t-24 -10h-99z" />
    <glyph glyph-name="Uogonek" unicode="&#x172;" horiz-adv-x="1468" 
d="M1150 -372q-34 0 -63.5 13t-51 34.5t-34 51t-12.5 62.5v133q0 33 16 62.5t43 46.5l36 22q5 3 10 5v11q-148 -23 -250 -37.5t-172.5 -23.5t-118 -12.5t-85.5 -3.5q-61 0 -114.5 23t-93.5 63t-63.5 94t-23.5 116v1098q0 14 10 24t24 10h116q14 0 24 -10t10 -24v-1097
q0 -31 11 -57.5t30.5 -46t46 -30.5t57.5 -11h549q18 0 30.5 12.5t12.5 30.5v1199q0 14 10 24t24 10h116q14 0 24 -10t10 -24v-1352q0 -14 -10 -24t-24 -10h-86q-20 0 -30.5 -12.5t-10.5 -29.5v-143q0 -20 12.5 -34.5t35.5 -14.5h125q11 0 19 -8t8 -19v-84q0 -11 -8 -19
t-19 -8h-140z" />
    <glyph glyph-name="uogonek" unicode="&#x173;" horiz-adv-x="1169" 
d="M886 -372q-34 0 -63.5 13t-51 34.5t-34 51t-12.5 62.5v133q0 33 16 62.5t43 46.5l36 22q-90 -17 -155.5 -29t-115 -19t-88 -10t-74.5 -3q-50 0 -94 18.5t-76.5 51t-51 76.5t-18.5 95v813q0 14 10 24t24 10h99q14 0 24 -10t10 -24v-836q0 -33 21 -54t54 -21h421
q17 0 28.5 11.5t11.5 28.5v871q0 14 10 24t24 10h99q14 0 24 -10t10 -24v-1012q0 -14 -10 -24t-24 -10h-89q-20 0 -30.5 -12.5t-10.5 -29.5v-143q0 -20 12.5 -34.5t35.5 -14.5h125q11 0 19 -8t8 -19v-84q0 -11 -8 -19t-19 -8h-140z" />
    <glyph glyph-name="Wcircumflex" unicode="&#x174;" horiz-adv-x="1870" 
d="M1168 1548q-41 0 -73 29l-160 153l-160 -153q-17 -15 -33.5 -22t-38.5 -7h-73q-9 0 -16 4.5t-10 11t-2 14.5t8 15l301 284q11 11 24.5 11t23.5 -11l301 -284q14 -14 6.5 -29.5t-26.5 -15.5h-72zM1268 0q-16 0 -27.5 10t-14.5 26l-291 1305l-286 -1305q-3 -16 -15 -26
t-28 -10h-206q-16 0 -27.5 10t-14.5 26l-305 1347q-4 17 3.5 27t23.5 10h112q15 0 27 -9t15 -25l279 -1317l280 1314q3 16 15.5 26.5t29.5 10.5h204q17 0 30 -10.5t16 -26.5l281 -1314l279 1317q3 16 15.5 25t26.5 9h97q16 0 25 -10t5 -27l-303 -1347q-3 -16 -15 -26
t-28 -10h-203z" />
    <glyph glyph-name="wcircumflex" unicode="&#x175;" horiz-adv-x="1646" 
d="M1057 1208q-41 0 -73 29l-160 153l-160 -153q-17 -15 -33.5 -22t-38.5 -7h-73q-9 0 -16 4.5t-10 11t-2 14.5t8 15l301 284q11 11 24.5 11t23.5 -11l301 -284q14 -14 6.5 -29.5t-26.5 -15.5h-72zM1108 0q-17 0 -28.5 8.5t-15.5 26.5l-246 930l-241 -930
q-4 -18 -15.5 -26.5t-28.5 -8.5h-165q-36 0 -43 34l-272 1012q-5 17 3 25.5t24 8.5h95q17 0 28.5 -8t15.5 -26l242 -930l240 930q7 34 43 34h160q36 0 45 -34l243 -930l249 930q7 34 43 34h85q16 0 24 -8.5t3 -25.5l-275 -1012q-10 -34 -43 -34h-170z" />
    <glyph glyph-name="Ycircumflex" unicode="&#x176;" horiz-adv-x="1087" 
d="M778 1548q-41 0 -73 29l-160 153l-160 -153q-17 -15 -33.5 -22t-38.5 -7h-73q-9 0 -16 4.5t-10 11t-2 14.5t8 15l301 284q11 11 24.5 11t23.5 -11l301 -284q14 -14 6.5 -29.5t-26.5 -15.5h-72zM485 0q-14 0 -24 10t-10 24v479q0 13 -2.5 26t-9.5 25l-460 821
q-8 14 -1 24.5t22 10.5h136q32 0 48 -28l363 -661l367 661q16 28 46 28h128q14 0 20.5 -11t-0.5 -24l-459 -821q-14 -25 -14 -51v-479q0 -14 -10 -24t-24 -10h-116z" />
    <glyph glyph-name="ycircumflex" unicode="&#x177;" horiz-adv-x="1169" 
d="M816 1208q-41 0 -73 29l-160 153l-160 -153q-17 -15 -33.5 -22t-38.5 -7h-73q-9 0 -16 4.5t-10 11t-2 14.5t8 15l301 284q11 11 24.5 11t23.5 -11l301 -284q14 -14 6.5 -29.5t-26.5 -15.5h-72zM907 -433q-9 -9 -19 -11t-18.5 1.5t-14 12t-5.5 20.5v469
q-98 -19 -168.5 -32t-123.5 -20.5t-93.5 -11t-77.5 -3.5q-50 0 -94 18.5t-76.5 51t-51 76.5t-18.5 95v813q0 14 10 24t24 10h99q14 0 24 -10t10 -24v-836q0 -33 21 -54t54 -21h421q17 0 28.5 11.5t11.5 28.5v871q0 14 10 24t24 10h99q14 0 24 -10t10 -24v-1328
q0 -23 -8 -39.5t-21 -30.5z" />
    <glyph glyph-name="Zacute" unicode="&#x179;" horiz-adv-x="1248" 
d="M694 1570q-30 -30 -73 -30h-77q-19 0 -26.5 15.5t6.5 29.5l301 300q10 10 23.5 10t24.5 -10l44 -43q10 -10 10 -24.5t-10 -24.5zM99 0q-14 0 -24 10t-10 24v69q0 26 16 45l882 1129h-815q-14 0 -24 10t-10 24v75q0 14 10 24t24 10h1001q14 0 24 -10t10 -24v-69
q0 -26 -16 -45l-883 -1129h868q14 0 24 -10t10 -24v-75q0 -14 -10 -24t-24 -10h-1053z" />
    <glyph glyph-name="zacute" unicode="&#x17a;" horiz-adv-x="994" 
d="M567 1230q-30 -30 -73 -30h-77q-19 0 -26.5 15.5t6.5 29.5l301 300q10 10 23.5 10t24.5 -10l44 -43q10 -10 10 -24.5t-10 -24.5zM109 0q-14 0 -24 10t-10 24v82q0 9 3.5 18t8.5 17l642 794h-603q-14 0 -24 10t-10 24v67q0 14 10 24t24 10h750q14 0 24 -10t10 -24v-81
q0 -18 -13 -36l-639 -794h635q14 0 24 -10t10 -24v-67q0 -14 -10 -24t-24 -10h-784z" />
    <glyph glyph-name="Zdotaccent" unicode="&#x17b;" horiz-adv-x="1248" 
d="M573 1616q-14 0 -24 10t-10 24v131q0 14 10 24t24 10h102q14 0 24 -10t10 -24v-131q0 -14 -10 -24t-24 -10h-102zM99 0q-14 0 -24 10t-10 24v69q0 26 16 45l882 1129h-815q-14 0 -24 10t-10 24v75q0 14 10 24t24 10h1001q14 0 24 -10t10 -24v-69q0 -26 -16 -45
l-883 -1129h868q14 0 24 -10t10 -24v-75q0 -14 -10 -24t-24 -10h-1053z" />
    <glyph glyph-name="zdotaccent" unicode="&#x17c;" horiz-adv-x="994" 
d="M446 1276q-14 0 -24 10t-10 24v131q0 14 10 24t24 10h102q14 0 24 -10t10 -24v-131q0 -14 -10 -24t-24 -10h-102zM109 0q-14 0 -24 10t-10 24v82q0 9 3.5 18t8.5 17l642 794h-603q-14 0 -24 10t-10 24v67q0 14 10 24t24 10h750q14 0 24 -10t10 -24v-81q0 -18 -13 -36
l-639 -794h635q14 0 24 -10t10 -24v-67q0 -14 -10 -24t-24 -10h-784z" />
    <glyph glyph-name="Zcaron" unicode="&#x17d;" horiz-adv-x="1248" 
d="M648 1532q-10 -11 -23.5 -11t-24.5 11l-301 284q-7 7 -8 15t2 14.5t10 11t16 4.5h73q22 0 38.5 -7t33.5 -22l160 -153l160 153q32 29 73 29h72q19 0 26.5 -15.5t-6.5 -29.5zM99 0q-14 0 -24 10t-10 24v69q0 26 16 45l882 1129h-815q-14 0 -24 10t-10 24v75q0 14 10 24
t24 10h1001q14 0 24 -10t10 -24v-69q0 -26 -16 -45l-883 -1129h868q14 0 24 -10t10 -24v-75q0 -14 -10 -24t-24 -10h-1053z" />
    <glyph glyph-name="zcaron" unicode="&#x17e;" horiz-adv-x="994" 
d="M521 1192q-10 -11 -23.5 -11t-24.5 11l-301 284q-7 7 -8 15t2 14.5t10 11t16 4.5h73q22 0 38.5 -7t33.5 -22l160 -153l160 153q32 29 73 29h72q19 0 26.5 -15.5t-6.5 -29.5zM109 0q-14 0 -24 10t-10 24v82q0 9 3.5 18t8.5 17l642 794h-603q-14 0 -24 10t-10 24v67
q0 14 10 24t24 10h750q14 0 24 -10t10 -24v-81q0 -18 -13 -36l-639 -794h635q14 0 24 -10t10 -24v-67q0 -14 -10 -24t-24 -10h-784z" />
    <glyph glyph-name="uni02D0" unicode="&#x2d0;" horiz-adv-x="1764" 
d="M708 1272h348l-174 -302zM708 -42l174 303l174 -303h-348z" />
    <glyph glyph-name="gravecomb" unicode="&#x300;" horiz-adv-x="-30" 
d="M-512 1200q-43 0 -73 30l-223 223q-10 10 -10 24.5t10 24.5l44 43q11 10 24.5 10t23.5 -10l301 -300q14 -14 6.5 -29.5t-26.5 -15.5h-77z" />
    <glyph glyph-name="acutecomb" unicode="&#x301;" horiz-adv-x="-30" 
d="M-461 1230q-30 -30 -73 -30h-77q-19 0 -26.5 15.5t6.5 29.5l301 300q10 10 23.5 10t24.5 -10l44 -43q10 -10 10 -24.5t-10 -24.5z" />
    <glyph glyph-name="uni0302" unicode="&#x302;" horiz-adv-x="-30" 
d="M-282 1208q-41 0 -73 29l-160 153l-160 -153q-17 -15 -33.5 -22t-38.5 -7h-73q-9 0 -16 4.5t-10 11t-2 14.5t8 15l301 284q11 11 24.5 11t23.5 -11l301 -284q14 -14 6.5 -29.5t-26.5 -15.5h-72z" />
    <glyph glyph-name="tildecomb" unicode="&#x303;" horiz-adv-x="-30" 
d="M-271 1370q15 -18 -1 -36q-92 -89 -215 -89q-42 0 -75.5 11.5t-64 26t-59.5 26t-62 11.5q-38 0 -68.5 -13t-53.5 -34q-14 -12 -25.5 -14.5t-22.5 11.5l-42 53q-7 8 -6.5 18t8.5 18q46 44 98.5 66t115.5 22q42 0 76 -11.5t64.5 -25.5t59.5 -25.5t62 -11.5q38 0 68 13
t53 34q14 11 25.5 14t22.5 -11z" />
    <glyph glyph-name="uni0304" unicode="&#x304;" horiz-adv-x="-30" 
d="M-883 1227q-14 0 -24 10t-10 24v51q0 14 10 24.5t24 10.5h538q14 0 24.5 -10.5t10.5 -24.5v-51q0 -14 -10.5 -24t-24.5 -10h-538z" />
    <glyph glyph-name="uni0306" unicode="&#x306;" horiz-adv-x="-30" 
d="M-322 1515q16 0 16 -16q-2 -63 -25.5 -114.5t-64 -88t-96 -56t-122.5 -19.5t-123 19.5t-96.5 56t-64 88t-25.5 114.5q0 16 16 16h111q16 0 16 -16q4 -72 48.5 -115.5t117.5 -43.5q36 0 66 11.5t52 32.5t34.5 50t14.5 65q0 16 16 16h109z" />
    <glyph glyph-name="uni0307" unicode="&#x307;" horiz-adv-x="-30" 
d="M-566 1276q-14 0 -24 10t-10 24v131q0 14 10 24t24 10h102q14 0 24 -10t10 -24v-131q0 -14 -10 -24t-24 -10h-102z" />
    <glyph glyph-name="uni0308" unicode="&#x308;" horiz-adv-x="-30" 
d="M-855 1276q-14 0 -24 10t-10 24v131q0 14 10 24t24 10h102q14 0 24 -10t10 -24v-131q0 -14 -10 -24t-24 -10h-102zM-477 1276q-14 0 -24 10t-10 24v131q0 14 10 24t24 10h102q14 0 24 -10t10 -24v-131q0 -14 -10 -24t-24 -10h-102z" />
    <glyph glyph-name="uni030A" unicode="&#x30a;" horiz-adv-x="-30" 
d="M-387 1360q0 -43 -15.5 -79.5t-42.5 -63t-64 -41.5t-81 -15q-43 0 -80 15t-64.5 41.5t-43 63t-15.5 79.5q0 42 15.5 78.5t43 62.5t64.5 41t80 15q44 0 81 -15t64 -41t42.5 -62.5t15.5 -78.5zM-590 1264q41 0 68 27t27 69t-27 68.5t-68 26.5q-39 0 -65.5 -26.5
t-26.5 -68.5t25.5 -69t66.5 -27z" />
    <glyph glyph-name="uni030B" unicode="&#x30b;" horiz-adv-x="-30" 
d="M-474 1200q-19 0 -27 15t3 31l206 294q9 13 23 15t25 -7l51 -34q11 -8 13.5 -22t-5.5 -26l-164 -236q-20 -30 -58 -30h-67zM-786 1200q-19 0 -27 15t3 31l206 294q9 13 23 14.5t25 -6.5l51 -34q11 -8 13.5 -22t-5.5 -26l-164 -236q-20 -30 -58 -30h-67z" />
    <glyph glyph-name="uni030C" unicode="&#x30c;" horiz-adv-x="-30" 
d="M-491 1192q-10 -11 -23.5 -11t-24.5 11l-301 284q-7 7 -8 15t2 14.5t10 11t16 4.5h73q22 0 38.5 -7t33.5 -22l160 -153l160 153q32 29 73 29h72q19 0 26.5 -15.5t-6.5 -29.5z" />
    <glyph glyph-name="uni0312" unicode="&#x312;" horiz-adv-x="-30" 
d="M-654 1196q-13 0 -22 9.5t-9 22.5v217q0 27 22 49l66 67q8 7 17 8.5t17 -2t13.5 -11t5.5 -17.5v-311q0 -13 -9 -22.5t-22 -9.5h-79z" />
    <glyph glyph-name="uni0326" unicode="&#x326;" horiz-adv-x="-30" 
d="M-631 -472q-8 -8 -17 -9t-16.5 2.5t-13 11t-5.5 17.5v311q0 13 8.5 22.5t22.5 9.5h78q14 0 22.5 -9.5t8.5 -22.5v-217q0 -26 -21 -49z" />
    <glyph glyph-name="uni0327" unicode="&#x327;" horiz-adv-x="-30" 
d="M-441 -352q-16 -9 -33 -14.5t-36 -5.5h-141q-11 0 -18.5 8t-7.5 19v84q0 11 7.5 19t18.5 8h142q15 0 25 10t10 24v151q0 19 -12.5 34t-35.5 15h-2q-11 0 -11 13v47q0 11 11 11h17q34 0 63 -13t51 -34.5t34.5 -51t12.5 -62.5v-132q0 -32 -16 -61.5t-43 -46.5z" />
    <glyph glyph-name="uni0328" unicode="&#x328;" horiz-adv-x="-30" 
d="M-530 -372q-34 0 -63.5 13t-51 34.5t-34 51t-12.5 62.5v133q0 33 16 62.5t43 46.5l36 22q16 9 33 14.5t36 5.5h31q11 0 11 -12v-48q0 -13 -11 -13h-26q-20 0 -30.5 -12.5t-10.5 -29.5v-143q0 -20 12.5 -34.5t35.5 -14.5h125q11 0 19 -8t8 -19v-84q0 -11 -8 -19t-19 -8
h-140z" />
    <glyph glyph-name="uni0335" unicode="&#x335;" horiz-adv-x="-30" 
d="M-588 1227q-14 0 -24 10t-10 24v48q0 14 10 24t24 10h581q14 0 24 -10t10 -24v-48q0 -14 -10 -24t-24 -10h-581z" />
    <glyph glyph-name="uni0337" unicode="&#x337;" horiz-adv-x="-30" 
d="M-574 555q-13 -7 -25.5 -2.5t-19.5 17.5l-27 55q-7 14 -2.5 25.5t16.5 18.5l553 276q13 6 25.5 1.5t19.5 -17.5l25 -55q14 -30 -14 -44z" />
    <glyph glyph-name="Alpha" unicode="&#x391;" horiz-adv-x="1210" 
d="M1047 0q-16 0 -28.5 9t-17.5 26l-117 375h-567l-117 -375q-11 -35 -45 -35h-98q-16 0 -24 12t-3 26l426 1348q5 17 17.5 25.5t28.5 8.5h208q16 0 28.5 -8.5t17.5 -25.5l424 -1348q5 -14 -3 -26t-24 -12h-106zM601 1329l-241 -775h481z" />
    <glyph glyph-name="Beta" unicode="&#x392;" horiz-adv-x="1433" 
d="M1021 47q-28 -21 -65 -34t-75 -13h-657q-14 0 -24 10t-10 24v1352q0 14 10 24t24 10h116q14 0 24 -10t10 -24v-34q148 22 249.5 37t171.5 23.5t116.5 12t84.5 3.5q58 0 108.5 -21t88 -58.5t59 -88.5t21.5 -110v-129q0 -58 -24.5 -105.5t-69.5 -81.5l-64 -49
q78 -40 121 -106t43 -149v-167q0 -58 -25.5 -109.5t-68.5 -83.5zM1090 1148q0 57 -36 93t-93 36h-544q-43 0 -43 -43v-427h587q27 0 51 10t41 27t27 40.5t10 50.5v213zM1096 536q0 56 -36 92t-93 36h-593v-521h593q27 0 51 10t41 27t27 41t10 51v264z" />
    <glyph glyph-name="Gamma" unicode="&#x393;" horiz-adv-x="1151" 
d="M202 0q-14 0 -24 10t-10 24v1021q0 61 27.5 110t74.5 84l164 123q31 23 68 35.5t78 12.5h482q14 0 24 -10t10 -24v-75q0 -14 -10 -24t-24 -10h-565q-31 0 -57.5 -11t-46 -30.5t-30.5 -46t-11 -57.5v-1098q0 -14 -10 -24t-24 -10h-116z" />
    <glyph glyph-name="uni0394" unicode="&#x394;" horiz-adv-x="1344" 
d="M54 0q-15 0 -23.5 11t-3.5 25l503 1350q6 17 18 25.5t27 8.5h195q33 0 45 -34l502 -1350q5 -13 -3 -24.5t-23 -11.5h-1237zM671 1328l-431 -1186h860z" />
    <glyph glyph-name="Epsilon" unicode="&#x395;" horiz-adv-x="1292" 
d="M1090 42q-25 -19 -53.5 -30.5t-61.5 -11.5h-520q-61 0 -115 23t-94 63t-63 94t-23 115v760q0 61 27.5 110t74.5 84l164 123q31 23 68 35.5t78 12.5h563q14 0 24 -10t10 -24v-75q0 -14 -10 -24t-24 -10h-646q-31 0 -57.5 -11t-46 -30.5t-30.5 -46t-11 -57.5v-325h770
q14 0 24 -10t10 -24v-75q0 -14 -10 -24t-24 -10h-770v-376q0 -31 11 -57.5t30.5 -46t46 -30.5t57.5 -11h683q14 0 18 -11t-7 -19z" />
    <glyph glyph-name="Zeta" unicode="&#x396;" horiz-adv-x="1248" 
d="M99 0q-14 0 -24 10t-10 24v69q0 26 16 45l882 1129h-815q-14 0 -24 10t-10 24v75q0 14 10 24t24 10h1001q14 0 24 -10t10 -24v-69q0 -26 -16 -45l-883 -1129h868q14 0 24 -10t10 -24v-75q0 -14 -10 -24t-24 -10h-1053z" />
    <glyph glyph-name="Eta" unicode="&#x397;" horiz-adv-x="1487" 
d="M1150 0q-14 0 -24 10t-10 24v630h-745v-630q0 -14 -10 -24t-24 -10h-113q-14 0 -24 10t-10 24v1352q0 14 10 24t24 10h113q14 0 24 -10t10 -24v-579h745v579q0 14 10 24t24 10h113q14 0 24 -10t10 -24v-1352q0 -14 -10 -24t-24 -10h-113z" />
    <glyph glyph-name="Theta" unicode="&#x398;" horiz-adv-x="1446" 
d="M1020 48q-31 -23 -68 -35.5t-78 -12.5h-419q-61 0 -115 23t-94 63t-63 94t-23 115v760q0 61 27.5 110t74.5 84l164 123q31 23 68 35.5t78 12.5h419q61 0 115 -23t94 -63t63 -94t23 -115v-760q0 -61 -27.5 -110t-74.5 -84zM1102 1132q0 31 -11 57.5t-30.5 46t-46 30.5
t-57.5 11h-468q-31 0 -57.5 -11t-46 -30.5t-30.5 -46t-11 -57.5v-844q0 -31 11 -57.5t30.5 -46t46 -30.5t57.5 -11h468q31 0 57.5 11t46 30.5t30.5 46t11 57.5v844zM951 690q-25 -20 -53.5 -31.5t-61.5 -11.5h-407q-14 0 -18.5 11.5t6.5 19.5l82 65q25 20 53.5 31t61.5 11
h408q13 0 17.5 -11t-6.5 -19z" />
    <glyph glyph-name="Iota" unicode="&#x399;" horiz-adv-x="561" 
d="M224 0q-14 0 -24 10t-10 24v1352q0 14 10 24t24 10h113q14 0 24 -10t10 -24v-1352q0 -14 -10 -24t-24 -10h-113z" />
    <glyph glyph-name="Kappa" unicode="&#x39a;" horiz-adv-x="1228" 
d="M1055 0q-19 0 -36.5 8t-30.5 23l-589 657q-8 8 -17.5 4t-9.5 -14v-644q0 -14 -10 -24t-24 -10h-114q-14 0 -24 10t-10 24v1352q0 14 10 24t24 10h114q14 0 24 -10t10 -24v-622q0 -10 9.5 -14t17.5 4l576 635q29 31 68 31h120q16 0 23 -13t-4 -25l-591 -653l622 -689
q11 -12 5 -26t-22 -14h-141z" />
    <glyph glyph-name="Lambda" unicode="&#x39b;" horiz-adv-x="1210" 
d="M1047 0q-16 0 -28.5 9t-17.5 26l-400 1294l-401 -1294q-11 -35 -45 -35h-98q-16 0 -24 12t-3 26l426 1348q5 17 17.5 25.5t28.5 8.5h208q16 0 28.5 -8.5t17.5 -25.5l424 -1348q5 -14 -3 -26t-24 -12h-106z" />
    <glyph glyph-name="Mu" unicode="&#x39c;" horiz-adv-x="1762" 
d="M1450 0q-14 0 -24 10t-10 24v1320l-384 -1321q-5 -14 -16.5 -23.5t-25.5 -9.5h-219q-16 0 -27 9.5t-15 23.5l-388 1326v-1325q0 -14 -10 -24t-24 -10h-83q-14 0 -24 10t-10 24v1352q0 14 10 24t24 10h246q32 0 42 -31l378 -1303l376 1303q8 31 42 31h230q14 0 24 -10
t10 -24v-1352q0 -14 -10 -24t-24 -10h-88z" />
    <glyph glyph-name="Nu" unicode="&#x39d;" horiz-adv-x="1441" 
d="M992 0q-20 0 -34.5 10t-22.5 27l-589 1277v-1280q0 -14 -10 -24t-24 -10h-88q-14 0 -24 10t-10 24v1352q0 14 10 24t24 10h224q20 0 34.5 -10t22.5 -27l589 -1276v1279q0 14 10 24t24 10h89q14 0 24 -10t10 -24v-1352q0 -14 -10 -24t-24 -10h-225z" />
    <glyph glyph-name="Xi" unicode="&#x39e;" horiz-adv-x="1313" 
d="M1118 1322q-25 -20 -53.5 -31.5t-61.5 -11.5h-840q-13 0 -17.5 11.5t6.5 19.5l82 67q24 20 53 31t62 11h839q14 0 18 -11t-7 -19zM1008 706q-25 -20 -53.5 -31.5t-61.5 -11.5h-642q-13 0 -17.5 11.5t6.5 19.5l82 67q24 20 53 31t62 11h641q14 0 18 -11t-7 -19zM1123 43
q-25 -20 -53.5 -31.5t-61.5 -11.5h-888q-13 0 -17.5 11.5t6.5 19.5l82 67q24 20 53 31t62 11h887q14 0 18 -11t-7 -19z" />
    <glyph glyph-name="Omicron" unicode="&#x39f;" horiz-adv-x="1446" 
d="M1020 48q-31 -23 -68 -35.5t-78 -12.5h-419q-61 0 -115 23t-94 63t-63 94t-23 115v760q0 61 27.5 110t74.5 84l164 123q31 23 68 35.5t78 12.5h419q61 0 115 -23t94 -63t63 -94t23 -115v-760q0 -61 -27.5 -110t-74.5 -84zM1102 1132q0 31 -11 57.5t-30.5 46t-46 30.5
t-57.5 11h-468q-31 0 -57.5 -11t-46 -30.5t-30.5 -46t-11 -57.5v-844q0 -31 11 -57.5t30.5 -46t46 -30.5t57.5 -11h468q31 0 57.5 11t46 30.5t30.5 46t11 57.5v844z" />
    <glyph glyph-name="Pi" unicode="&#x3a0;" horiz-adv-x="1484" 
d="M1144 0q-14 0 -24 10t-10 24v1243h-613q-31 0 -57.5 -11t-46 -30.5t-30.5 -46t-11 -57.5v-1098q0 -14 -10 -24t-24 -10h-116q-14 0 -24 10t-10 24v1021q0 61 27.5 110t74.5 84l164 123q31 23 68 35.5t78 12.5h666q27 0 37.5 -15.5t10.5 -43.5v-1327q0 -14 -10 -24
t-24 -10h-116z" />
    <glyph glyph-name="Rho" unicode="&#x3a1;" horiz-adv-x="1360" 
d="M1000 619q-30 -23 -67.5 -36t-77.5 -13h-481v-536q0 -14 -10 -24t-24 -10h-116q-14 0 -24 10t-10 24v1352q0 14 10 24t24 10h116q14 0 24 -10t10 -24v-34q149 22 249.5 37t167.5 23.5t108.5 12t71.5 3.5q61 0 115 -23t94 -63t63 -94t23 -115v-198q0 -61 -26.5 -110
t-74.5 -84zM1082 1132q0 31 -11 57.5t-30.5 46t-46 30.5t-57.5 11h-520q-18 0 -30.5 -12.5t-12.5 -30.5v-521h564q30 0 56.5 11t46 30.5t30.5 46t11 57.5v274z" />
    <glyph glyph-name="Sigma" unicode="&#x3a3;" horiz-adv-x="1277" 
d="M96 0q-14 0 -23.5 9.5t-9.5 23.5v206q0 15 9 25.5t22 18.5l676 432l-676 428q-13 8 -22 18t-9 26v201q0 14 9.5 23.5t23.5 9.5h1085q14 0 23.5 -9.5t9.5 -23.5v-82q0 -14 -9.5 -23.5t-23.5 -9.5h-1000l664 -421q13 -8 22.5 -19t9.5 -25v-192q0 -15 -9.5 -25.5
t-22.5 -18.5l-666 -427h1002q14 0 23.5 -9.5t9.5 -23.5v-79q0 -14 -9.5 -23.5t-23.5 -9.5h-1085z" />
    <glyph glyph-name="Tau" unicode="&#x3a4;" horiz-adv-x="1168" 
d="M526 0q-14 0 -24 10t-10 24v1243h-443q-14 0 -24 10t-10 24v75q0 14 10 24t24 10h1070q14 0 24 -10t10 -24v-75q0 -14 -10 -24t-24 -10h-443v-1243q0 -14 -10 -24t-24 -10h-116z" />
    <glyph glyph-name="Upsilon" unicode="&#x3a5;" horiz-adv-x="1087" 
d="M485 0q-14 0 -24 10t-10 24v479q0 13 -2.5 26t-9.5 25l-460 821q-8 14 -1 24.5t22 10.5h136q32 0 48 -28l363 -661l367 661q16 28 46 28h128q14 0 20.5 -11t-0.5 -24l-459 -821q-14 -25 -14 -51v-479q0 -14 -10 -24t-24 -10h-116z" />
    <glyph glyph-name="Phi" unicode="&#x3a6;" horiz-adv-x="1344" 
d="M1028 253q-29 -22 -64 -34.5t-77 -12.5h-128v-174q0 -14 -9.5 -23t-23.5 -9h-108q-14 0 -23.5 9t-9.5 23v174h-236q-51 0 -95.5 19t-77 51.5t-51.5 77t-19 95.5v467q0 51 21.5 92.5t59.5 70.5l129 95q29 22 64 34.5t77 12.5h128v166q0 14 9.5 23.5t23.5 9.5h108
q14 0 23.5 -9.5t9.5 -23.5v-166h235q51 0 95.5 -18.5t77.5 -51.5t52 -77.5t19 -95.5v-467q0 -51 -22 -92.5t-59 -69.5zM585 1088h-235q-33 0 -57 -24t-24 -57v-587q0 -36 22.5 -58.5t58.5 -22.5h235v749zM1075 1007q0 36 -23 58.5t-59 22.5h-234v-749h234q34 0 58 24t24 57
v587z" />
    <glyph glyph-name="Chi" unicode="&#x3a7;" horiz-adv-x="1194" 
d="M1007 0q-28 0 -44 24l-363 542l-369 -542q-16 -24 -46 -24h-126q-14 0 -21 12t1 24l465 680l-456 667q-8 12 -2 24.5t20 12.5h138q28 0 45 -25l361 -530l360 530q17 25 45 25h126q15 0 21.5 -12.5t-1.5 -24.5l-456 -666l464 -681q8 -12 2 -24t-20 -12h-144z" />
    <glyph glyph-name="Psi" unicode="&#x3a8;" horiz-adv-x="1444" 
d="M668 0q-14 0 -23.5 9t-9.5 23v343h-195q-62 0 -117 23.5t-95.5 64t-64 95t-23.5 117.5v712q0 14 9.5 23.5t23.5 9.5h110q14 0 23 -9.5t9 -23.5v-684q0 -99 45 -142.5t135 -43.5h140v870q0 14 9.5 23.5t23.5 9.5h106q14 0 23.5 -9.5t9.5 -23.5v-870h141q50 0 84.5 13
t55.5 37t30.5 58.5t9.5 77.5v684q0 14 9.5 23.5t23.5 9.5h109q14 0 23.5 -9.5t9.5 -23.5v-646q0 -63 -28.5 -113.5t-76.5 -85.5l-158 -118q-32 -23 -69.5 -36t-79.5 -13h-84v-343q0 -14 -9.5 -23t-23.5 -9h-106z" />
    <glyph glyph-name="uni03A9" unicode="&#x3a9;" horiz-adv-x="1344" 
d="M807 0q-35 0 -59 21.5t-24 56.5v339q0 36 20.5 57t53.5 21h90q39 0 67.5 14t47.5 39t28.5 58.5t9.5 71.5v448q0 41 -14.5 70t-39 47t-58 26t-71.5 8h-405q-31 0 -58.5 -12t-48.5 -32.5t-33 -48t-12 -58.5v-448q0 -38 9.5 -71.5t28 -58t47 -39t67.5 -14.5h90
q33 0 53.5 -21t20.5 -57v-339q0 -35 -23.5 -56.5t-58.5 -21.5h-398q-15 0 -24 8.5t-9 23.5v78q0 15 9 24t24 9h308v210h-15q-67 0 -124.5 22.5t-99.5 62t-65.5 94.5t-23.5 121v401q0 62 28.5 113t76.5 86l158 119q31 23 69 36t79 13h397q62 0 117 -23.5t96 -64.5t64.5 -95.5
t23.5 -117.5v-469q0 -65 -25 -119.5t-68.5 -94t-102 -62t-124.5 -22.5h-10v-210h310q14 0 23.5 -9t9.5 -24v-78q0 -15 -9.5 -23.5t-23.5 -8.5h-399z" />
    <glyph glyph-name="alpha" unicode="&#x3b1;" horiz-adv-x="1219" 
d="M878 0q-14 0 -24 10t-10 24v25q-98 -19 -168.5 -32t-123.5 -20.5t-93.5 -11t-77.5 -3.5q-50 0 -94 18.5t-76.5 51t-51 76.5t-18.5 95v541q0 50 21 90.5t58 68.5l134 100q29 22 64 34.5t77 12.5h482q14 0 24 -10t10 -24v-916h167q14 0 24 -10t10 -24v-62q0 -14 -10 -24
t-24 -10h-300zM844 945h-461q-31 0 -53 -22t-22 -53v-660q0 -33 21 -54t54 -21h421q17 0 28.5 11.5t11.5 28.5v770z" />
    <glyph glyph-name="beta" unicode="&#x3b2;" horiz-adv-x="1231" 
d="M201 -438q-14 0 -23.5 9.5t-9.5 23.5v1458q0 63 28.5 113.5t76.5 85.5l159 119q31 23 65.5 36t76.5 13h190q66 0 122 -19.5t97 -56t64 -88.5t23 -117v-118q0 -58 -25.5 -108t-69.5 -83l-69 -52q78 -35 124.5 -98.5t46.5 -154.5v-244q0 -60 -21.5 -111t-59 -89
t-88.5 -59.5t-110 -21.5q-36 0 -73 2.5t-87.5 10t-121 22t-173.5 37.5v-477q0 -14 -9.5 -23.5t-23.5 -9.5h-109zM897 532q0 28 -10 52.5t-28 42t-42 27.5t-52 10h-257q-14 0 -23.5 9.5t-9.5 23.5v75q0 14 9.5 23.5t23.5 9.5h224q32 0 61 8t50.5 24.5t34.5 41.5t13 58v207
q0 29 -10.5 53.5t-28.5 42t-42 27.5t-51 10h-232q-39 0 -72 -9.5t-58 -28.5t-39 -47.5t-14 -66.5v-913q0 -30 18.5 -48.5t45.5 -18.5h332q32 0 60.5 8t50 24.5t34 41t12.5 58.5v255z" />
    <glyph glyph-name="gamma" unicode="&#x3b3;" horiz-adv-x="1087" 
d="M485 -440q-14 0 -24 10t-10 24v519q0 13 -2.5 26t-9.5 25l-460 881q-8 14 -1 24.5t22 10.5h136q32 0 48 -28l363 -721l367 721q16 28 46 28h128q14 0 20.5 -11t-0.5 -24l-459 -881q-14 -25 -14 -51v-519q0 -14 -10 -24t-24 -10h-116z" />
    <glyph glyph-name="delta" unicode="&#x3b4;" horiz-adv-x="1155" 
d="M804 46q-38 -28 -79 -37t-97 -9h-244q-51 0 -95.5 19t-77 51.5t-51.5 76.5t-19 95v413q0 54 27.5 99t68.5 75l113 84q-32 23 -54.5 59.5t-22.5 85.5v56q0 51 22 92.5t59 70.5l95 74q38 30 81 49.5t93 19.5h208q14 0 23.5 -9t9.5 -24v-68q0 -15 -9.5 -24t-23.5 -9h-309
q-21 0 -36 -8.5t-25 -22.5t-15 -32.5t-5 -39.5v-153q0 -35 23 -52t59 -17h248q51 0 95.5 -19t77 -52t51.5 -77.5t19 -95.5v-413q0 -51 -21.5 -92.5t-59.5 -69.5zM846 746q0 36 -22.5 58.5t-58.5 22.5h-374q-34 0 -57.5 -24t-23.5 -57v-532q0 -36 22.5 -59t58.5 -23h374
q33 0 57 24t24 58v532z" />
    <glyph glyph-name="epsilon" unicode="&#x3b5;" horiz-adv-x="1116" 
d="M469 0q-35 0 -67 10.5t-58 30.5l-118 86q-33 24 -59 63.5t-26 98.5v105q0 69 34 124t95 84l-12 9q-26 19 -47 38t-36.5 40.5t-24 47t-8.5 57.5v54q0 49 17.5 91.5t48.5 73.5t73 48.5t92 17.5h374q49 0 82 -10t60 -31l80 -61q9 -7 5.5 -17.5t-15.5 -10.5h-547
q-44 0 -69.5 -25.5t-25.5 -69.5v-108q0 -22 6 -42.5t17.5 -36t28.5 -25t40 -9.5h430q12 0 20.5 -8.5t8.5 -20.5v-72q0 -12 -8.5 -20t-20.5 -8h-428q-44 0 -69.5 -25.5t-25.5 -70.5v-184q0 -18 7.5 -35.5t20.5 -30.5t30 -21t37 -8h375q53 0 84.5 -8.5t57.5 -28.5l80 -63
q8 -6 6.5 -17.5t-17.5 -11.5h-528z" />
    <glyph glyph-name="zeta" unicode="&#x3b6;" horiz-adv-x="1143" 
d="M904 -393q-31 -22 -69 -34.5t-86 -12.5h-225q-15 0 -24 9t-9 24v71q0 16 9 24.5t24 8.5h267q33 0 62.5 5t52 17.5t35.5 34t13 54.5v68q0 39 -8 63t-26 37.5t-47.5 18.5t-73.5 5h-297q-68 0 -125.5 18.5t-99.5 54t-65.5 88t-23.5 120.5v815q0 53 17.5 96t50.5 78l12 13
h-193q-15 0 -24 8.5t-9 24.5v71q0 15 9 24t24 9h877q14 0 23.5 -9t9.5 -24v-71q0 -16 -9.5 -24.5t-23.5 -8.5h-590v-981q0 -47 11 -78t32 -50.5t52 -27.5t70 -8h324q61 0 112 -19t87.5 -52t57 -77t20.5 -94v-25q0 -53 -25 -97t-70 -76z" />
    <glyph glyph-name="eta" unicode="&#x3b7;" horiz-adv-x="1164" 
d="M890 -440q-14 0 -24 10t-10 24v1276q0 33 -21 54t-54 21h-421q-17 0 -28.5 -11.5t-11.5 -28.5v-871q0 -14 -10 -24t-24 -10h-99q-14 0 -24 10t-10 24v1012q0 14 10 24t24 10h99q14 0 24 -10t10 -24v-25q98 19 168.5 32t123.5 20.5t93 11t78 3.5q50 0 94 -18.5t76.5 -51
t51 -76.5t18.5 -95v-1253q0 -14 -10 -24t-24 -10h-99z" />
    <glyph glyph-name="theta" unicode="&#x3b8;" horiz-adv-x="1286" 
d="M863 48q-31 -23 -69 -35.5t-79 -12.5h-255q-62 0 -117 23t-95.5 63.5t-64 95.5t-23.5 118v753q0 27 7.5 55t21.5 54.5t33.5 49.5t42.5 40l158 118q31 23 69 36t79 13h255q63 0 117.5 -23.5t95 -64t64 -95t23.5 -117.5v-754q0 -60 -29.5 -112.5t-74.5 -86.5zM953 1093
q0 39 -9.5 73t-28 59.5t-47 40.5t-67.5 15h-278q-39 0 -73.5 -9t-60.5 -27.5t-41 -47.5t-15 -68v-344h620v308zM953 648h-620v-322q0 -38 9 -72t27.5 -60t47.5 -41.5t68 -15.5h278q39 0 73.5 9t60.5 27.5t41 47.5t15 68v359z" />
    <glyph glyph-name="iota" unicode="&#x3b9;" horiz-adv-x="472" 
d="M187 0q-14 0 -24 10t-10 24v1012q0 14 10 24t24 10h99q14 0 24 -10t10 -24v-1012q0 -14 -10 -24t-24 -10h-99z" />
    <glyph glyph-name="kappa" unicode="&#x3ba;" horiz-adv-x="1003" 
d="M862 0q-39 0 -67 31l-448 491q-8 8 -17.5 4t-9.5 -15v-477q0 -14 -10 -24t-24 -10h-99q-14 0 -24 10t-10 24v1012q0 14 10 24t24 10h99q14 0 24 -10t10 -24v-452q0 -10 9.5 -14t17.5 4l431 466q13 14 30 22t36 8h125q14 0 23.5 -9.5t9.5 -23.5v-72q0 -14 -9.5 -23.5
t-23.5 -9.5h-94l-357 -383l478 -520q11 -13 5 -26t-22 -13h-117z" />
    <glyph glyph-name="lambda" unicode="&#x3bb;" horiz-adv-x="1014" 
d="M863 0q-34 0 -46 34l-309 928l-310 -928q-6 -17 -16.5 -25.5t-28.5 -8.5h-99q-15 0 -21.5 9.5t-1.5 24.5l349 1012q12 34 47 34h40l-57 163q-23 65 -57.5 99t-87.5 34h-69q-14 0 -23.5 9.5t-9.5 23.5v68q0 14 9.5 23.5t23.5 9.5h70q58 0 103 -12.5t78.5 -37.5t57.5 -63
t42 -89l436 -1274q5 -15 -1.5 -24.5t-22.5 -9.5h-96z" />
    <glyph glyph-name="uni03BC" unicode="&#x3bc;" horiz-adv-x="1171" 
d="M891 0q-14 0 -23 10t-11 24l-3 25q-73 -16 -133.5 -28.5t-111.5 -21t-94.5 -13t-83.5 -4.5q-44 0 -74.5 11t-50.5 33l14 -442q1 -14 -9.5 -24t-24.5 -10h-99q-14 0 -24 10t-10 24v1452q0 14 10 24t24 10h99q14 0 24 -10t10 -24v-836q0 -33 21 -54t54 -21h416
q17 0 28.5 11.5t11.5 28.5v871q0 14 10 24t24 10h99q14 0 24 -10t10 -24v-1012q0 -14 -10 -24t-24 -10h-93z" />
    <glyph glyph-name="nu" unicode="&#x3bd;" horiz-adv-x="1088" 
d="M506 0q-36 0 -48 35l-314 909h-99q-14 0 -23.5 9.5t-9.5 23.5v70q0 14 9.5 23.5t23.5 9.5h185q36 0 47 -34l310 -929l311 929q11 34 47 34h92q16 0 22.5 -9.5t1.5 -24.5l-348 -1011q-12 -35 -48 -35h-159z" />
    <glyph glyph-name="xi" unicode="&#x3be;" horiz-adv-x="1142" 
d="M885 -406q-29 -20 -64 -27t-73 -7h-225q-15 0 -24 9t-9 24v71q0 16 9 24.5t24 8.5h274q84 0 120.5 31.5t36.5 105.5v68q0 57 -36.5 77.5t-114.5 20.5h-310q-75 0 -133 21t-97 58t-59.5 88.5t-20.5 111.5v281q0 63 28.5 117t71.5 89l24 20q-35 17 -58.5 43t-38 57t-21 64
t-6.5 65v82q0 50 17.5 95t50.5 78l13 13h-189q-15 0 -24 8.5t-9 24.5v71q0 15 9 24t24 9h881q14 0 23.5 -9t9.5 -24v-71q0 -16 -9.5 -24.5t-23.5 -8.5h-599v-268q0 -76 44 -117t120 -41h349q14 0 23.5 -9t9.5 -24v-71q0 -15 -9.5 -24t-23.5 -9h-347q-166 0 -166 -158v-270
q0 -42 11.5 -71.5t32 -47.5t49 -26.5t62.5 -8.5h318q139 0 218 -60.5t79 -178.5v-30q0 -54 -24.5 -96.5t-69.5 -74.5z" />
    <glyph glyph-name="omicron" unicode="&#x3bf;" horiz-adv-x="1152" 
d="M798 48q-29 -21 -64 -34.5t-77 -13.5h-276q-50 0 -94 18.5t-76.5 51t-51 76.5t-18.5 94v534q0 50 21 90.5t58 68.5l134 100q29 22 64 34.5t77 12.5h276q50 0 94 -18.5t76.5 -51t51 -76.5t18.5 -94v-534q0 -49 -21 -90t-57 -68zM844 870q0 33 -21 54t-54 21h-386
q-31 0 -53 -22t-22 -53v-660q0 -33 21 -54t54 -21h386q31 0 53 22t22 53v660z" />
    <glyph glyph-name="rho" unicode="&#x3c1;" horiz-adv-x="1155" 
d="M174 -440q-14 0 -23.5 9.5t-9.5 23.5v1182q0 51 21.5 92.5t59.5 69.5l129 96q29 22 64.5 34.5t76.5 12.5h278q51 0 95.5 -19t77.5 -51.5t52 -77t19 -95.5v-571q0 -57 -20 -107.5t-55 -88t-82 -59t-102 -21.5q-28 0 -62.5 3.5t-85 12.5t-123 24.5t-175.5 39.5v-477
q0 -14 -9.5 -23.5t-23.5 -9.5h-102zM846 865q0 36 -23 59t-59 23h-374q-33 0 -57 -24t-24 -58v-662q0 -25 18.5 -40.5t41.5 -15.5h372q47 0 76 28.5t29 75.5v614z" />
    <glyph glyph-name="sigma" unicode="&#x3c3;" horiz-adv-x="1189" 
d="M804 46q-29 -21 -64 -33.5t-77 -12.5h-297q-44 0 -85 18.5t-72 50t-49.5 73t-18.5 87.5v546q0 51 22 92t60 70l129 96q38 28 82.5 37.5t101.5 9.5h617q14 0 23.5 -9t9.5 -24v-68q0 -15 -9.5 -23.5t-23.5 -8.5h-175q18 -23 27 -52t9 -58v-533q0 -51 -21.5 -92.5
t-59.5 -69.5zM846 865q0 36 -22 59t-58 23h-375q-34 0 -57.5 -24t-23.5 -58v-651q0 -36 22.5 -59t58.5 -23h374q33 0 57 24t24 58v651z" />
    <glyph glyph-name="tau" unicode="&#x3c4;" horiz-adv-x="925" 
d="M634 0q-58 0 -107.5 14.5t-85.5 43.5t-56 72.5t-20 102.5v714h-325q-15 0 -24 8.5t-9 23.5v68q0 15 9 24t24 9h845q15 0 24 -9t9 -24v-68q0 -15 -9 -23.5t-24 -8.5h-354v-732q0 -36 22.5 -58.5t58.5 -22.5h226q15 0 24 -9t9 -24v-69q0 -15 -9 -23.5t-24 -8.5h-204z" />
    <glyph glyph-name="upsilon" unicode="&#x3c5;" horiz-adv-x="1150" 
d="M798 47q-29 -21 -64 -34t-76 -13h-275q-52 0 -96.5 17.5t-76.5 49t-50.5 75t-18.5 95.5v810q0 14 9.5 23.5t23.5 9.5h102q14 0 23.5 -9.5t9.5 -23.5v-833q0 -36 22.5 -59t58.5 -23h370q33 0 57 24t24 57v835q0 26 17 32t34 -8l86 -80q14 -14 22.5 -31t8.5 -43v-613
q0 -51 -22 -93t-60 -70z" />
    <glyph glyph-name="phi" unicode="&#x3c6;" horiz-adv-x="1454" 
d="M681 -441q-14 0 -23.5 9.5t-9.5 23.5v408h-264q-51 0 -95.5 19t-77 51.5t-51.5 76.5t-19 95v533q0 51 22 92t59 70l104 80q36 28 76.5 45.5t89.5 17.5h98q14 0 23.5 -9t9.5 -24v-68q0 -14 -9.5 -23t-23.5 -9h-199q-15 0 -30 -6.5t-26.5 -17.5t-18.5 -26t-7 -32v-646
q0 -39 23 -63t59 -24h257v632q0 113 84 176l123 92q63 48 143 48h72q51 0 95.5 -19t77 -51.5t51.5 -77t19 -95.5v-533q0 -60 -28 -103.5t-72 -75.5l-110 -79q-36 -26 -76 -36t-97 -10h-119v-408q0 -14 -9.5 -23.5t-23.5 -9.5h-97zM1145 865q0 36 -22.5 59t-58.5 23h-172
q-33 0 -57 -24t-24 -58v-733h253q33 0 57 24t24 58v651z" />
    <glyph glyph-name="chi" unicode="&#x3c7;" horiz-adv-x="1194" 
d="M1007 -339q-28 0 -44 24l-363 542l-369 -542q-16 -24 -46 -24h-126q-14 0 -21 12t1 24l465 680l-456 667q-8 12 -2 24.5t20 12.5h138q28 0 45 -25l361 -530l360 530q17 25 45 25h126q15 0 21.5 -12.5t-1.5 -24.5l-456 -666l464 -681q8 -12 2 -24t-20 -12h-144z" />
    <glyph glyph-name="psi" unicode="&#x3c8;" horiz-adv-x="1381" 
d="M642 -443q-14 0 -23.5 9.5t-9.5 23.5v410h-172q-60 0 -113.5 15t-94 47t-64.5 81t-24 117v787q0 14 9.5 23.5t23.5 9.5h100q14 0 23.5 -9.5t9.5 -23.5v-804q0 -47 28.5 -76t76.5 -29h197v909q0 14 9.5 23.5t23.5 9.5h96q14 0 23.5 -9.5t9.5 -23.5v-909h198q22 0 41 8
t33.5 22.5t22.5 33.5t8 41v804q0 14 9.5 23.5t23.5 9.5h100q14 0 23.5 -9.5t9.5 -23.5v-688q0 -37 -4 -67t-14.5 -54.5t-28.5 -46t-45 -41.5l-116 -86q-26 -19 -50.5 -31.5t-49 -19.5t-51.5 -10t-57 -3h-53v-410q0 -14 -9.5 -23.5t-23.5 -9.5h-96z" />
    <glyph glyph-name="omega" unicode="&#x3c9;" horiz-adv-x="1381" 
d="M1030 47q-29 -22 -64.5 -34.5t-76.5 -12.5h-43q-66 0 -118 25.5t-83 75.5q-44 -33 -77 -54t-60.5 -32t-53 -15t-53.5 -4h-23q-52 0 -95.5 18t-75 50t-49 76t-17.5 97v810q0 14 9.5 23.5t23.5 9.5h98q14 0 23 -9.5t9 -23.5v-833q0 -36 23 -59t59 -23h142q33 0 56.5 24
t23.5 57v834q0 14 9.5 23.5t23.5 9.5h98q14 0 23.5 -9.5t9.5 -23.5v-833q0 -36 22.5 -59t58.5 -23h143q33 0 56.5 24t23.5 57v838q0 23 15 29t29 -6l90 -73q30 -24 30 -59v-637q0 -51 -22 -93t-60 -70z" />
    <glyph glyph-name="uni0401" unicode="&#x401;" horiz-adv-x="1292" 
d="M483 1616q-14 0 -24 10t-10 24v131q0 14 10 24t24 10h102q14 0 24 -10t10 -24v-131q0 -14 -10 -24t-24 -10h-102zM861 1616q-14 0 -24 10t-10 24v131q0 14 10 24t24 10h102q14 0 24 -10t10 -24v-131q0 -14 -10 -24t-24 -10h-102zM1090 42q-25 -19 -53.5 -30.5
t-61.5 -11.5h-520q-61 0 -115 23t-94 63t-63 94t-23 115v760q0 61 27.5 110t74.5 84l164 123q31 23 68 35.5t78 12.5h563q14 0 24 -10t10 -24v-75q0 -14 -10 -24t-24 -10h-646q-31 0 -57.5 -11t-46 -30.5t-30.5 -46t-11 -57.5v-325h770q14 0 24 -10t10 -24v-75
q0 -14 -10 -24t-24 -10h-770v-376q0 -31 11 -57.5t30.5 -46t46 -30.5t57.5 -11h683q14 0 18 -11t-7 -19z" />
    <glyph glyph-name="uni0410" unicode="&#x410;" horiz-adv-x="1210" 
d="M1047 0q-16 0 -28.5 9t-17.5 26l-117 375h-567l-117 -375q-11 -35 -45 -35h-98q-16 0 -24 12t-3 26l426 1348q5 17 17.5 25.5t28.5 8.5h208q16 0 28.5 -8.5t17.5 -25.5l424 -1348q5 -14 -3 -26t-24 -12h-106zM601 1329l-241 -775h481z" />
    <glyph glyph-name="uni0411" unicode="&#x411;" horiz-adv-x="1433" 
d="M1021 47q-28 -21 -65 -34t-75 -13h-657q-14 0 -24 10t-10 24v1352q0 14 10 24t24 10h862q14 0 23.5 -9.5t9.5 -23.5v-76q0 -14 -9.5 -23.5t-23.5 -9.5h-712v-471h630q65 0 116 -20.5t86.5 -55t54 -80t18.5 -94.5v-194q0 -58 -25.5 -109.5t-68.5 -83.5zM1096 536
q0 56 -36 92t-93 36h-593v-521h593q27 0 51 10t41 27t27 41t10 51v264z" />
    <glyph glyph-name="uni0412" unicode="&#x412;" horiz-adv-x="1433" 
d="M1021 47q-28 -21 -65 -34t-75 -13h-657q-14 0 -24 10t-10 24v1352q0 14 10 24t24 10h116q14 0 24 -10t10 -24v-34q148 22 249.5 37t171.5 23.5t116.5 12t84.5 3.5q58 0 108.5 -21t88 -58.5t59 -88.5t21.5 -110v-129q0 -58 -24.5 -105.5t-69.5 -81.5l-64 -49
q78 -40 121 -106t43 -149v-167q0 -58 -25.5 -109.5t-68.5 -83.5zM1090 1148q0 57 -36 93t-93 36h-544q-43 0 -43 -43v-427h587q27 0 51 10t41 27t27 40.5t10 50.5v213zM1096 536q0 56 -36 92t-93 36h-593v-521h593q27 0 51 10t41 27t27 41t10 51v264z" />
    <glyph glyph-name="uni0413" unicode="&#x413;" horiz-adv-x="1174" 
d="M199 0q-14 0 -23.5 9t-9.5 23v1020q0 61 27 113t74 87l161 119q31 23 68 36t79 13h511q14 0 23.5 -9.5t9.5 -23.5v-77q0 -14 -9.5 -23.5t-23.5 -9.5h-585q-32 0 -60 -11.5t-48.5 -32t-32 -48t-11.5 -59.5v-1094q0 -14 -9.5 -23t-23.5 -9h-117z" />
    <glyph glyph-name="uni0414" unicode="&#x414;" horiz-adv-x="1432" 
d="M1285 -440q-14 0 -23.5 9.5t-9.5 23.5v338q0 35 -15 52t-50 17h-952q-34 0 -48 -17.5t-14 -51.5v-338q0 -14 -9.5 -23.5t-23.5 -9.5h-118q-14 0 -23 9.5t-9 23.5v350q0 48 7 85.5t24.5 62.5t48 38t78.5 13h50q45 0 70.5 26.5t25.5 71.5v813q0 63 28.5 113t76.5 86
l158 119q31 23 69 36t79 13h504q14 0 23.5 -9.5t9.5 -23.5v-1245h21q52 0 86 -13t53 -38.5t26.5 -65t7.5 -91.5v-341q0 -14 -9.5 -23.5t-23.5 -9.5h-118zM1060 1277h-430q-32 0 -60 -12t-48.5 -32.5t-32 -48t-11.5 -59.5v-761q0 -78 -20.5 -131.5t-64.5 -90.5h667v1135z" />
    <glyph glyph-name="uni0415" unicode="&#x415;" horiz-adv-x="1292" 
d="M1090 42q-25 -19 -53.5 -30.5t-61.5 -11.5h-520q-61 0 -115 23t-94 63t-63 94t-23 115v760q0 61 27.5 110t74.5 84l164 123q31 23 68 35.5t78 12.5h563q14 0 24 -10t10 -24v-75q0 -14 -10 -24t-24 -10h-646q-31 0 -57.5 -11t-46 -30.5t-30.5 -46t-11 -57.5v-325h770
q14 0 24 -10t10 -24v-75q0 -14 -10 -24t-24 -10h-770v-376q0 -31 11 -57.5t30.5 -46t46 -30.5t57.5 -11h683q14 0 18 -11t-7 -19z" />
    <glyph glyph-name="uni0416" unicode="&#x416;" horiz-adv-x="1894" 
d="M1721 0q-39 0 -67 31l-589 657q-7 8 -17 4.5t-10 -12.5v-646q0 -14 -10 -24t-24 -10h-114q-14 0 -24 10t-10 24v646q0 9 -10 12.5t-17 -4.5l-589 -657q-28 -31 -67 -31h-141q-16 0 -22 14t5 26l622 689l-591 653q-11 12 -4 25t23 13h120q39 0 68 -31l576 -635
q8 -8 17.5 -4.5t9.5 12.5v624q0 14 10 24t24 10h114q14 0 24 -10t10 -24v-622q0 -10 9.5 -14t17.5 4l576 635q29 31 68 31h120q16 0 23 -13t-4 -25l-591 -653l622 -689q11 -12 5 -26t-22 -14h-141z" />
    <glyph glyph-name="uni0417" unicode="&#x417;" horiz-adv-x="1170" 
d="M780 47q-29 -23 -65 -35t-74 -12h-498q-13 0 -17.5 11t6.5 19l89 68q24 18 51.5 29t59.5 11h391q28 0 52.5 10t42.5 28t28 42.5t10 53.5v268q0 29 -10 53.5t-27.5 42t-42 27.5t-53.5 10h-382q-14 0 -24 10t-10 24v71q0 14 10 24t24 10h375q28 0 52.5 10t42.5 28t28 42
t10 52v205q0 29 -10 53.5t-27.5 42t-41.5 27.5t-53 10h-572q-13 0 -17.5 11t6.5 19l89 67q24 19 52 30t60 11h411q59 0 110 -21.5t89 -59.5t59.5 -89t21.5 -110v-117q0 -58 -26.5 -105t-71.5 -81l-62 -47q81 -37 124 -105.5t43 -149.5v-187q0 -58 -26.5 -105.5t-71.5 -80.5z
" />
    <glyph glyph-name="uni0418" unicode="&#x418;" horiz-adv-x="1441" 
d="M1129 0q-14 0 -24 10t-10 24v1280l-589 -1277q-8 -17 -22.5 -27t-34.5 -10h-225q-14 0 -24 10t-10 24v1352q0 14 10 24t24 10h89q14 0 24 -10t10 -24v-1279l589 1276q8 17 22.5 27t34.5 10h224q14 0 24 -10t10 -24v-1352q0 -14 -10 -24t-24 -10h-88z" />
    <glyph glyph-name="uni0419" unicode="&#x419;" horiz-adv-x="1441" 
d="M1029 1800q17 0 17 -17q-1 -64 -24.5 -116t-64.5 -88.5t-97 -56.5t-122 -20q-67 0 -123.5 20t-98 56.5t-64.5 88.5t-24 116q0 17 17 17h108q16 0 16 -17q1 -37 13.5 -67t35 -51.5t53 -33.5t67.5 -12q36 0 67 12t53.5 33.5t35 51.5t13.5 67q0 17 17 17h105zM1129 0
q-14 0 -24 10t-10 24v1280l-589 -1277q-8 -17 -22.5 -27t-34.5 -10h-225q-14 0 -24 10t-10 24v1352q0 14 10 24t24 10h89q14 0 24 -10t10 -24v-1279l589 1276q8 17 22.5 27t34.5 10h224q14 0 24 -10t10 -24v-1352q0 -14 -10 -24t-24 -10h-88z" />
    <glyph glyph-name="uni041A" unicode="&#x41a;" horiz-adv-x="1228" 
d="M1055 0q-19 0 -36.5 8t-30.5 23l-589 657q-8 8 -17.5 4t-9.5 -14v-644q0 -14 -10 -24t-24 -10h-114q-14 0 -24 10t-10 24v1352q0 14 10 24t24 10h114q14 0 24 -10t10 -24v-622q0 -10 9.5 -14t17.5 4l576 635q29 31 68 31h120q16 0 23 -13t-4 -25l-591 -653l622 -689
q11 -12 5 -26t-22 -14h-141z" />
    <glyph glyph-name="uni041B" unicode="&#x41b;" horiz-adv-x="1485" 
d="M1145 0q-14 0 -23.5 9t-9.5 23v1245h-513q-32 0 -60 -11.5t-48.5 -32t-32 -48.5t-11.5 -60v-871q0 -131 -61 -192.5t-189 -61.5h-154q-14 0 -23 9t-9 23v77q0 14 9 23.5t23 9.5h123q45 0 71 26.5t26 71.5v812q0 60 27 112.5t74 87.5l161 119q32 23 69 36t79 13h589
q14 0 23.5 -9.5t9.5 -23.5v-1355q0 -14 -9.5 -23t-23.5 -9h-117z" />
    <glyph glyph-name="uni041C" unicode="&#x41c;" horiz-adv-x="1762" 
d="M1450 0q-14 0 -24 10t-10 24v1320l-384 -1321q-5 -14 -16.5 -23.5t-25.5 -9.5h-219q-16 0 -27 9.5t-15 23.5l-388 1326v-1325q0 -14 -10 -24t-24 -10h-83q-14 0 -24 10t-10 24v1352q0 14 10 24t24 10h246q32 0 42 -31l378 -1303l376 1303q8 31 42 31h230q14 0 24 -10
t10 -24v-1352q0 -14 -10 -24t-24 -10h-88z" />
    <glyph glyph-name="uni041D" unicode="&#x41d;" horiz-adv-x="1487" 
d="M1150 0q-14 0 -24 10t-10 24v630h-745v-630q0 -14 -10 -24t-24 -10h-113q-14 0 -24 10t-10 24v1352q0 14 10 24t24 10h113q14 0 24 -10t10 -24v-579h745v579q0 14 10 24t24 10h113q14 0 24 -10t10 -24v-1352q0 -14 -10 -24t-24 -10h-113z" />
    <glyph glyph-name="uni041E" unicode="&#x41e;" horiz-adv-x="1446" 
d="M1020 48q-31 -23 -68 -35.5t-78 -12.5h-419q-61 0 -115 23t-94 63t-63 94t-23 115v760q0 61 27.5 110t74.5 84l164 123q31 23 68 35.5t78 12.5h419q61 0 115 -23t94 -63t63 -94t23 -115v-760q0 -61 -27.5 -110t-74.5 -84zM1102 1132q0 31 -11 57.5t-30.5 46t-46 30.5
t-57.5 11h-468q-31 0 -57.5 -11t-46 -30.5t-30.5 -46t-11 -57.5v-844q0 -31 11 -57.5t30.5 -46t46 -30.5t57.5 -11h468q31 0 57.5 11t46 30.5t30.5 46t11 57.5v844z" />
    <glyph glyph-name="uni041F" unicode="&#x41f;" horiz-adv-x="1485" 
d="M1146 0q-14 0 -23.5 9t-9.5 23v1245h-608q-32 0 -60 -11.5t-48.5 -32t-32 -48.5t-11.5 -60v-1093q0 -14 -9.5 -23t-23.5 -9h-117q-14 0 -23.5 9t-9.5 23v1020q0 61 27 113t74 87l161 119q31 23 68 36t79 13h683q14 0 23.5 -9.5t9.5 -23.5v-1355q0 -14 -9.5 -23t-23.5 -9
h-116z" />
    <glyph glyph-name="uni0420" unicode="&#x420;" horiz-adv-x="1360" 
d="M1000 619q-30 -23 -67.5 -36t-77.5 -13h-481v-536q0 -14 -10 -24t-24 -10h-116q-14 0 -24 10t-10 24v1352q0 14 10 24t24 10h116q14 0 24 -10t10 -24v-34q149 22 249.5 37t167.5 23.5t108.5 12t71.5 3.5q61 0 115 -23t94 -63t63 -94t23 -115v-198q0 -61 -26.5 -110
t-74.5 -84zM1082 1132q0 31 -11 57.5t-30.5 46t-46 30.5t-57.5 11h-520q-18 0 -30.5 -12.5t-12.5 -30.5v-521h564q30 0 56.5 11t46 30.5t30.5 46t11 57.5v274z" />
    <glyph glyph-name="uni0421" unicode="&#x421;" horiz-adv-x="1258" 
d="M1090 42q-25 -19 -53.5 -30.5t-61.5 -11.5h-520q-61 0 -115 23t-94 63t-63 94t-23 115v760q0 61 27.5 110t74.5 84l164 123q31 23 68 35.5t78 12.5h551q14 0 24 -10t10 -24v-75q0 -14 -10 -24t-24 -10h-634q-31 0 -57.5 -11t-46 -30.5t-30.5 -46t-11 -57.5v-844
q0 -31 11 -57.5t30.5 -46t46 -30.5t57.5 -11h683q14 0 18 -11t-7 -19z" />
    <glyph glyph-name="uni0422" unicode="&#x422;" horiz-adv-x="1168" 
d="M526 0q-14 0 -24 10t-10 24v1243h-443q-14 0 -24 10t-10 24v75q0 14 10 24t24 10h1070q14 0 24 -10t10 -24v-75q0 -14 -10 -24t-24 -10h-443v-1243q0 -14 -10 -24t-24 -10h-116z" />
    <glyph glyph-name="uni0423" unicode="&#x423;" horiz-adv-x="1427" 
d="M1129 -11q-8 -7 -17.5 -9t-18 1t-14 10.5t-5.5 19.5v431q-129 -17 -231.5 -29.5t-184.5 -20.5t-146 -11.5t-116 -3.5t-96.5 18.5t-76.5 50.5t-50.5 76.5t-18.5 96.5v769q0 14 9.5 23.5t23.5 9.5h118q14 0 23.5 -9.5t9.5 -23.5v-786q0 -36 22.5 -58.5t58.5 -22.5h615
q17 0 28.5 11t11.5 28v828q0 14 9 23.5t23 9.5h118q14 0 23.5 -9.5t9.5 -23.5v-1246q0 -49 -31 -74z" />
    <glyph glyph-name="uni0424" unicode="&#x424;" horiz-adv-x="1455" 
d="M1051 245q-32 -23 -69.5 -36t-78.5 -13h-89v-164q0 -14 -9.5 -23t-23.5 -9h-108q-14 0 -23.5 9t-9.5 23v164h-176q-67 0 -125.5 21.5t-102.5 60.5t-69.5 94.5t-25.5 123.5v349q0 63 28 113.5t76 86.5l132 100q40 30 84 48.5t91 18.5h88v175q0 14 9.5 23.5t23.5 9.5h108
q14 0 23.5 -9.5t9.5 -23.5v-175h200q73 0 129 -25.5t94 -69t57.5 -103t19.5 -126.5v-291q0 -46 -7 -81.5t-22 -64.5t-38 -53.5t-56 -48.5zM640 1069h-164q-29 0 -56.5 -12t-48.5 -33t-34 -48.5t-13 -58.5v-388q0 -38 9 -72.5t27.5 -60.5t47.5 -41.5t68 -15.5h164v730z
M1130 879q0 39 -9 73.5t-27.5 60.5t-47.5 41t-68 15h-164v-730h164q30 0 57.5 11.5t48.5 32t33.5 48.5t12.5 60v388z" />
    <glyph glyph-name="uni0425" unicode="&#x425;" horiz-adv-x="1194" 
d="M1007 0q-28 0 -44 24l-363 542l-369 -542q-16 -24 -46 -24h-126q-14 0 -21 12t1 24l465 680l-456 667q-8 12 -2 24.5t20 12.5h138q28 0 45 -25l361 -530l360 530q17 25 45 25h126q15 0 21.5 -12.5t-1.5 -24.5l-456 -666l464 -681q8 -12 2 -24t-20 -12h-144z" />
    <glyph glyph-name="uni0426" unicode="&#x426;" horiz-adv-x="1488" 
d="M1345 -440q-14 0 -23.5 9.5t-9.5 23.5v338q0 35 -15 52t-50 17h-1024q-14 0 -23.5 9.5t-9.5 23.5v1354q0 14 9.5 23.5t23.5 9.5h118q14 0 23 -9.5t9 -23.5v-1245h743v1245q0 14 9 23.5t23 9.5h118q14 0 23.5 -9.5t9.5 -23.5v-1245h24q93 0 133 -41.5t40 -131.5v-376
q0 -14 -9.5 -23.5t-23.5 -9.5h-118z" />
    <glyph glyph-name="uni0427" unicode="&#x427;" horiz-adv-x="1398" 
d="M1058 0q-14 0 -23.5 9t-9.5 23v613q-98 -18 -191.5 -30.5t-175.5 -20t-149.5 -11t-112.5 -3.5q-52 0 -96.5 18t-76.5 50.5t-50.5 76.5t-18.5 97v565q0 14 9.5 23.5t23.5 9.5h117q14 0 23.5 -9.5t9.5 -23.5v-584q0 -36 23 -59t59 -23h567q16 0 27.5 11.5t11.5 28.5v626
q0 14 9.5 23.5t23.5 9.5h118q14 0 23 -9.5t9 -23.5v-1355q0 -14 -9 -23t-23 -9h-118z" />
    <glyph glyph-name="uni0428" unicode="&#x428;" horiz-adv-x="1792" 
d="M223 0q-14 0 -23.5 9.5t-9.5 23.5v1354q0 14 9.5 23.5t23.5 9.5h117q14 0 23.5 -9.5t9.5 -23.5v-1244h432v1244q0 14 9.5 23.5t23.5 9.5h117q14 0 23.5 -9.5t9.5 -23.5v-1244h431v1244q0 14 9.5 23.5t23.5 9.5h117q14 0 23.5 -9.5t9.5 -23.5v-1354q0 -14 -9.5 -23.5
t-23.5 -9.5h-1346z" />
    <glyph glyph-name="uni0429" unicode="&#x429;" horiz-adv-x="1792" 
d="M1647 -440q-14 0 -23.5 9.5t-9.5 23.5v338q0 35 -15 52t-50 17h-1326q-14 0 -23.5 9.5t-9.5 23.5v1354q0 14 9.5 23.5t23.5 9.5h117q14 0 23.5 -9.5t9.5 -23.5v-1245h432v1245q0 14 9.5 23.5t23.5 9.5h117q14 0 23.5 -9.5t9.5 -23.5v-1245h431v1245q0 14 9.5 23.5
t23.5 9.5h117q14 0 23.5 -9.5t9.5 -23.5v-1245h23q93 0 133 -41.5t40 -131.5v-376q0 -14 -9.5 -23.5t-23.5 -9.5h-118z" />
    <glyph glyph-name="uni042A" unicode="&#x42a;" horiz-adv-x="1368" 
d="M1042 47q-29 -22 -65 -34.5t-77 -12.5h-677q-14 0 -23.5 9t-9.5 23v1184q0 35 -12 48t-47 13h-102q-14 0 -23 9.5t-9 23.5v77q0 14 9 23.5t23 9.5h144q55 0 93 -11.5t61.5 -36.5t34 -63.5t10.5 -93.5v-419q147 20 249.5 33t174.5 21t122 11.5t94 3.5q63 0 111.5 -22.5
t82 -62t51 -93.5t17.5 -117v-238q0 -55 -24 -102t-65 -77zM1098 573q0 30 -5.5 57t-18 47t-33.5 32t-52 12h-574q-19 0 -31 -12t-12 -30v-543h617q30 0 51 11.5t34 31.5t18.5 47t5.5 58v289z" />
    <glyph glyph-name="uni042B" unicode="&#x42b;" horiz-adv-x="1906" 
d="M1042 47q-29 -22 -65 -34.5t-77 -12.5h-677q-14 0 -23.5 9t-9.5 23v1355q0 14 9.5 23.5t23.5 9.5h116q14 0 23.5 -9.5t9.5 -23.5v-591q147 20 249.5 33t174.5 21t122 11.5t94 3.5q56 0 104 -20t83 -57.5t55 -91.5t20 -121v-243q0 -55 -24 -102t-65 -77zM1098 573
q0 30 -5.5 57t-18 47t-33.5 32t-52 12h-574q-19 0 -31 -12t-12 -30v-543h617q30 0 51 11.5t34 31.5t18.5 47t5.5 58v289zM1568 0q-14 0 -23.5 9t-9.5 23v1355q0 14 9.5 23.5t23.5 9.5h115q14 0 23.5 -9.5t9.5 -23.5v-1355q0 -14 -9.5 -23t-23.5 -9h-115z" />
    <glyph glyph-name="uni042C" unicode="&#x42c;" horiz-adv-x="1368" 
d="M1042 47q-29 -22 -65 -34.5t-77 -12.5h-677q-14 0 -23.5 9t-9.5 23v1355q0 14 9.5 23.5t23.5 9.5h116q14 0 23.5 -9.5t9.5 -23.5v-591q147 20 249.5 33t174.5 21t122 11.5t94 3.5q56 0 104 -20t83 -57.5t55 -91.5t20 -121v-243q0 -55 -24 -102t-65 -77zM1098 573
q0 30 -5.5 57t-18 47t-33.5 32t-52 12h-574q-19 0 -31 -12t-12 -30v-543h617q30 0 51 11.5t34 31.5t18.5 47t5.5 58v289z" />
    <glyph glyph-name="uni042D" unicode="&#x42d;" horiz-adv-x="1344" 
d="M313 0q-33 0 -61.5 11t-53.5 31l-87 68q-9 8 -9 20t18 12h699q40 0 73.5 11t57.5 32.5t37.5 52.5t13.5 71v348h-774q-14 0 -23 9.5t-9 23.5v77q0 14 9 23.5t23 9.5h774v325q0 36 -12 64t-32.5 47.5t-48 30t-59.5 10.5h-686q-14 0 -23.5 9.5t-9.5 23.5v77q0 14 9.5 23.5
t23.5 9.5h592q24 0 50.5 -2.5t53.5 -8.5t54 -16.5t51 -27.5l124 -87q43 -30 69.5 -77.5t26.5 -105.5v-750q0 -80 -28.5 -144t-77.5 -108.5t-114 -68.5t-138 -24h-513z" />
    <glyph glyph-name="uni042E" unicode="&#x42e;" horiz-adv-x="1899" 
d="M1476 48q-65 -48 -148 -48h-326q-62 0 -117 23t-95.5 63.5t-64 95.5t-23.5 118v352h-331v-620q0 -14 -9.5 -23t-23.5 -9h-115q-14 0 -23.5 9t-9.5 23v1355q0 14 9.5 23.5t23.5 9.5h115q14 0 23.5 -9.5t9.5 -23.5v-591h331v258q0 62 28.5 112.5t76.5 86.5l158 118
q31 23 69 36t79 13h326q62 0 117 -23.5t95.5 -64t64 -95.5t23.5 -118v-754q0 -68 -31 -118.5t-81 -87.5zM1555 1075q0 42 -8 78.5t-26 64t-47 43.5t-71 16h-365q-30 0 -57.5 -12t-48.5 -32.5t-33.5 -48.5t-12.5 -59v-781q0 -41 8 -78t26 -64.5t47 -43.5t71 -16h365
q42 0 71 16t47 43.5t26 64t8 78.5v731z" />
    <glyph glyph-name="uni042F" unicode="&#x42f;" horiz-adv-x="1385" 
d="M1045 1q-14 0 -24 10t-10 24v553h-416q-20 0 -34 -7t-24 -24l-297 -528q-16 -28 -48 -28h-137q-14 0 -21 9.5t1 23.5l343 608l-158 117q-48 35 -74.5 84t-26.5 110v181q0 61 23 115t63 94t94 63t115 23q30 0 71.5 -3.5t108.5 -12t167.5 -23.5t249.5 -37v34q0 14 10 24
t24 10h116q14 0 24 -10t10 -24v-1352q0 -14 -10 -24t-24 -10h-116zM1011 1235q0 18 -12.5 30.5t-30.5 12.5h-520q-31 0 -57.5 -11t-46 -30.5t-30.5 -46t-11 -57.5v-257q0 -31 11 -57.5t30.5 -46t46 -30.5t56.5 -11h564v504z" />
    <glyph glyph-name="uni0430" unicode="&#x430;" horiz-adv-x="1163" 
d="M878 0q-14 0 -24 10t-10 24v25q-98 -19 -168.5 -32t-123.5 -20.5t-93.5 -11t-77.5 -3.5q-50 0 -94 18.5t-76.5 51t-51 76.5t-18.5 95v541q0 50 21 90.5t58 68.5l134 100q29 22 64 34.5t77 12.5h482q14 0 24 -10t10 -24v-1012q0 -14 -10 -24t-24 -10h-99zM844 945h-461
q-31 0 -53 -22t-22 -53v-660q0 -33 21 -54t54 -21h421q17 0 28.5 11.5t11.5 28.5v770z" />
    <glyph glyph-name="uni0431" unicode="&#x431;" horiz-adv-x="1192" 
d="M854 67q-37 -29 -79.5 -48t-93.5 -19h-279q-51 0 -95 18.5t-77 51.5t-51.5 77t-18.5 95v872q0 61 27.5 104t70.5 74l91 65q47 33 96 48t112 15h321q14 0 23.5 -9t9.5 -24v-68q0 -15 -9.5 -24t-23.5 -9h-469q-33 0 -57 -24t-24 -57v-183q98 19 169 31.5t124 20t93.5 10.5
t76.5 3q52 0 96 -18t76 -50.5t50.5 -77t18.5 -96.5v-541q0 -48 -22.5 -91t-58.5 -71zM864 866q0 36 -22.5 58.5t-58.5 22.5h-415q-17 0 -28.5 -11t-11.5 -28v-694q0 -36 22.5 -59t58.5 -23h374q33 0 57 24t24 58v652z" />
    <glyph glyph-name="uni0432" unicode="&#x432;" horiz-adv-x="1171" 
d="M859 71q-38 -29 -80 -50t-93 -21h-504q-13 0 -21.5 8.5t-8.5 21.5v1018q0 13 8.5 22t21.5 9h104q13 0 22 -9t9 -22v-24q115 18 190 30.5t124.5 19.5t81.5 10t62 3q51 0 95.5 -18.5t77 -50.5t51 -76.5t18.5 -95.5v-51q0 -58 -23 -96.5t-66 -71.5l-41 -32q66 -31 104.5 -89
t38.5 -132v-68q0 -51 -22 -94t-60 -72zM851 853q0 45 -27 72t-71 27h-398q-17 0 -27.5 -10t-10.5 -26v-300h436q42 0 70 28.5t28 69.5v139zM864 388q0 44 -27.5 72t-71.5 28h-448v-360h448q42 0 70.5 28t28.5 70v162z" />
    <glyph glyph-name="uni0433" unicode="&#x433;" horiz-adv-x="1006" 
d="M174 0q-14 0 -23.5 9t-9.5 23v681q0 36 4 68t14 60t27 52t43 43l113 81q48 35 96.5 48.5t110.5 13.5h399q14 0 23.5 -9.5t9.5 -23.5v-71q0 -14 -9.5 -23.5t-23.5 -9.5h-535q-45 0 -71 -26t-26 -70v-814q0 -14 -9.5 -23t-23.5 -9h-109z" />
    <glyph glyph-name="uni0434" unicode="&#x434;" horiz-adv-x="1236" 
d="M1112 -440q-14 0 -23.5 9.5t-9.5 23.5v338q0 35 -15 52t-50 17h-788q-34 0 -48 -17t-14 -52v-338q0 -14 -9.5 -23.5t-23.5 -9.5h-101q-14 0 -23 9.5t-9 23.5v350q0 47 7.5 82.5t25 59t46 35.5t71.5 12h14q44 0 69.5 26.5t25.5 71.5v477q0 74 19.5 127.5t72.5 93.5
l141 104q39 29 83 38t101 9h363q14 0 23.5 -9.5t9.5 -23.5v-914h10q88 0 127 -39.5t39 -129.5v-370q0 -14 -9.5 -23.5t-23.5 -9.5h-101zM904 949h-377q-44 0 -74 -30t-30 -75v-500q0 -79 -13 -126.5t-44 -70.5l-20 -15h558v817z" />
    <glyph glyph-name="uni0435" unicode="&#x435;" horiz-adv-x="1132" 
d="M924 42q-25 -19 -55.5 -30.5t-67.5 -11.5h-420q-50 0 -94 18.5t-76.5 51t-51 76.5t-18.5 94v534q0 50 21 90.5t58 68.5l134 100q29 22 64 34.5t77 12.5h281q50 0 94 -18.5t76.5 -51t51 -76.5t18.5 -94v-104q0 -51 -18.5 -94.5t-51 -76t-76.5 -51t-94 -18.5h-468v-286
q0 -33 21 -54t54 -21h611q13 0 17 -12t-6 -20zM849 870q0 33 -21 54t-54 21h-391q-31 0 -53 -22t-22 -53v-239h466q34 0 54.5 20t20.5 55v164z" />
    <glyph glyph-name="uni0436" unicode="&#x436;" horiz-adv-x="1533" 
d="M1392 0q-39 0 -67 31l-448 491q-8 8 -17.5 4t-9.5 -13v-479q0 -14 -10 -24t-24 -10h-99q-14 0 -24 10t-10 24v477q0 11 -9.5 15t-17.5 -4l-448 -491q-28 -31 -67 -31h-117q-16 0 -22 13t5 26l478 520l-448 484q-11 12 -5.5 24.5t21.5 12.5h103q20 0 38.5 -8t30.5 -22
l431 -466q8 -8 17.5 -4t9.5 14v452q0 14 10 24t24 10h99q14 0 24 -10t10 -24v-452q0 -10 9.5 -14t17.5 4l431 466q12 14 30.5 22t38.5 8h103q16 0 21.5 -12.5t-5.5 -24.5l-448 -484l478 -520q11 -13 5 -26t-22 -13h-117z" />
    <glyph glyph-name="uni0437" unicode="&#x437;" horiz-adv-x="1080" 
d="M765 59q-34 -26 -72 -42.5t-82 -16.5h-531q-14 0 -16.5 9.5t5.5 17.5l67 53q37 29 74.5 39t83.5 10h375q40 0 67.5 27.5t27.5 67.5v184q0 40 -26 68t-69 28h-428q-12 0 -20.5 8t-8.5 20v72q0 12 8.5 20.5t20.5 8.5h429q23 0 40.5 9.5t29 25t17.5 36t6 42.5v108
q0 41 -26 68t-69 27h-547q-12 0 -15.5 10.5t5.5 17.5l66 52q36 28 73.5 39t81.5 11h375q49 0 91.5 -17.5t73.5 -48.5t48.5 -73.5t17.5 -91.5v-54q0 -48 -20.5 -87t-57.5 -67l-50 -38q61 -29 95 -84t34 -124v-105q0 -49 -22 -89t-58 -68z" />
    <glyph glyph-name="uni0438" unicode="&#x438;" horiz-adv-x="1212" 
d="M936 0q-14 0 -23.5 9t-9.5 23v934l-461 -931q-8 -16 -22.5 -25.5t-32.5 -9.5h-201q-14 0 -23.5 9t-9.5 23v1015q0 14 9.5 23.5t23.5 9.5h90q14 0 23.5 -9.5t9.5 -23.5v-934l462 931q8 15 22 25.5t32 10.5h201q14 0 23.5 -9.5t9.5 -23.5v-1015q0 -14 -9.5 -23t-23.5 -9
h-90z" />
    <glyph glyph-name="uni0439" unicode="&#x439;" horiz-adv-x="1212" 
d="M919 1523q17 0 17 -17q-1 -64 -24.5 -116t-64.5 -88.5t-97 -56.5t-122 -20q-67 0 -123.5 20t-98 56.5t-64.5 88.5t-24 116q0 17 17 17h108q16 0 16 -17q1 -37 13.5 -67t35 -51.5t53 -33.5t67.5 -12q36 0 67 12t53.5 33.5t35 51.5t13.5 67q0 17 17 17h105zM936 0
q-14 0 -23.5 9t-9.5 23v934l-461 -931q-8 -16 -22.5 -25.5t-32.5 -9.5h-201q-14 0 -23.5 9t-9.5 23v1015q0 14 9.5 23.5t23.5 9.5h90q14 0 23.5 -9.5t9.5 -23.5v-934l462 931q8 15 22 25.5t32 10.5h201q14 0 23.5 -9.5t9.5 -23.5v-1015q0 -14 -9.5 -23t-23.5 -9h-90z" />
    <glyph glyph-name="uni043A" unicode="&#x43a;" horiz-adv-x="1003" 
d="M862 0q-39 0 -67 31l-448 491q-8 8 -17.5 4t-9.5 -15v-477q0 -14 -10 -24t-24 -10h-99q-14 0 -24 10t-10 24v1452q0 14 10 24t24 10h99q14 0 24 -10t10 -24v-892q0 -10 9.5 -14t17.5 4l431 466q12 14 30.5 22t38.5 8h103q16 0 21.5 -12.5t-5.5 -24.5l-448 -484l478 -520
q11 -13 5 -26t-22 -13h-117z" />
    <glyph glyph-name="uni043B" unicode="&#x43b;" horiz-adv-x="1254" 
d="M967 0q-14 0 -23.5 9t-9.5 23v908h-420q-45 0 -75 -30t-30 -74v-578q0 -58 -17.5 -105.5t-50 -81.5t-79.5 -52.5t-105 -18.5h-136q-14 0 -23 9t-9 23v74q0 14 9 23.5t23 9.5h115q48 0 77 29t29 77v505q0 54 23 101t65 77l118 87q50 37 99.5 51t113.5 14h407
q14 0 23.5 -9.5t9.5 -23.5v-1015q0 -14 -9.5 -23t-23.5 -9h-101z" />
    <glyph glyph-name="uni043C" unicode="&#x43c;" horiz-adv-x="1528" 
d="M1253 0q-14 0 -23.5 9.5t-9.5 23.5v971l-317 -972q-5 -14 -16 -23t-25 -9h-194q-16 0 -26.5 9t-15.5 23l-323 976v-975q0 -14 -9.5 -23.5t-23.5 -9.5h-84q-14 0 -23.5 9.5t-9.5 23.5v1014q0 14 9.5 23.5t23.5 9.5h232q31 0 41 -31l310 -960l304 960q10 31 41 31h228
q14 0 23.5 -9.5t9.5 -23.5v-1014q0 -14 -9.5 -23.5t-23.5 -9.5h-89z" />
    <glyph glyph-name="uni043D" unicode="&#x43d;" horiz-adv-x="1180" 
d="M892 0q-14 0 -23.5 9.5t-9.5 23.5v462h-538v-462q0 -14 -9.5 -23.5t-23.5 -9.5h-102q-14 0 -23.5 9.5t-9.5 23.5v1014q0 14 9.5 23.5t23.5 9.5h102q14 0 23.5 -9.5t9.5 -23.5v-412h538v412q0 14 9.5 23.5t23.5 9.5h102q14 0 23.5 -9.5t9.5 -23.5v-1014q0 -14 -9.5 -23.5
t-23.5 -9.5h-102z" />
    <glyph glyph-name="uni043E" unicode="&#x43e;" horiz-adv-x="1152" 
d="M798 48q-29 -21 -64 -34.5t-77 -13.5h-276q-50 0 -94 18.5t-76.5 51t-51 76.5t-18.5 94v534q0 50 21 90.5t58 68.5l134 100q29 22 64 34.5t77 12.5h276q50 0 94 -18.5t76.5 -51t51 -76.5t18.5 -94v-534q0 -49 -21 -90t-57 -68zM844 870q0 33 -21 54t-54 21h-386
q-31 0 -53 -22t-22 -53v-660q0 -33 21 -54t54 -21h386q31 0 53 22t22 53v660z" />
    <glyph glyph-name="uni043F" unicode="&#x43f;" horiz-adv-x="1166" 
d="M879 0q-14 0 -23.5 9t-9.5 23v908h-432q-45 0 -75 -30t-30 -74v-804q0 -14 -9.5 -23t-23.5 -9h-102q-14 0 -23.5 9t-9.5 23v661q0 39 3.5 73t13 63t27 53.5t44.5 45.5l118 87q28 21 54 33.5t52.5 19.5t55.5 9.5t63 2.5h408q14 0 23.5 -9.5t9.5 -23.5v-1015
q0 -14 -9.5 -23t-23.5 -9h-101z" />
    <glyph glyph-name="uni0440" unicode="&#x440;" horiz-adv-x="1164" 
d="M810 47q-29 -22 -64 -34.5t-77 -12.5h-349v-406q0 -14 -10 -24t-24 -10h-99q-14 0 -24 10t-10 24v1452q0 14 10 24t24 10h99q14 0 24 -10t10 -24v-25q98 19 168.5 32t123.5 20.5t93 11t78 3.5q50 0 94 -18.5t76.5 -51t51 -76.5t18.5 -95v-541q0 -50 -21 -90.5t-58 -68.5z
M856 870q0 33 -21 54t-54 21h-421q-17 0 -28.5 -11.5t-11.5 -28.5v-770h461q31 0 53 22t22 53v660z" />
    <glyph glyph-name="uni0441" unicode="&#x441;" horiz-adv-x="1020" 
d="M868 42q-25 -19 -55.5 -30.5t-67.5 -11.5h-364q-50 0 -94 18.5t-76.5 51t-51 76.5t-18.5 94v534q0 50 21 90.5t58 68.5l134 100q29 22 64 34.5t77 12.5h411q14 0 24 -10t10 -24v-67q0 -14 -10 -24t-24 -10h-523q-31 0 -53 -22t-22 -53v-660q0 -33 21 -54t54 -21h555
q13 0 17 -12t-6 -20z" />
    <glyph glyph-name="uni0442" unicode="&#x442;" horiz-adv-x="997" 
d="M446 0q-14 0 -23.5 9.5t-9.5 23.5v914h-373q-14 0 -23.5 9.5t-9.5 23.5v67q0 14 9.5 23.5t23.5 9.5h917q14 0 23.5 -9.5t9.5 -23.5v-67q0 -14 -9.5 -23.5t-23.5 -9.5h-375v-914q0 -14 -9.5 -23.5t-23.5 -9.5h-103z" />
    <glyph glyph-name="uni0443" unicode="&#x443;" horiz-adv-x="1169" 
d="M907 -433q-9 -9 -19 -11t-18.5 1.5t-14 12t-5.5 20.5v469q-98 -19 -168.5 -32t-123.5 -20.5t-93.5 -11t-77.5 -3.5q-50 0 -94 18.5t-76.5 51t-51 76.5t-18.5 95v813q0 14 10 24t24 10h99q14 0 24 -10t10 -24v-836q0 -33 21 -54t54 -21h421q17 0 28.5 11.5t11.5 28.5v871
q0 14 10 24t24 10h99q14 0 24 -10t10 -24v-1328q0 -23 -8 -39.5t-21 -30.5z" />
    <glyph glyph-name="uni0444" unicode="&#x444;" horiz-adv-x="1318" 
d="M612 -440q-14 0 -23.5 10t-9.5 23v407h-168q-132 0 -201 62.5t-69 185.5v517q0 28 9.5 54t25 49t36 42.5t42.5 35.5l93 68q38 28 89.5 44.5t107.5 19.5h35v409q0 14 9.5 23.5t23.5 9.5h93q14 0 23.5 -9.5t9.5 -23.5v-408h158q59 0 110.5 -16t89.5 -48.5t59.5 -81.5
t21.5 -115v-444q0 -74 -19.5 -129t-72.5 -95l-116 -86q-19 -14 -43 -25.5t-50 -20t-53 -13.5t-53 -5h-32v-407q0 -13 -9.5 -23t-23.5 -10h-93zM579 940h-169q-45 0 -74.5 -30.5t-29.5 -74.5v-592q0 -47 28.5 -76t75.5 -29h169v802zM1011 835q0 47 -29 76t-76 29h-168v-802
h168q22 0 41 8t33 22.5t22.5 33.5t8.5 41v592z" />
    <glyph glyph-name="uni0445" unicode="&#x445;" horiz-adv-x="1023" 
d="M854 0q-15 0 -28.5 6.5t-21.5 18.5l-297 411l-296 -411q-8 -12 -21.5 -18.5t-28.5 -6.5h-112q-15 0 -21 12.5t2 23.5l386 516l-368 491q-8 11 -3 23.5t20 12.5h121q15 0 28.5 -6.5t21.5 -18.5l279 -388l277 388q8 12 21.5 18.5t28.5 6.5h115q15 0 20.5 -12.5t-3.5 -23.5
l-367 -491l386 -516q9 -11 3 -23.5t-21 -12.5h-121z" />
    <glyph glyph-name="uni0446" unicode="&#x446;" horiz-adv-x="1212" 
d="M1098 -440q-14 0 -23.5 9.5t-9.5 23.5v338q0 69 -73 69h-806q-14 0 -23.5 9t-9.5 23v1014q0 14 9.5 23.5t23.5 9.5h101q14 0 24 -9.5t10 -23.5v-914h570v914q0 14 9.5 23.5t23.5 9.5h102q14 0 23.5 -9.5t9.5 -23.5v-914h8q85 0 124.5 -36.5t39.5 -126.5v-376
q0 -14 -9.5 -23.5t-23.5 -9.5h-100z" />
    <glyph glyph-name="uni0447" unicode="&#x447;" horiz-adv-x="1142" 
d="M855 0q-14 0 -23.5 9t-9.5 23v363q-98 -18 -165 -30.5t-116 -20t-86 -11t-73 -3.5q-52 0 -96 18.5t-76.5 50.5t-50.5 76.5t-18 96.5v474q0 14 9.5 23.5t23.5 9.5h101q14 0 23.5 -9.5t9.5 -23.5v-494q0 -34 23 -57.5t59 -23.5h393q16 0 27.5 11t11.5 28v536q0 14 9.5 23.5
t23.5 9.5h101q14 0 23.5 -9.5t9.5 -23.5v-1014q0 -14 -9.5 -23t-23.5 -9h-101z" />
    <glyph glyph-name="uni0448" unicode="&#x448;" horiz-adv-x="1539" 
d="M185 0q-14 0 -23 9t-9 23v1015q0 14 9 23.5t23 9.5h102q14 0 23.5 -9.5t9.5 -23.5v-915h368v915q0 14 9.5 23.5t23.5 9.5h98q14 0 23.5 -9.5t9.5 -23.5v-915h367v915q0 14 9 23.5t23 9.5h102q14 0 23.5 -9.5t9.5 -23.5v-1015q0 -14 -9.5 -23t-23.5 -9h-1168z" />
    <glyph glyph-name="uni0449" unicode="&#x449;" horiz-adv-x="1539" 
d="M1427 -440q-14 0 -23.5 9.5t-9.5 23.5v338q0 69 -70 69h-1139q-14 0 -23 9t-9 23v1015q0 14 9 23.5t23 9.5h96q14 0 23.5 -9.5t9.5 -23.5v-915h376v915q0 14 9.5 23.5t23.5 9.5h94q14 0 23.5 -9.5t9.5 -23.5v-915h374v915q0 14 9 23.5t23 9.5h97q14 0 23.5 -9.5
t9.5 -23.5v-915h8q87 0 126.5 -39.5t39.5 -129.5v-370q0 -14 -9.5 -23.5t-23.5 -9.5h-100z" />
    </font>
</defs>
</svg>
